%FSLAX36Y36*%
G04 Gerber Fmt 3.6, Leading zero omitted, Abs format (unit inch)*
G04 Created by KiCad (PCBNEW (2014-jul-16 BZR unknown)-product) date Mon 26 Jan 2015 07:29:18 PM PST*
%MOIN*%
G01*
G04 APERTURE LIST*
%ADD10C,0.003937*%
%ADD11C,0.236220*%
%ADD12C,0.059100*%
%ADD13C,0.078700*%
%ADD14R,0.078700X0.078700*%
%ADD15C,0.060000*%
%ADD16R,0.068000X0.068000*%
%ADD17C,0.068000*%
%ADD18R,0.060000X0.060000*%
%ADD19O,0.068000X0.068000*%
%ADD20R,0.055000X0.055000*%
%ADD21C,0.055000*%
%ADD22C,0.035000*%
%ADD23C,0.008000*%
%ADD24C,0.040000*%
%ADD25C,0.010000*%
G04 APERTURE END LIST*
D10*
D11*
X4133858Y-4133858D03*
X5708661Y-4133858D03*
X4133858Y-5708661D03*
X5708661Y-5708661D03*
D12*
X4000000Y-4850000D03*
X4000000Y-4750000D03*
X4695000Y-4925000D03*
X4595000Y-4925000D03*
X5200000Y-4950000D03*
X5300000Y-4950000D03*
X4800000Y-4925000D03*
X4900000Y-4925000D03*
X5000000Y-4950000D03*
X5100000Y-4950000D03*
D13*
X4125000Y-4725000D03*
D14*
X4125000Y-5125000D03*
D15*
X4450000Y-4125000D03*
X4450000Y-4225000D03*
D16*
X4375000Y-5625000D03*
D17*
X4375000Y-5725000D03*
X4375000Y-5825000D03*
D18*
X5650000Y-4500000D03*
D15*
X5750000Y-4500000D03*
X5650000Y-4600000D03*
X5750000Y-4600000D03*
X5650000Y-4700000D03*
X5750000Y-4700000D03*
X5650000Y-4800000D03*
X5750000Y-4800000D03*
X5650000Y-4900000D03*
X5750000Y-4900000D03*
D16*
X4000000Y-5475000D03*
D17*
X4000000Y-5375000D03*
X4000000Y-5275000D03*
X4000000Y-5175000D03*
X4000000Y-5075000D03*
X4000000Y-4975000D03*
D16*
X4875000Y-4100000D03*
D19*
X4875000Y-4000000D03*
X4975000Y-4100000D03*
X4975000Y-4000000D03*
X5075000Y-4100000D03*
X5075000Y-4000000D03*
D14*
X5478000Y-4025000D03*
D13*
X5222000Y-4025000D03*
D12*
X4658900Y-4765000D03*
X4851100Y-4765000D03*
D20*
X4900000Y-5075000D03*
D21*
X4900000Y-5175000D03*
X4900000Y-5275000D03*
X4900000Y-5375000D03*
X5200000Y-5375000D03*
X5200000Y-5275000D03*
X5200000Y-5175000D03*
X5200000Y-5075000D03*
D12*
X4450000Y-4750000D03*
X4450000Y-4850000D03*
X4750000Y-4225000D03*
X4650000Y-4225000D03*
X5400000Y-5725000D03*
X5400000Y-5825000D03*
X5400000Y-5625000D03*
X5400000Y-5525000D03*
D16*
X5400000Y-4875000D03*
D17*
X5400000Y-4975000D03*
X5400000Y-5075000D03*
X5400000Y-5175000D03*
X5400000Y-5275000D03*
X5400000Y-5375000D03*
D21*
X4150000Y-4625000D03*
X4250000Y-4625000D03*
X4350000Y-4625000D03*
X4450000Y-4625000D03*
X4550000Y-4625000D03*
X4650000Y-4625000D03*
X4750000Y-4625000D03*
X4850000Y-4625000D03*
X4950000Y-4625000D03*
X5050000Y-4625000D03*
X5150000Y-4625000D03*
X5250000Y-4625000D03*
X5350000Y-4625000D03*
D20*
X4050000Y-4625000D03*
D21*
X5350000Y-4325000D03*
X5250000Y-4325000D03*
X5150000Y-4325000D03*
X5050000Y-4325000D03*
X4950000Y-4325000D03*
X4850000Y-4325000D03*
X4750000Y-4325000D03*
X4650000Y-4325000D03*
X4550000Y-4325000D03*
X4450000Y-4325000D03*
X4350000Y-4325000D03*
X4250000Y-4325000D03*
X4150000Y-4325000D03*
X4050000Y-4325000D03*
D20*
X4900000Y-5525000D03*
D21*
X4900000Y-5625000D03*
X4900000Y-5725000D03*
X4900000Y-5825000D03*
X5200000Y-5825000D03*
X5200000Y-5725000D03*
X5200000Y-5625000D03*
X5200000Y-5525000D03*
D20*
X5525000Y-5475000D03*
D21*
X5625000Y-5475000D03*
X5725000Y-5475000D03*
X5825000Y-5475000D03*
X5825000Y-5175000D03*
X5725000Y-5175000D03*
X5625000Y-5175000D03*
X5525000Y-5175000D03*
D15*
X5300000Y-4825000D03*
X5225000Y-4775000D03*
X5300000Y-4725000D03*
D20*
X4500000Y-5075000D03*
D21*
X4500000Y-5175000D03*
X4500000Y-5275000D03*
X4500000Y-5375000D03*
X4800000Y-5375000D03*
X4800000Y-5275000D03*
X4800000Y-5175000D03*
X4800000Y-5075000D03*
D15*
X5025000Y-4725000D03*
X5100000Y-4775000D03*
X5025000Y-4825000D03*
D19*
X4225000Y-4725000D03*
X4225000Y-5025000D03*
X4400000Y-5175000D03*
X4400000Y-5475000D03*
X4325000Y-5025000D03*
X4325000Y-4725000D03*
X4300000Y-5175000D03*
X4300000Y-5475000D03*
X4800000Y-5825000D03*
X4500000Y-5825000D03*
X4500000Y-5725000D03*
X4800000Y-5725000D03*
X4500000Y-5625000D03*
X4800000Y-5625000D03*
X4350000Y-4000000D03*
X4650000Y-4000000D03*
X5300000Y-5825000D03*
X5300000Y-5525000D03*
X5300000Y-5075000D03*
X5300000Y-5375000D03*
D12*
X4600000Y-5500000D03*
X4700000Y-5500000D03*
D22*
X5100000Y-4700000D03*
X4400000Y-4475000D03*
X4400000Y-4675000D03*
X4750000Y-4800000D03*
X4575000Y-4825000D03*
X4700000Y-5375000D03*
X4725000Y-5175000D03*
X5000000Y-5050000D03*
X5125000Y-5125000D03*
X5050000Y-5350000D03*
X4925000Y-4200000D03*
X5000000Y-4250000D03*
X4825000Y-4200000D03*
X4450000Y-4025000D03*
X4550000Y-4100000D03*
X4125000Y-5025000D03*
X4000000Y-4525000D03*
X4075000Y-4800000D03*
X4125000Y-4900000D03*
X4425000Y-5400000D03*
X4625000Y-5775000D03*
X5000000Y-5825000D03*
X4925000Y-4475000D03*
X5325000Y-4400000D03*
X5200958Y-4400958D03*
X5125000Y-4500000D03*
X4600000Y-4475000D03*
X4225000Y-4475000D03*
X5000000Y-5225000D03*
X4600000Y-5125000D03*
X4650000Y-4125000D03*
X5300000Y-5225000D03*
X5150000Y-5425000D03*
X5125000Y-5625000D03*
X5125000Y-5525000D03*
X5025000Y-5475000D03*
X4725000Y-5600000D03*
X5300000Y-4575000D03*
D23*
X5100000Y-4775000D02*
X5100000Y-4700000D01*
X4750000Y-4800000D02*
X4725000Y-4825000D01*
X4725000Y-4825000D02*
X4575000Y-4825000D01*
D24*
X4700000Y-5500000D02*
X4700000Y-5375000D01*
X4725000Y-5150000D02*
X4800000Y-5075000D01*
X4725000Y-5175000D02*
X4725000Y-5150000D01*
D23*
X5100000Y-4950000D02*
X5000000Y-5050000D01*
X5125000Y-5125000D02*
X5050000Y-5200000D01*
X5050000Y-5200000D02*
X5050000Y-5350000D01*
X4825000Y-4200000D02*
X4925000Y-4200000D01*
X4975000Y-4250000D02*
X4925000Y-4200000D01*
X5475000Y-4100000D02*
X5475000Y-4028000D01*
X5475000Y-4100000D02*
X5325000Y-4250000D01*
X5325000Y-4250000D02*
X5000000Y-4250000D01*
X5000000Y-4250000D02*
X4975000Y-4250000D01*
X5478000Y-4025000D02*
X5475000Y-4028000D01*
X4450000Y-4225000D02*
X4375000Y-4150000D01*
X4375000Y-4100000D02*
X4450000Y-4025000D01*
X4375000Y-4150000D02*
X4375000Y-4100000D01*
X4450000Y-4225000D02*
X4550000Y-4125000D01*
X4550000Y-4125000D02*
X4550000Y-4100000D01*
X4350000Y-4950000D02*
X4175000Y-4950000D01*
X4175000Y-4950000D02*
X4175000Y-4975000D01*
X4175000Y-4975000D02*
X4125000Y-5025000D01*
X4450000Y-4850000D02*
X4350000Y-4950000D01*
X4075000Y-4850000D02*
X4075000Y-4800000D01*
X4125000Y-4900000D02*
X4075000Y-4850000D01*
X4625000Y-5775000D02*
X4725000Y-5875000D01*
X4950000Y-5875000D02*
X5000000Y-5825000D01*
X4725000Y-5875000D02*
X4950000Y-5875000D01*
D24*
X4925000Y-4475000D02*
X4950000Y-4500000D01*
X4600000Y-4475000D02*
X4925000Y-4475000D01*
X5324042Y-4400958D02*
X5325000Y-4400000D01*
X5200958Y-4400958D02*
X5324042Y-4400958D01*
X4950000Y-4500000D02*
X5125000Y-4500000D01*
X4225000Y-4475000D02*
X4400000Y-4475000D01*
X4600000Y-4475000D02*
X4400000Y-4475000D01*
X5300000Y-4950000D02*
X5375000Y-4875000D01*
X5375000Y-4875000D02*
X5400000Y-4875000D01*
X5100000Y-4775000D02*
X5225000Y-4775000D01*
X5000000Y-4950000D02*
X4950000Y-5000000D01*
X4550000Y-5275000D02*
X4500000Y-5275000D01*
X4665000Y-5160000D02*
X4550000Y-5275000D01*
X4665000Y-5100000D02*
X4665000Y-5160000D01*
X4765000Y-5000000D02*
X4665000Y-5100000D01*
X4950000Y-5000000D02*
X4765000Y-5000000D01*
X5025000Y-4825000D02*
X5050000Y-4850000D01*
X5050000Y-4850000D02*
X5275000Y-4850000D01*
X5275000Y-4850000D02*
X5300000Y-4825000D01*
D23*
X4450000Y-4125000D02*
X4575000Y-4000000D01*
X4575000Y-4000000D02*
X4650000Y-4000000D01*
X4550000Y-5400000D02*
X4375000Y-5575000D01*
X4375000Y-5575000D02*
X4375000Y-5625000D01*
X4800000Y-5275000D02*
X4650000Y-5275000D01*
X4650000Y-5275000D02*
X4550000Y-5375000D01*
X4550000Y-5375000D02*
X4550000Y-5400000D01*
X5750000Y-4700000D02*
X5700000Y-4750000D01*
X5000000Y-5200000D02*
X5000000Y-5225000D01*
X5175000Y-5025000D02*
X5000000Y-5200000D01*
X5450000Y-5025000D02*
X5175000Y-5025000D01*
X5475000Y-5000000D02*
X5450000Y-5025000D01*
X5475000Y-4775000D02*
X5475000Y-5000000D01*
X5500000Y-4750000D02*
X5475000Y-4775000D01*
X5625000Y-4750000D02*
X5500000Y-4750000D01*
X5700000Y-4750000D02*
X5625000Y-4750000D01*
X4375000Y-5725000D02*
X4325000Y-5675000D01*
X4325000Y-5675000D02*
X4325000Y-5550000D01*
X4400000Y-5475000D02*
X4325000Y-5550000D01*
X4400000Y-5175000D02*
X4450000Y-5125000D01*
X4450000Y-5125000D02*
X4600000Y-5125000D01*
X4800000Y-5175000D02*
X4850000Y-5125000D01*
X5525000Y-4700000D02*
X5650000Y-4700000D01*
X5450000Y-4775000D02*
X5525000Y-4700000D01*
X5375000Y-4775000D02*
X5450000Y-4775000D01*
X5350000Y-4800000D02*
X5375000Y-4775000D01*
X5350000Y-4850000D02*
X5350000Y-4800000D01*
X5300000Y-4900000D02*
X5350000Y-4850000D01*
X5175000Y-4900000D02*
X5300000Y-4900000D01*
X5150000Y-4925000D02*
X5175000Y-4900000D01*
X5150000Y-4975000D02*
X5150000Y-4925000D01*
X5000000Y-5125000D02*
X5150000Y-4975000D01*
X4850000Y-5125000D02*
X5000000Y-5125000D01*
X4150000Y-4625000D02*
X4200000Y-4675000D01*
X4275000Y-4675000D02*
X4325000Y-4725000D01*
X4200000Y-4675000D02*
X4275000Y-4675000D01*
X4000000Y-5075000D02*
X4300000Y-4775000D01*
X4300000Y-4675000D02*
X4250000Y-4625000D01*
X4350000Y-4675000D02*
X4300000Y-4675000D01*
X4375000Y-4700000D02*
X4350000Y-4675000D01*
X4375000Y-4750000D02*
X4375000Y-4700000D01*
X4350000Y-4775000D02*
X4375000Y-4750000D01*
X4300000Y-4775000D02*
X4350000Y-4775000D01*
X4000000Y-5075000D02*
X4050000Y-5125000D01*
X4275000Y-5075000D02*
X4500000Y-5075000D01*
X4150000Y-5200000D02*
X4275000Y-5075000D01*
X4075000Y-5200000D02*
X4150000Y-5200000D01*
X4050000Y-5175000D02*
X4075000Y-5200000D01*
X4050000Y-5125000D02*
X4050000Y-5175000D01*
X4650000Y-4125000D02*
X4725000Y-4125000D01*
X4725000Y-4125000D02*
X4800000Y-4050000D01*
X5025000Y-4050000D02*
X4800000Y-4050000D01*
X5025000Y-4050000D02*
X5075000Y-4100000D01*
X5075000Y-4100000D02*
X5150000Y-4025000D01*
X5150000Y-4025000D02*
X5222000Y-4025000D01*
X4125000Y-4725000D02*
X4225000Y-4725000D01*
X4000000Y-4750000D02*
X4100000Y-4750000D01*
X4100000Y-4750000D02*
X4125000Y-4725000D01*
D24*
X5650000Y-4500000D02*
X5750000Y-4500000D01*
X5300000Y-4725000D02*
X5425000Y-4725000D01*
X5425000Y-4725000D02*
X5525000Y-4625000D01*
X5525000Y-4625000D02*
X5525000Y-4550000D01*
X5525000Y-4550000D02*
X5575000Y-4500000D01*
X5575000Y-4500000D02*
X5650000Y-4500000D01*
X4600000Y-5500000D02*
X4600000Y-5400000D01*
X4800000Y-5375000D02*
X4750000Y-5325000D01*
X4750000Y-5325000D02*
X4675000Y-5325000D01*
X4675000Y-5325000D02*
X4600000Y-5400000D01*
X4750000Y-4325000D02*
X4850000Y-4325000D01*
X4450000Y-4750000D02*
X4525000Y-4750000D01*
X4525000Y-4750000D02*
X4650000Y-4625000D01*
X5025000Y-4725000D02*
X5000000Y-4700000D01*
X4725000Y-4700000D02*
X4650000Y-4625000D01*
X5000000Y-4700000D02*
X4725000Y-4700000D01*
D23*
X5625000Y-5175000D02*
X5575000Y-5225000D01*
X5450000Y-5300000D02*
X5425000Y-5325000D01*
X5450000Y-5275000D02*
X5450000Y-5300000D01*
X5500000Y-5225000D02*
X5450000Y-5275000D01*
X5575000Y-5225000D02*
X5500000Y-5225000D01*
X4900000Y-5525000D02*
X5075000Y-5525000D01*
X5075000Y-5525000D02*
X5125000Y-5475000D01*
X5250000Y-5325000D02*
X5425000Y-5325000D01*
X5200000Y-5375000D02*
X5250000Y-5325000D01*
X5250000Y-5475000D02*
X5125000Y-5475000D01*
X5300000Y-5525000D02*
X5250000Y-5475000D01*
X5250000Y-5425000D02*
X5200000Y-5375000D01*
X5250000Y-5475000D02*
X5250000Y-5425000D01*
X5300000Y-5075000D02*
X5300000Y-5225000D01*
X5150000Y-5425000D02*
X5125000Y-5450000D01*
X5050000Y-5450000D02*
X5025000Y-5475000D01*
X5125000Y-5450000D02*
X5050000Y-5450000D01*
D24*
X5825000Y-5475000D02*
X5725000Y-5375000D01*
X5725000Y-5375000D02*
X5400000Y-5375000D01*
D23*
X5300000Y-5075000D02*
X5350000Y-5125000D01*
X5550000Y-4900000D02*
X5650000Y-4800000D01*
X5550000Y-5000000D02*
X5550000Y-4900000D01*
X5425000Y-5125000D02*
X5550000Y-5000000D01*
X5350000Y-5125000D02*
X5425000Y-5125000D01*
D24*
X5750000Y-4800000D02*
X5650000Y-4800000D01*
D23*
X4900000Y-5625000D02*
X5075000Y-5625000D01*
X5075000Y-5625000D02*
X5125000Y-5575000D01*
X5400000Y-5525000D02*
X5575000Y-5525000D01*
X5400000Y-5525000D02*
X5350000Y-5575000D01*
X5575000Y-5525000D02*
X5625000Y-5475000D01*
X5125000Y-5575000D02*
X5350000Y-5575000D01*
X5650000Y-4900000D02*
X5650000Y-4975000D01*
X5650000Y-4975000D02*
X5475000Y-5150000D01*
X5200000Y-5275000D02*
X5325000Y-5275000D01*
X5325000Y-5275000D02*
X5375000Y-5225000D01*
X5375000Y-5225000D02*
X5425000Y-5225000D01*
X5425000Y-5225000D02*
X5475000Y-5175000D01*
X5475000Y-5175000D02*
X5475000Y-5150000D01*
D24*
X5750000Y-4900000D02*
X5650000Y-4900000D01*
D23*
X4775000Y-5225000D02*
X4750000Y-5250000D01*
X4750000Y-5250000D02*
X4625000Y-5250000D01*
X4300000Y-5475000D02*
X4450000Y-5325000D01*
X4550000Y-5325000D02*
X4625000Y-5250000D01*
X4450000Y-5325000D02*
X4550000Y-5325000D01*
X4850000Y-5225000D02*
X4900000Y-5175000D01*
X4775000Y-5225000D02*
X4850000Y-5225000D01*
X4800000Y-5725000D02*
X4800000Y-5825000D01*
X4500000Y-5825000D02*
X4725000Y-5600000D01*
X4500000Y-4375000D02*
X4450000Y-4325000D01*
X5100000Y-4375000D02*
X4500000Y-4375000D01*
X5300000Y-4575000D02*
X5100000Y-4375000D01*
X5400000Y-4975000D02*
X5350000Y-4975000D01*
X4850000Y-5775000D02*
X4900000Y-5825000D01*
X4850000Y-5350000D02*
X4850000Y-5775000D01*
X4875000Y-5325000D02*
X4850000Y-5350000D01*
X4925000Y-5325000D02*
X4875000Y-5325000D01*
X4950000Y-5300000D02*
X4925000Y-5325000D01*
X4950000Y-5225000D02*
X4950000Y-5300000D01*
X5175000Y-5000000D02*
X4950000Y-5225000D01*
X5325000Y-5000000D02*
X5175000Y-5000000D01*
X5350000Y-4975000D02*
X5325000Y-5000000D01*
X5300000Y-5375000D02*
X5300000Y-5425000D01*
X5450000Y-5450000D02*
X5475000Y-5425000D01*
X5325000Y-5450000D02*
X5450000Y-5450000D01*
X5300000Y-5425000D02*
X5325000Y-5450000D01*
X5725000Y-5475000D02*
X5675000Y-5425000D01*
X5675000Y-5425000D02*
X5475000Y-5425000D01*
D25*
G36*
X5116370Y-5447717D02*
X5113902Y-5448207D01*
X5104494Y-5454494D01*
X5062988Y-5496000D01*
X4952500Y-5496000D01*
X4952500Y-5492527D01*
X4948694Y-5483339D01*
X4941661Y-5476306D01*
X4932473Y-5472500D01*
X4922527Y-5472500D01*
X4879000Y-5472500D01*
X4879000Y-5447717D01*
X5116370Y-5447717D01*
X5116370Y-5447717D01*
G37*
X5116370Y-5447717D02*
X5113902Y-5448207D01*
X5104494Y-5454494D01*
X5062988Y-5496000D01*
X4952500Y-5496000D01*
X4952500Y-5492527D01*
X4948694Y-5483339D01*
X4941661Y-5476306D01*
X4932473Y-5472500D01*
X4922527Y-5472500D01*
X4879000Y-5472500D01*
X4879000Y-5447717D01*
X5116370Y-5447717D01*
G36*
X5151874Y-5504000D02*
X5147509Y-5514511D01*
X5147491Y-5535397D01*
X5151872Y-5546000D01*
X5125000Y-5546000D01*
X5113902Y-5548207D01*
X5104494Y-5554494D01*
X5062988Y-5596000D01*
X4944823Y-5596000D01*
X4944533Y-5595300D01*
X4929778Y-5580519D01*
X4922508Y-5577500D01*
X4932473Y-5577500D01*
X4941661Y-5573694D01*
X4948694Y-5566661D01*
X4952500Y-5557473D01*
X4952500Y-5554000D01*
X5075000Y-5554000D01*
X5086098Y-5551793D01*
X5095506Y-5545506D01*
X5137012Y-5504000D01*
X5151874Y-5504000D01*
X5151874Y-5504000D01*
G37*
X5151874Y-5504000D02*
X5147509Y-5514511D01*
X5147491Y-5535397D01*
X5151872Y-5546000D01*
X5125000Y-5546000D01*
X5113902Y-5548207D01*
X5104494Y-5554494D01*
X5062988Y-5596000D01*
X4944823Y-5596000D01*
X4944533Y-5595300D01*
X4929778Y-5580519D01*
X4922508Y-5577500D01*
X4932473Y-5577500D01*
X4941661Y-5573694D01*
X4948694Y-5566661D01*
X4952500Y-5557473D01*
X4952500Y-5554000D01*
X5075000Y-5554000D01*
X5086098Y-5551793D01*
X5095506Y-5545506D01*
X5137012Y-5504000D01*
X5151874Y-5504000D01*
G36*
X5221000Y-5446000D02*
X5125000Y-5446000D01*
X5123104Y-5446377D01*
X5123495Y-5226850D01*
X5179052Y-5226850D01*
X5170300Y-5230467D01*
X5155519Y-5245222D01*
X5147509Y-5264511D01*
X5147491Y-5285397D01*
X5155467Y-5304700D01*
X5170222Y-5319481D01*
X5183521Y-5325004D01*
X5170300Y-5330467D01*
X5155519Y-5345222D01*
X5147509Y-5364511D01*
X5147491Y-5385397D01*
X5155467Y-5404700D01*
X5170222Y-5419481D01*
X5189511Y-5427491D01*
X5210397Y-5427509D01*
X5211175Y-5427188D01*
X5221000Y-5437012D01*
X5221000Y-5446000D01*
X5221000Y-5446000D01*
G37*
X5221000Y-5446000D02*
X5125000Y-5446000D01*
X5123104Y-5446377D01*
X5123495Y-5226850D01*
X5179052Y-5226850D01*
X5170300Y-5230467D01*
X5155519Y-5245222D01*
X5147509Y-5264511D01*
X5147491Y-5285397D01*
X5155467Y-5304700D01*
X5170222Y-5319481D01*
X5183521Y-5325004D01*
X5170300Y-5330467D01*
X5155519Y-5345222D01*
X5147509Y-5364511D01*
X5147491Y-5385397D01*
X5155467Y-5404700D01*
X5170222Y-5419481D01*
X5189511Y-5427491D01*
X5210397Y-5427509D01*
X5211175Y-5427188D01*
X5221000Y-5437012D01*
X5221000Y-5446000D01*
G36*
X5366572Y-5125004D02*
X5350011Y-5141536D01*
X5341010Y-5163213D01*
X5340990Y-5186684D01*
X5349953Y-5208377D01*
X5350282Y-5208706D01*
X5312988Y-5246000D01*
X5244823Y-5246000D01*
X5244533Y-5245300D01*
X5229778Y-5230519D01*
X5220944Y-5226850D01*
X5250276Y-5226850D01*
X5250276Y-5190824D01*
X5252491Y-5185489D01*
X5252509Y-5164603D01*
X5250276Y-5159197D01*
X5250276Y-5120916D01*
X5260256Y-5131404D01*
X5284866Y-5142320D01*
X5288219Y-5142987D01*
X5299000Y-5135242D01*
X5299000Y-5076000D01*
X5298213Y-5076000D01*
X5298213Y-5074000D01*
X5299000Y-5074000D01*
X5299000Y-5073213D01*
X5301000Y-5073213D01*
X5301000Y-5074000D01*
X5301787Y-5074000D01*
X5301787Y-5076000D01*
X5301000Y-5076000D01*
X5301000Y-5135242D01*
X5311781Y-5142987D01*
X5315134Y-5142320D01*
X5339744Y-5131404D01*
X5355945Y-5114380D01*
X5366536Y-5124989D01*
X5366572Y-5125004D01*
X5366572Y-5125004D01*
G37*
X5366572Y-5125004D02*
X5350011Y-5141536D01*
X5341010Y-5163213D01*
X5340990Y-5186684D01*
X5349953Y-5208377D01*
X5350282Y-5208706D01*
X5312988Y-5246000D01*
X5244823Y-5246000D01*
X5244533Y-5245300D01*
X5229778Y-5230519D01*
X5220944Y-5226850D01*
X5250276Y-5226850D01*
X5250276Y-5190824D01*
X5252491Y-5185489D01*
X5252509Y-5164603D01*
X5250276Y-5159197D01*
X5250276Y-5120916D01*
X5260256Y-5131404D01*
X5284866Y-5142320D01*
X5288219Y-5142987D01*
X5299000Y-5135242D01*
X5299000Y-5076000D01*
X5298213Y-5076000D01*
X5298213Y-5074000D01*
X5299000Y-5074000D01*
X5299000Y-5073213D01*
X5301000Y-5073213D01*
X5301000Y-5074000D01*
X5301787Y-5074000D01*
X5301787Y-5076000D01*
X5301000Y-5076000D01*
X5301000Y-5135242D01*
X5311781Y-5142987D01*
X5315134Y-5142320D01*
X5339744Y-5131404D01*
X5355945Y-5114380D01*
X5366536Y-5124989D01*
X5366572Y-5125004D01*
G36*
X5401971Y-5375557D02*
X5400557Y-5376971D01*
X5400000Y-5376414D01*
X5399443Y-5376971D01*
X5398029Y-5375557D01*
X5398586Y-5375000D01*
X5398029Y-5374443D01*
X5399443Y-5373029D01*
X5400000Y-5373586D01*
X5400557Y-5373029D01*
X5401971Y-5374443D01*
X5401414Y-5375000D01*
X5401971Y-5375557D01*
X5401971Y-5375557D01*
G37*
X5401971Y-5375557D02*
X5400557Y-5376971D01*
X5400000Y-5376414D01*
X5399443Y-5376971D01*
X5398029Y-5375557D01*
X5398586Y-5375000D01*
X5398029Y-5374443D01*
X5399443Y-5373029D01*
X5400000Y-5373586D01*
X5400557Y-5373029D01*
X5401971Y-5374443D01*
X5401414Y-5375000D01*
X5401971Y-5375557D01*
G36*
X5878543Y-5878543D02*
X5863159Y-5878543D01*
X5863159Y-5514573D01*
X5825000Y-5476414D01*
X5786841Y-5514573D01*
X5788357Y-5527136D01*
X5811098Y-5537190D01*
X5835955Y-5537776D01*
X5859145Y-5528805D01*
X5861643Y-5527136D01*
X5863159Y-5514573D01*
X5863159Y-5878543D01*
X5851796Y-5878543D01*
X5851796Y-5680320D01*
X5830055Y-5627702D01*
X5789833Y-5587409D01*
X5737253Y-5565576D01*
X5680320Y-5565526D01*
X5627702Y-5587268D01*
X5587409Y-5627490D01*
X5565576Y-5680070D01*
X5565526Y-5737003D01*
X5587268Y-5789621D01*
X5627490Y-5829914D01*
X5680070Y-5851747D01*
X5737003Y-5851796D01*
X5789621Y-5830055D01*
X5829914Y-5789833D01*
X5851747Y-5737253D01*
X5851796Y-5680320D01*
X5851796Y-5878543D01*
X5464840Y-5878543D01*
X5464840Y-5813718D01*
X5455587Y-5789763D01*
X5453827Y-5787129D01*
X5441052Y-5785363D01*
X5401414Y-5825000D01*
X5441052Y-5864637D01*
X5453827Y-5862871D01*
X5464222Y-5839390D01*
X5464840Y-5813718D01*
X5464840Y-5878543D01*
X5437911Y-5878543D01*
X5439637Y-5866052D01*
X5400000Y-5826414D01*
X5360363Y-5866052D01*
X5362089Y-5878543D01*
X5325753Y-5878543D01*
X5341719Y-5867875D01*
X5345618Y-5862040D01*
X5346173Y-5862871D01*
X5358948Y-5864637D01*
X5398586Y-5825000D01*
X5358948Y-5785363D01*
X5346173Y-5787129D01*
X5345731Y-5788128D01*
X5341719Y-5782125D01*
X5322578Y-5769335D01*
X5300000Y-5764844D01*
X5277422Y-5769335D01*
X5258281Y-5782125D01*
X5253126Y-5789839D01*
X5252136Y-5788357D01*
X5239573Y-5786841D01*
X5201414Y-5825000D01*
X5239573Y-5863159D01*
X5252136Y-5861643D01*
X5252924Y-5859859D01*
X5258281Y-5867875D01*
X5274247Y-5878543D01*
X5234536Y-5878543D01*
X5236643Y-5877136D01*
X5238159Y-5864573D01*
X5200000Y-5826414D01*
X5198586Y-5827828D01*
X5198586Y-5825000D01*
X5160427Y-5786841D01*
X5147864Y-5788357D01*
X5137810Y-5811098D01*
X5137224Y-5835955D01*
X5146195Y-5859145D01*
X5147864Y-5861643D01*
X5160427Y-5863159D01*
X5198586Y-5825000D01*
X5198586Y-5827828D01*
X5161841Y-5864573D01*
X5163357Y-5877136D01*
X5166541Y-5878543D01*
X5123458Y-5878543D01*
X5123102Y-5670015D01*
X4929813Y-5669421D01*
X4944481Y-5654778D01*
X4944804Y-5654000D01*
X5075000Y-5654000D01*
X5086098Y-5651793D01*
X5095506Y-5645506D01*
X5137012Y-5604000D01*
X5151874Y-5604000D01*
X5147509Y-5614511D01*
X5147491Y-5635397D01*
X5155467Y-5654700D01*
X5170222Y-5669481D01*
X5183521Y-5675004D01*
X5170300Y-5680467D01*
X5155519Y-5695222D01*
X5147509Y-5714511D01*
X5147491Y-5735397D01*
X5155467Y-5754700D01*
X5170222Y-5769481D01*
X5170253Y-5769494D01*
X5165855Y-5771195D01*
X5163357Y-5772864D01*
X5161841Y-5785427D01*
X5200000Y-5823586D01*
X5238159Y-5785427D01*
X5236643Y-5772864D01*
X5229394Y-5769660D01*
X5229700Y-5769533D01*
X5244481Y-5754778D01*
X5252491Y-5735489D01*
X5252509Y-5714603D01*
X5244533Y-5695300D01*
X5229778Y-5680519D01*
X5216478Y-5674996D01*
X5229700Y-5669533D01*
X5244481Y-5654778D01*
X5252491Y-5635489D01*
X5252509Y-5614603D01*
X5248128Y-5604000D01*
X5349654Y-5604000D01*
X5345459Y-5614102D01*
X5345441Y-5635803D01*
X5353728Y-5655860D01*
X5369060Y-5671218D01*
X5378165Y-5674999D01*
X5369140Y-5678728D01*
X5353782Y-5694060D01*
X5345459Y-5714102D01*
X5345441Y-5735803D01*
X5353728Y-5755860D01*
X5366563Y-5768718D01*
X5364763Y-5769413D01*
X5362129Y-5771173D01*
X5360363Y-5783948D01*
X5400000Y-5823586D01*
X5439637Y-5783948D01*
X5437871Y-5771173D01*
X5433083Y-5769053D01*
X5446218Y-5755940D01*
X5454541Y-5735898D01*
X5454559Y-5714197D01*
X5446272Y-5694140D01*
X5430940Y-5678782D01*
X5421835Y-5675001D01*
X5430860Y-5671272D01*
X5446218Y-5655940D01*
X5454541Y-5635898D01*
X5454559Y-5614197D01*
X5446272Y-5594140D01*
X5430940Y-5578782D01*
X5421835Y-5575001D01*
X5430860Y-5571272D01*
X5446218Y-5555940D01*
X5447024Y-5554000D01*
X5575000Y-5554000D01*
X5586098Y-5551793D01*
X5595506Y-5545506D01*
X5613812Y-5527200D01*
X5614511Y-5527491D01*
X5635397Y-5527509D01*
X5654700Y-5519533D01*
X5669481Y-5504778D01*
X5675004Y-5491478D01*
X5680467Y-5504700D01*
X5695222Y-5519481D01*
X5714511Y-5527491D01*
X5735397Y-5527509D01*
X5754700Y-5519533D01*
X5769481Y-5504778D01*
X5769494Y-5504747D01*
X5771195Y-5509145D01*
X5772864Y-5511643D01*
X5785427Y-5513159D01*
X5823586Y-5475000D01*
X5785427Y-5436841D01*
X5772864Y-5438357D01*
X5769660Y-5445606D01*
X5769533Y-5445300D01*
X5754778Y-5430519D01*
X5735489Y-5422509D01*
X5714603Y-5422491D01*
X5713825Y-5422812D01*
X5695506Y-5404494D01*
X5686098Y-5398207D01*
X5675000Y-5396000D01*
X5475000Y-5396000D01*
X5465316Y-5397926D01*
X5468634Y-5390449D01*
X5469322Y-5363008D01*
X5459456Y-5337392D01*
X5457498Y-5334461D01*
X5456691Y-5334321D01*
X5470506Y-5320506D01*
X5476793Y-5311098D01*
X5476793Y-5311098D01*
X5479000Y-5300000D01*
X5479000Y-5287012D01*
X5512012Y-5254000D01*
X5575000Y-5254000D01*
X5586098Y-5251793D01*
X5595506Y-5245506D01*
X5613812Y-5227200D01*
X5614511Y-5227491D01*
X5635397Y-5227509D01*
X5654700Y-5219533D01*
X5669481Y-5204778D01*
X5675004Y-5191478D01*
X5680467Y-5204700D01*
X5695222Y-5219481D01*
X5714511Y-5227491D01*
X5735397Y-5227509D01*
X5754700Y-5219533D01*
X5769481Y-5204778D01*
X5775004Y-5191478D01*
X5780467Y-5204700D01*
X5795222Y-5219481D01*
X5814511Y-5227491D01*
X5835397Y-5227509D01*
X5854700Y-5219533D01*
X5869481Y-5204778D01*
X5877491Y-5185489D01*
X5877509Y-5164603D01*
X5869533Y-5145300D01*
X5854778Y-5130519D01*
X5835489Y-5122509D01*
X5815294Y-5122491D01*
X5815294Y-4788646D01*
X5805978Y-4764524D01*
X5804198Y-4761859D01*
X5791376Y-4760038D01*
X5751414Y-4800000D01*
X5791376Y-4839962D01*
X5804198Y-4838141D01*
X5814668Y-4814497D01*
X5815294Y-4788646D01*
X5815294Y-5122491D01*
X5814603Y-5122491D01*
X5795300Y-5130467D01*
X5780519Y-5145222D01*
X5774996Y-5158521D01*
X5769533Y-5145300D01*
X5754778Y-5130519D01*
X5735489Y-5122509D01*
X5714603Y-5122491D01*
X5695300Y-5130467D01*
X5680519Y-5145222D01*
X5674996Y-5158521D01*
X5669533Y-5145300D01*
X5654778Y-5130519D01*
X5635489Y-5122509D01*
X5614603Y-5122491D01*
X5595300Y-5130467D01*
X5580519Y-5145222D01*
X5574996Y-5158521D01*
X5569533Y-5145300D01*
X5554778Y-5130519D01*
X5541152Y-5124861D01*
X5670506Y-4995506D01*
X5676793Y-4986098D01*
X5679000Y-4975000D01*
X5679000Y-4947528D01*
X5681114Y-4946654D01*
X5682771Y-4945000D01*
X5717208Y-4945000D01*
X5718804Y-4946600D01*
X5739012Y-4954990D01*
X5760892Y-4955010D01*
X5781114Y-4946654D01*
X5796600Y-4931196D01*
X5804990Y-4910988D01*
X5805010Y-4889108D01*
X5796654Y-4868886D01*
X5784244Y-4856454D01*
X5785476Y-4855978D01*
X5788141Y-4854198D01*
X5789962Y-4841376D01*
X5750000Y-4801414D01*
X5710038Y-4841376D01*
X5711859Y-4854198D01*
X5713670Y-4855000D01*
X5686941Y-4855000D01*
X5688141Y-4854198D01*
X5689962Y-4841376D01*
X5650000Y-4801414D01*
X5610038Y-4841376D01*
X5611859Y-4854198D01*
X5616135Y-4856092D01*
X5603400Y-4868804D01*
X5595010Y-4889012D01*
X5594990Y-4910892D01*
X5603346Y-4931114D01*
X5618804Y-4946600D01*
X5621000Y-4947511D01*
X5621000Y-4962988D01*
X5454494Y-5129494D01*
X5448207Y-5138902D01*
X5448062Y-5139634D01*
X5433464Y-5125011D01*
X5433428Y-5124996D01*
X5449989Y-5108464D01*
X5458990Y-5086787D01*
X5459010Y-5063316D01*
X5454769Y-5053051D01*
X5461098Y-5051793D01*
X5470506Y-5045506D01*
X5481248Y-5034764D01*
X5512874Y-5034717D01*
X5512874Y-4779000D01*
X5588211Y-4779000D01*
X5585332Y-4785503D01*
X5584706Y-4811354D01*
X5594022Y-4835476D01*
X5595802Y-4838141D01*
X5608624Y-4839962D01*
X5648586Y-4800000D01*
X5648029Y-4799443D01*
X5649443Y-4798029D01*
X5650000Y-4798586D01*
X5650557Y-4798029D01*
X5651971Y-4799443D01*
X5651414Y-4800000D01*
X5691376Y-4839962D01*
X5700000Y-4838737D01*
X5708624Y-4839962D01*
X5748586Y-4800000D01*
X5748029Y-4799443D01*
X5749443Y-4798029D01*
X5750000Y-4798586D01*
X5789962Y-4758624D01*
X5788581Y-4748898D01*
X5878543Y-4748898D01*
X5878543Y-5440464D01*
X5877136Y-5438357D01*
X5864573Y-5436841D01*
X5863159Y-5438255D01*
X5863159Y-5435427D01*
X5861643Y-5422864D01*
X5838902Y-5412810D01*
X5814045Y-5412224D01*
X5790855Y-5421195D01*
X5788357Y-5422864D01*
X5786841Y-5435427D01*
X5825000Y-5473586D01*
X5863159Y-5435427D01*
X5863159Y-5438255D01*
X5826414Y-5475000D01*
X5864573Y-5513159D01*
X5877136Y-5511643D01*
X5878543Y-5508459D01*
X5878543Y-5878543D01*
X5878543Y-5878543D01*
G37*
X5878543Y-5878543D02*
X5863159Y-5878543D01*
X5863159Y-5514573D01*
X5825000Y-5476414D01*
X5786841Y-5514573D01*
X5788357Y-5527136D01*
X5811098Y-5537190D01*
X5835955Y-5537776D01*
X5859145Y-5528805D01*
X5861643Y-5527136D01*
X5863159Y-5514573D01*
X5863159Y-5878543D01*
X5851796Y-5878543D01*
X5851796Y-5680320D01*
X5830055Y-5627702D01*
X5789833Y-5587409D01*
X5737253Y-5565576D01*
X5680320Y-5565526D01*
X5627702Y-5587268D01*
X5587409Y-5627490D01*
X5565576Y-5680070D01*
X5565526Y-5737003D01*
X5587268Y-5789621D01*
X5627490Y-5829914D01*
X5680070Y-5851747D01*
X5737003Y-5851796D01*
X5789621Y-5830055D01*
X5829914Y-5789833D01*
X5851747Y-5737253D01*
X5851796Y-5680320D01*
X5851796Y-5878543D01*
X5464840Y-5878543D01*
X5464840Y-5813718D01*
X5455587Y-5789763D01*
X5453827Y-5787129D01*
X5441052Y-5785363D01*
X5401414Y-5825000D01*
X5441052Y-5864637D01*
X5453827Y-5862871D01*
X5464222Y-5839390D01*
X5464840Y-5813718D01*
X5464840Y-5878543D01*
X5437911Y-5878543D01*
X5439637Y-5866052D01*
X5400000Y-5826414D01*
X5360363Y-5866052D01*
X5362089Y-5878543D01*
X5325753Y-5878543D01*
X5341719Y-5867875D01*
X5345618Y-5862040D01*
X5346173Y-5862871D01*
X5358948Y-5864637D01*
X5398586Y-5825000D01*
X5358948Y-5785363D01*
X5346173Y-5787129D01*
X5345731Y-5788128D01*
X5341719Y-5782125D01*
X5322578Y-5769335D01*
X5300000Y-5764844D01*
X5277422Y-5769335D01*
X5258281Y-5782125D01*
X5253126Y-5789839D01*
X5252136Y-5788357D01*
X5239573Y-5786841D01*
X5201414Y-5825000D01*
X5239573Y-5863159D01*
X5252136Y-5861643D01*
X5252924Y-5859859D01*
X5258281Y-5867875D01*
X5274247Y-5878543D01*
X5234536Y-5878543D01*
X5236643Y-5877136D01*
X5238159Y-5864573D01*
X5200000Y-5826414D01*
X5198586Y-5827828D01*
X5198586Y-5825000D01*
X5160427Y-5786841D01*
X5147864Y-5788357D01*
X5137810Y-5811098D01*
X5137224Y-5835955D01*
X5146195Y-5859145D01*
X5147864Y-5861643D01*
X5160427Y-5863159D01*
X5198586Y-5825000D01*
X5198586Y-5827828D01*
X5161841Y-5864573D01*
X5163357Y-5877136D01*
X5166541Y-5878543D01*
X5123458Y-5878543D01*
X5123102Y-5670015D01*
X4929813Y-5669421D01*
X4944481Y-5654778D01*
X4944804Y-5654000D01*
X5075000Y-5654000D01*
X5086098Y-5651793D01*
X5095506Y-5645506D01*
X5137012Y-5604000D01*
X5151874Y-5604000D01*
X5147509Y-5614511D01*
X5147491Y-5635397D01*
X5155467Y-5654700D01*
X5170222Y-5669481D01*
X5183521Y-5675004D01*
X5170300Y-5680467D01*
X5155519Y-5695222D01*
X5147509Y-5714511D01*
X5147491Y-5735397D01*
X5155467Y-5754700D01*
X5170222Y-5769481D01*
X5170253Y-5769494D01*
X5165855Y-5771195D01*
X5163357Y-5772864D01*
X5161841Y-5785427D01*
X5200000Y-5823586D01*
X5238159Y-5785427D01*
X5236643Y-5772864D01*
X5229394Y-5769660D01*
X5229700Y-5769533D01*
X5244481Y-5754778D01*
X5252491Y-5735489D01*
X5252509Y-5714603D01*
X5244533Y-5695300D01*
X5229778Y-5680519D01*
X5216478Y-5674996D01*
X5229700Y-5669533D01*
X5244481Y-5654778D01*
X5252491Y-5635489D01*
X5252509Y-5614603D01*
X5248128Y-5604000D01*
X5349654Y-5604000D01*
X5345459Y-5614102D01*
X5345441Y-5635803D01*
X5353728Y-5655860D01*
X5369060Y-5671218D01*
X5378165Y-5674999D01*
X5369140Y-5678728D01*
X5353782Y-5694060D01*
X5345459Y-5714102D01*
X5345441Y-5735803D01*
X5353728Y-5755860D01*
X5366563Y-5768718D01*
X5364763Y-5769413D01*
X5362129Y-5771173D01*
X5360363Y-5783948D01*
X5400000Y-5823586D01*
X5439637Y-5783948D01*
X5437871Y-5771173D01*
X5433083Y-5769053D01*
X5446218Y-5755940D01*
X5454541Y-5735898D01*
X5454559Y-5714197D01*
X5446272Y-5694140D01*
X5430940Y-5678782D01*
X5421835Y-5675001D01*
X5430860Y-5671272D01*
X5446218Y-5655940D01*
X5454541Y-5635898D01*
X5454559Y-5614197D01*
X5446272Y-5594140D01*
X5430940Y-5578782D01*
X5421835Y-5575001D01*
X5430860Y-5571272D01*
X5446218Y-5555940D01*
X5447024Y-5554000D01*
X5575000Y-5554000D01*
X5586098Y-5551793D01*
X5595506Y-5545506D01*
X5613812Y-5527200D01*
X5614511Y-5527491D01*
X5635397Y-5527509D01*
X5654700Y-5519533D01*
X5669481Y-5504778D01*
X5675004Y-5491478D01*
X5680467Y-5504700D01*
X5695222Y-5519481D01*
X5714511Y-5527491D01*
X5735397Y-5527509D01*
X5754700Y-5519533D01*
X5769481Y-5504778D01*
X5769494Y-5504747D01*
X5771195Y-5509145D01*
X5772864Y-5511643D01*
X5785427Y-5513159D01*
X5823586Y-5475000D01*
X5785427Y-5436841D01*
X5772864Y-5438357D01*
X5769660Y-5445606D01*
X5769533Y-5445300D01*
X5754778Y-5430519D01*
X5735489Y-5422509D01*
X5714603Y-5422491D01*
X5713825Y-5422812D01*
X5695506Y-5404494D01*
X5686098Y-5398207D01*
X5675000Y-5396000D01*
X5475000Y-5396000D01*
X5465316Y-5397926D01*
X5468634Y-5390449D01*
X5469322Y-5363008D01*
X5459456Y-5337392D01*
X5457498Y-5334461D01*
X5456691Y-5334321D01*
X5470506Y-5320506D01*
X5476793Y-5311098D01*
X5476793Y-5311098D01*
X5479000Y-5300000D01*
X5479000Y-5287012D01*
X5512012Y-5254000D01*
X5575000Y-5254000D01*
X5586098Y-5251793D01*
X5595506Y-5245506D01*
X5613812Y-5227200D01*
X5614511Y-5227491D01*
X5635397Y-5227509D01*
X5654700Y-5219533D01*
X5669481Y-5204778D01*
X5675004Y-5191478D01*
X5680467Y-5204700D01*
X5695222Y-5219481D01*
X5714511Y-5227491D01*
X5735397Y-5227509D01*
X5754700Y-5219533D01*
X5769481Y-5204778D01*
X5775004Y-5191478D01*
X5780467Y-5204700D01*
X5795222Y-5219481D01*
X5814511Y-5227491D01*
X5835397Y-5227509D01*
X5854700Y-5219533D01*
X5869481Y-5204778D01*
X5877491Y-5185489D01*
X5877509Y-5164603D01*
X5869533Y-5145300D01*
X5854778Y-5130519D01*
X5835489Y-5122509D01*
X5815294Y-5122491D01*
X5815294Y-4788646D01*
X5805978Y-4764524D01*
X5804198Y-4761859D01*
X5791376Y-4760038D01*
X5751414Y-4800000D01*
X5791376Y-4839962D01*
X5804198Y-4838141D01*
X5814668Y-4814497D01*
X5815294Y-4788646D01*
X5815294Y-5122491D01*
X5814603Y-5122491D01*
X5795300Y-5130467D01*
X5780519Y-5145222D01*
X5774996Y-5158521D01*
X5769533Y-5145300D01*
X5754778Y-5130519D01*
X5735489Y-5122509D01*
X5714603Y-5122491D01*
X5695300Y-5130467D01*
X5680519Y-5145222D01*
X5674996Y-5158521D01*
X5669533Y-5145300D01*
X5654778Y-5130519D01*
X5635489Y-5122509D01*
X5614603Y-5122491D01*
X5595300Y-5130467D01*
X5580519Y-5145222D01*
X5574996Y-5158521D01*
X5569533Y-5145300D01*
X5554778Y-5130519D01*
X5541152Y-5124861D01*
X5670506Y-4995506D01*
X5676793Y-4986098D01*
X5679000Y-4975000D01*
X5679000Y-4947528D01*
X5681114Y-4946654D01*
X5682771Y-4945000D01*
X5717208Y-4945000D01*
X5718804Y-4946600D01*
X5739012Y-4954990D01*
X5760892Y-4955010D01*
X5781114Y-4946654D01*
X5796600Y-4931196D01*
X5804990Y-4910988D01*
X5805010Y-4889108D01*
X5796654Y-4868886D01*
X5784244Y-4856454D01*
X5785476Y-4855978D01*
X5788141Y-4854198D01*
X5789962Y-4841376D01*
X5750000Y-4801414D01*
X5710038Y-4841376D01*
X5711859Y-4854198D01*
X5713670Y-4855000D01*
X5686941Y-4855000D01*
X5688141Y-4854198D01*
X5689962Y-4841376D01*
X5650000Y-4801414D01*
X5610038Y-4841376D01*
X5611859Y-4854198D01*
X5616135Y-4856092D01*
X5603400Y-4868804D01*
X5595010Y-4889012D01*
X5594990Y-4910892D01*
X5603346Y-4931114D01*
X5618804Y-4946600D01*
X5621000Y-4947511D01*
X5621000Y-4962988D01*
X5454494Y-5129494D01*
X5448207Y-5138902D01*
X5448062Y-5139634D01*
X5433464Y-5125011D01*
X5433428Y-5124996D01*
X5449989Y-5108464D01*
X5458990Y-5086787D01*
X5459010Y-5063316D01*
X5454769Y-5053051D01*
X5461098Y-5051793D01*
X5470506Y-5045506D01*
X5481248Y-5034764D01*
X5512874Y-5034717D01*
X5512874Y-4779000D01*
X5588211Y-4779000D01*
X5585332Y-4785503D01*
X5584706Y-4811354D01*
X5594022Y-4835476D01*
X5595802Y-4838141D01*
X5608624Y-4839962D01*
X5648586Y-4800000D01*
X5648029Y-4799443D01*
X5649443Y-4798029D01*
X5650000Y-4798586D01*
X5650557Y-4798029D01*
X5651971Y-4799443D01*
X5651414Y-4800000D01*
X5691376Y-4839962D01*
X5700000Y-4838737D01*
X5708624Y-4839962D01*
X5748586Y-4800000D01*
X5748029Y-4799443D01*
X5749443Y-4798029D01*
X5750000Y-4798586D01*
X5789962Y-4758624D01*
X5788581Y-4748898D01*
X5878543Y-4748898D01*
X5878543Y-5440464D01*
X5877136Y-5438357D01*
X5864573Y-5436841D01*
X5863159Y-5438255D01*
X5863159Y-5435427D01*
X5861643Y-5422864D01*
X5838902Y-5412810D01*
X5814045Y-5412224D01*
X5790855Y-5421195D01*
X5788357Y-5422864D01*
X5786841Y-5435427D01*
X5825000Y-5473586D01*
X5863159Y-5435427D01*
X5863159Y-5438255D01*
X5826414Y-5475000D01*
X5864573Y-5513159D01*
X5877136Y-5511643D01*
X5878543Y-5508459D01*
X5878543Y-5878543D01*
G36*
X4264891Y-4769097D02*
X4059000Y-4974988D01*
X4059010Y-4963316D01*
X4050047Y-4941623D01*
X4033464Y-4925011D01*
X4011787Y-4916010D01*
X3988316Y-4915990D01*
X3966623Y-4924953D01*
X3963976Y-4927595D01*
X3963976Y-4891126D01*
X3969060Y-4896218D01*
X3989102Y-4904541D01*
X4010803Y-4904559D01*
X4030860Y-4896272D01*
X4046218Y-4880940D01*
X4054541Y-4860898D01*
X4054559Y-4839197D01*
X4046272Y-4819140D01*
X4030940Y-4803782D01*
X4021835Y-4800001D01*
X4030860Y-4796272D01*
X4046218Y-4780940D01*
X4047024Y-4779000D01*
X4087980Y-4779000D01*
X4088501Y-4779521D01*
X4112144Y-4789339D01*
X4137744Y-4789361D01*
X4161404Y-4779585D01*
X4179221Y-4761799D01*
X4183281Y-4767875D01*
X4202422Y-4780665D01*
X4225000Y-4785156D01*
X4247578Y-4780665D01*
X4264891Y-4769097D01*
X4264891Y-4769097D01*
G37*
X4264891Y-4769097D02*
X4059000Y-4974988D01*
X4059010Y-4963316D01*
X4050047Y-4941623D01*
X4033464Y-4925011D01*
X4011787Y-4916010D01*
X3988316Y-4915990D01*
X3966623Y-4924953D01*
X3963976Y-4927595D01*
X3963976Y-4891126D01*
X3969060Y-4896218D01*
X3989102Y-4904541D01*
X4010803Y-4904559D01*
X4030860Y-4896272D01*
X4046218Y-4880940D01*
X4054541Y-4860898D01*
X4054559Y-4839197D01*
X4046272Y-4819140D01*
X4030940Y-4803782D01*
X4021835Y-4800001D01*
X4030860Y-4796272D01*
X4046218Y-4780940D01*
X4047024Y-4779000D01*
X4087980Y-4779000D01*
X4088501Y-4779521D01*
X4112144Y-4789339D01*
X4137744Y-4789361D01*
X4161404Y-4779585D01*
X4179221Y-4761799D01*
X4183281Y-4767875D01*
X4202422Y-4780665D01*
X4225000Y-4785156D01*
X4247578Y-4780665D01*
X4264891Y-4769097D01*
G36*
X4483848Y-5425139D02*
X4455042Y-5453946D01*
X4454509Y-5451266D01*
X4441719Y-5432125D01*
X4422578Y-5419335D01*
X4400974Y-5415038D01*
X4447506Y-5368507D01*
X4447491Y-5385397D01*
X4455467Y-5404700D01*
X4470222Y-5419481D01*
X4483848Y-5425139D01*
X4483848Y-5425139D01*
G37*
X4483848Y-5425139D02*
X4455042Y-5453946D01*
X4454509Y-5451266D01*
X4441719Y-5432125D01*
X4422578Y-5419335D01*
X4400974Y-5415038D01*
X4447506Y-5368507D01*
X4447491Y-5385397D01*
X4455467Y-5404700D01*
X4470222Y-5419481D01*
X4483848Y-5425139D01*
G36*
X4501971Y-5175557D02*
X4500557Y-5176971D01*
X4500000Y-5176414D01*
X4461841Y-5214573D01*
X4463357Y-5227136D01*
X4470606Y-5230340D01*
X4470300Y-5230467D01*
X4455519Y-5245222D01*
X4447509Y-5264511D01*
X4447491Y-5285397D01*
X4451872Y-5296000D01*
X4450000Y-5296000D01*
X4438902Y-5298207D01*
X4429494Y-5304494D01*
X4315968Y-5418020D01*
X4300000Y-5414844D01*
X4299000Y-5415043D01*
X4299000Y-5235242D01*
X4299000Y-5176000D01*
X4239757Y-5176000D01*
X4232013Y-5186781D01*
X4241696Y-5211901D01*
X4260256Y-5231404D01*
X4284866Y-5242320D01*
X4288219Y-5242987D01*
X4299000Y-5235242D01*
X4299000Y-5415043D01*
X4277422Y-5419335D01*
X4258281Y-5432125D01*
X4245491Y-5451266D01*
X4241000Y-5473844D01*
X4241000Y-5476156D01*
X4245491Y-5498734D01*
X4258281Y-5517875D01*
X4277422Y-5530665D01*
X4300000Y-5535156D01*
X4300820Y-5534993D01*
X4298207Y-5538902D01*
X4296000Y-5550000D01*
X4296000Y-5675000D01*
X4298207Y-5686098D01*
X4304494Y-5695506D01*
X4317826Y-5708839D01*
X4316010Y-5713213D01*
X4315990Y-5736684D01*
X4324953Y-5758377D01*
X4341536Y-5774989D01*
X4341572Y-5775004D01*
X4325011Y-5791536D01*
X4316010Y-5813213D01*
X4315990Y-5836684D01*
X4324953Y-5858377D01*
X4341536Y-5874989D01*
X4350096Y-5878543D01*
X4276993Y-5878543D01*
X4276993Y-5680320D01*
X4255252Y-5627702D01*
X4215030Y-5587409D01*
X4162450Y-5565576D01*
X4105517Y-5565526D01*
X4069000Y-5580615D01*
X4069000Y-5515962D01*
X4069000Y-5484750D01*
X4060250Y-5476000D01*
X4001000Y-5476000D01*
X4001000Y-5535250D01*
X4009750Y-5544000D01*
X4027038Y-5544000D01*
X4040962Y-5544000D01*
X4053826Y-5538672D01*
X4063672Y-5528826D01*
X4069000Y-5515962D01*
X4069000Y-5580615D01*
X4052899Y-5587268D01*
X4012606Y-5627490D01*
X3990773Y-5680070D01*
X3990723Y-5737003D01*
X4012465Y-5789621D01*
X4052687Y-5829914D01*
X4105267Y-5851747D01*
X4162200Y-5851796D01*
X4214818Y-5830055D01*
X4255110Y-5789833D01*
X4276944Y-5737253D01*
X4276993Y-5680320D01*
X4276993Y-5878543D01*
X3963976Y-5878543D01*
X3963976Y-5544000D01*
X3972962Y-5544000D01*
X3990250Y-5544000D01*
X3999000Y-5535250D01*
X3999000Y-5476000D01*
X3998213Y-5476000D01*
X3998213Y-5474000D01*
X3999000Y-5474000D01*
X3999000Y-5473213D01*
X4001000Y-5473213D01*
X4001000Y-5474000D01*
X4060250Y-5474000D01*
X4069000Y-5465250D01*
X4069000Y-5434038D01*
X4063672Y-5421174D01*
X4053826Y-5411328D01*
X4049086Y-5409365D01*
X4049989Y-5408464D01*
X4058990Y-5386787D01*
X4059010Y-5363316D01*
X4050047Y-5341623D01*
X4033464Y-5325011D01*
X4033428Y-5324996D01*
X4049989Y-5308464D01*
X4058990Y-5286787D01*
X4059010Y-5263316D01*
X4050047Y-5241623D01*
X4033464Y-5225011D01*
X4033428Y-5224996D01*
X4046217Y-5212229D01*
X4054494Y-5220506D01*
X4063902Y-5226793D01*
X4063902Y-5226793D01*
X4075000Y-5229000D01*
X4150000Y-5229000D01*
X4161098Y-5226793D01*
X4170506Y-5220506D01*
X4234660Y-5156352D01*
X4232013Y-5163219D01*
X4239757Y-5174000D01*
X4299000Y-5174000D01*
X4299000Y-5114758D01*
X4288219Y-5107013D01*
X4284866Y-5107680D01*
X4282109Y-5108903D01*
X4287012Y-5104000D01*
X4430233Y-5104000D01*
X4429494Y-5104494D01*
X4415968Y-5118020D01*
X4400000Y-5114844D01*
X4377422Y-5119335D01*
X4358281Y-5132125D01*
X4355945Y-5135620D01*
X4339744Y-5118596D01*
X4315134Y-5107680D01*
X4311781Y-5107013D01*
X4301000Y-5114758D01*
X4301000Y-5174000D01*
X4301787Y-5174000D01*
X4301787Y-5176000D01*
X4301000Y-5176000D01*
X4301000Y-5235242D01*
X4311781Y-5242987D01*
X4315134Y-5242320D01*
X4339744Y-5231404D01*
X4355945Y-5214380D01*
X4358281Y-5217875D01*
X4377422Y-5230665D01*
X4400000Y-5235156D01*
X4422578Y-5230665D01*
X4441719Y-5217875D01*
X4446874Y-5210161D01*
X4447864Y-5211643D01*
X4460427Y-5213159D01*
X4498586Y-5175000D01*
X4498029Y-5174443D01*
X4499443Y-5173029D01*
X4500000Y-5173586D01*
X4500557Y-5173029D01*
X4501971Y-5174443D01*
X4501414Y-5175000D01*
X4501971Y-5175557D01*
X4501971Y-5175557D01*
G37*
X4501971Y-5175557D02*
X4500557Y-5176971D01*
X4500000Y-5176414D01*
X4461841Y-5214573D01*
X4463357Y-5227136D01*
X4470606Y-5230340D01*
X4470300Y-5230467D01*
X4455519Y-5245222D01*
X4447509Y-5264511D01*
X4447491Y-5285397D01*
X4451872Y-5296000D01*
X4450000Y-5296000D01*
X4438902Y-5298207D01*
X4429494Y-5304494D01*
X4315968Y-5418020D01*
X4300000Y-5414844D01*
X4299000Y-5415043D01*
X4299000Y-5235242D01*
X4299000Y-5176000D01*
X4239757Y-5176000D01*
X4232013Y-5186781D01*
X4241696Y-5211901D01*
X4260256Y-5231404D01*
X4284866Y-5242320D01*
X4288219Y-5242987D01*
X4299000Y-5235242D01*
X4299000Y-5415043D01*
X4277422Y-5419335D01*
X4258281Y-5432125D01*
X4245491Y-5451266D01*
X4241000Y-5473844D01*
X4241000Y-5476156D01*
X4245491Y-5498734D01*
X4258281Y-5517875D01*
X4277422Y-5530665D01*
X4300000Y-5535156D01*
X4300820Y-5534993D01*
X4298207Y-5538902D01*
X4296000Y-5550000D01*
X4296000Y-5675000D01*
X4298207Y-5686098D01*
X4304494Y-5695506D01*
X4317826Y-5708839D01*
X4316010Y-5713213D01*
X4315990Y-5736684D01*
X4324953Y-5758377D01*
X4341536Y-5774989D01*
X4341572Y-5775004D01*
X4325011Y-5791536D01*
X4316010Y-5813213D01*
X4315990Y-5836684D01*
X4324953Y-5858377D01*
X4341536Y-5874989D01*
X4350096Y-5878543D01*
X4276993Y-5878543D01*
X4276993Y-5680320D01*
X4255252Y-5627702D01*
X4215030Y-5587409D01*
X4162450Y-5565576D01*
X4105517Y-5565526D01*
X4069000Y-5580615D01*
X4069000Y-5515962D01*
X4069000Y-5484750D01*
X4060250Y-5476000D01*
X4001000Y-5476000D01*
X4001000Y-5535250D01*
X4009750Y-5544000D01*
X4027038Y-5544000D01*
X4040962Y-5544000D01*
X4053826Y-5538672D01*
X4063672Y-5528826D01*
X4069000Y-5515962D01*
X4069000Y-5580615D01*
X4052899Y-5587268D01*
X4012606Y-5627490D01*
X3990773Y-5680070D01*
X3990723Y-5737003D01*
X4012465Y-5789621D01*
X4052687Y-5829914D01*
X4105267Y-5851747D01*
X4162200Y-5851796D01*
X4214818Y-5830055D01*
X4255110Y-5789833D01*
X4276944Y-5737253D01*
X4276993Y-5680320D01*
X4276993Y-5878543D01*
X3963976Y-5878543D01*
X3963976Y-5544000D01*
X3972962Y-5544000D01*
X3990250Y-5544000D01*
X3999000Y-5535250D01*
X3999000Y-5476000D01*
X3998213Y-5476000D01*
X3998213Y-5474000D01*
X3999000Y-5474000D01*
X3999000Y-5473213D01*
X4001000Y-5473213D01*
X4001000Y-5474000D01*
X4060250Y-5474000D01*
X4069000Y-5465250D01*
X4069000Y-5434038D01*
X4063672Y-5421174D01*
X4053826Y-5411328D01*
X4049086Y-5409365D01*
X4049989Y-5408464D01*
X4058990Y-5386787D01*
X4059010Y-5363316D01*
X4050047Y-5341623D01*
X4033464Y-5325011D01*
X4033428Y-5324996D01*
X4049989Y-5308464D01*
X4058990Y-5286787D01*
X4059010Y-5263316D01*
X4050047Y-5241623D01*
X4033464Y-5225011D01*
X4033428Y-5224996D01*
X4046217Y-5212229D01*
X4054494Y-5220506D01*
X4063902Y-5226793D01*
X4063902Y-5226793D01*
X4075000Y-5229000D01*
X4150000Y-5229000D01*
X4161098Y-5226793D01*
X4170506Y-5220506D01*
X4234660Y-5156352D01*
X4232013Y-5163219D01*
X4239757Y-5174000D01*
X4299000Y-5174000D01*
X4299000Y-5114758D01*
X4288219Y-5107013D01*
X4284866Y-5107680D01*
X4282109Y-5108903D01*
X4287012Y-5104000D01*
X4430233Y-5104000D01*
X4429494Y-5104494D01*
X4415968Y-5118020D01*
X4400000Y-5114844D01*
X4377422Y-5119335D01*
X4358281Y-5132125D01*
X4355945Y-5135620D01*
X4339744Y-5118596D01*
X4315134Y-5107680D01*
X4311781Y-5107013D01*
X4301000Y-5114758D01*
X4301000Y-5174000D01*
X4301787Y-5174000D01*
X4301787Y-5176000D01*
X4301000Y-5176000D01*
X4301000Y-5235242D01*
X4311781Y-5242987D01*
X4315134Y-5242320D01*
X4339744Y-5231404D01*
X4355945Y-5214380D01*
X4358281Y-5217875D01*
X4377422Y-5230665D01*
X4400000Y-5235156D01*
X4422578Y-5230665D01*
X4441719Y-5217875D01*
X4446874Y-5210161D01*
X4447864Y-5211643D01*
X4460427Y-5213159D01*
X4498586Y-5175000D01*
X4498029Y-5174443D01*
X4499443Y-5173029D01*
X4500000Y-5173586D01*
X4500557Y-5173029D01*
X4501971Y-5174443D01*
X4501414Y-5175000D01*
X4501971Y-5175557D01*
G36*
X4535525Y-4675836D02*
X4506360Y-4705000D01*
X4482157Y-4705000D01*
X4480940Y-4703782D01*
X4460898Y-4695459D01*
X4439197Y-4695441D01*
X4419140Y-4703728D01*
X4404000Y-4718842D01*
X4404000Y-4700000D01*
X4401793Y-4688902D01*
X4401793Y-4688902D01*
X4395506Y-4679494D01*
X4382625Y-4666613D01*
X4394481Y-4654778D01*
X4400004Y-4641478D01*
X4405467Y-4654700D01*
X4420222Y-4669481D01*
X4439511Y-4677491D01*
X4460397Y-4677509D01*
X4479700Y-4669533D01*
X4494481Y-4654778D01*
X4500004Y-4641478D01*
X4505467Y-4654700D01*
X4520222Y-4669481D01*
X4535525Y-4675836D01*
X4535525Y-4675836D01*
G37*
X4535525Y-4675836D02*
X4506360Y-4705000D01*
X4482157Y-4705000D01*
X4480940Y-4703782D01*
X4460898Y-4695459D01*
X4439197Y-4695441D01*
X4419140Y-4703728D01*
X4404000Y-4718842D01*
X4404000Y-4700000D01*
X4401793Y-4688902D01*
X4401793Y-4688902D01*
X4395506Y-4679494D01*
X4382625Y-4666613D01*
X4394481Y-4654778D01*
X4400004Y-4641478D01*
X4405467Y-4654700D01*
X4420222Y-4669481D01*
X4439511Y-4677491D01*
X4460397Y-4677509D01*
X4479700Y-4669533D01*
X4494481Y-4654778D01*
X4500004Y-4641478D01*
X4505467Y-4654700D01*
X4520222Y-4669481D01*
X4535525Y-4675836D01*
G36*
X4774821Y-5878543D02*
X4525179Y-5878543D01*
X4542875Y-5866719D01*
X4555665Y-5847578D01*
X4560156Y-5825000D01*
X4556980Y-5809032D01*
X4723513Y-5642499D01*
X4733417Y-5642507D01*
X4742574Y-5638724D01*
X4744335Y-5647578D01*
X4757125Y-5666719D01*
X4769518Y-5675000D01*
X4757125Y-5683281D01*
X4744335Y-5702422D01*
X4739844Y-5725000D01*
X4744335Y-5747578D01*
X4757125Y-5766719D01*
X4769518Y-5775000D01*
X4757125Y-5783281D01*
X4744335Y-5802422D01*
X4739844Y-5825000D01*
X4744335Y-5847578D01*
X4757125Y-5866719D01*
X4774821Y-5878543D01*
X4774821Y-5878543D01*
G37*
X4774821Y-5878543D02*
X4525179Y-5878543D01*
X4542875Y-5866719D01*
X4555665Y-5847578D01*
X4560156Y-5825000D01*
X4556980Y-5809032D01*
X4723513Y-5642499D01*
X4733417Y-5642507D01*
X4742574Y-5638724D01*
X4744335Y-5647578D01*
X4757125Y-5666719D01*
X4769518Y-5675000D01*
X4757125Y-5683281D01*
X4744335Y-5702422D01*
X4739844Y-5725000D01*
X4744335Y-5747578D01*
X4757125Y-5766719D01*
X4769518Y-5775000D01*
X4757125Y-5783281D01*
X4744335Y-5802422D01*
X4739844Y-5825000D01*
X4744335Y-5847578D01*
X4757125Y-5866719D01*
X4774821Y-5878543D01*
G36*
X4801971Y-5075557D02*
X4800557Y-5076971D01*
X4800000Y-5076414D01*
X4761841Y-5114573D01*
X4763357Y-5127136D01*
X4770606Y-5130340D01*
X4770300Y-5130467D01*
X4755519Y-5145222D01*
X4747509Y-5164511D01*
X4747491Y-5185397D01*
X4755189Y-5204029D01*
X4754494Y-5204494D01*
X4737988Y-5221000D01*
X4667640Y-5221000D01*
X4696820Y-5191820D01*
X4706575Y-5177221D01*
X4710000Y-5160000D01*
X4710000Y-5118640D01*
X4738747Y-5089892D01*
X4746195Y-5109145D01*
X4747864Y-5111643D01*
X4760427Y-5113159D01*
X4798586Y-5075000D01*
X4798029Y-5074443D01*
X4799443Y-5073029D01*
X4800000Y-5073586D01*
X4800557Y-5073029D01*
X4801971Y-5074443D01*
X4801414Y-5075000D01*
X4801971Y-5075557D01*
X4801971Y-5075557D01*
G37*
X4801971Y-5075557D02*
X4800557Y-5076971D01*
X4800000Y-5076414D01*
X4761841Y-5114573D01*
X4763357Y-5127136D01*
X4770606Y-5130340D01*
X4770300Y-5130467D01*
X4755519Y-5145222D01*
X4747509Y-5164511D01*
X4747491Y-5185397D01*
X4755189Y-5204029D01*
X4754494Y-5204494D01*
X4737988Y-5221000D01*
X4667640Y-5221000D01*
X4696820Y-5191820D01*
X4706575Y-5177221D01*
X4710000Y-5160000D01*
X4710000Y-5118640D01*
X4738747Y-5089892D01*
X4746195Y-5109145D01*
X4747864Y-5111643D01*
X4760427Y-5113159D01*
X4798586Y-5075000D01*
X4798029Y-5074443D01*
X4799443Y-5073029D01*
X4800000Y-5073586D01*
X4800557Y-5073029D01*
X4801971Y-5074443D01*
X4801414Y-5075000D01*
X4801971Y-5075557D01*
G36*
X4821000Y-5569947D02*
X4801156Y-5566000D01*
X4798844Y-5566000D01*
X4776266Y-5570491D01*
X4764840Y-5578125D01*
X4764840Y-5488718D01*
X4755587Y-5464763D01*
X4753827Y-5462129D01*
X4741052Y-5460363D01*
X4739637Y-5461777D01*
X4739637Y-5458948D01*
X4737871Y-5446173D01*
X4714390Y-5435778D01*
X4688718Y-5435160D01*
X4664763Y-5444413D01*
X4662129Y-5446173D01*
X4660363Y-5458948D01*
X4700000Y-5498586D01*
X4739637Y-5458948D01*
X4739637Y-5461777D01*
X4701414Y-5500000D01*
X4741052Y-5539637D01*
X4753827Y-5537871D01*
X4764222Y-5514390D01*
X4764840Y-5488718D01*
X4764840Y-5578125D01*
X4762573Y-5579641D01*
X4761051Y-5575957D01*
X4749106Y-5563991D01*
X4733491Y-5557507D01*
X4730273Y-5557505D01*
X4735237Y-5555587D01*
X4737871Y-5553827D01*
X4739637Y-5541052D01*
X4700000Y-5501414D01*
X4660363Y-5541052D01*
X4662129Y-5553827D01*
X4685610Y-5564222D01*
X4700329Y-5564577D01*
X4688991Y-5575894D01*
X4682507Y-5591509D01*
X4682499Y-5601489D01*
X4560890Y-5723098D01*
X4567987Y-5713219D01*
X4567320Y-5709866D01*
X4556404Y-5685256D01*
X4545627Y-5675000D01*
X4556404Y-5664744D01*
X4567320Y-5640134D01*
X4567987Y-5636781D01*
X4567987Y-5613219D01*
X4567320Y-5609866D01*
X4556404Y-5585256D01*
X4536901Y-5566696D01*
X4511781Y-5557013D01*
X4501000Y-5564757D01*
X4501000Y-5624000D01*
X4560242Y-5624000D01*
X4567987Y-5613219D01*
X4567987Y-5636781D01*
X4560242Y-5626000D01*
X4501000Y-5626000D01*
X4501000Y-5664757D01*
X4501000Y-5685243D01*
X4501000Y-5724000D01*
X4501787Y-5724000D01*
X4501787Y-5726000D01*
X4501000Y-5726000D01*
X4501000Y-5726787D01*
X4499000Y-5726787D01*
X4499000Y-5726000D01*
X4498213Y-5726000D01*
X4498213Y-5724000D01*
X4499000Y-5724000D01*
X4499000Y-5685243D01*
X4499000Y-5664757D01*
X4499000Y-5626000D01*
X4498213Y-5626000D01*
X4498213Y-5624000D01*
X4499000Y-5624000D01*
X4499000Y-5564757D01*
X4488219Y-5557013D01*
X4463099Y-5566696D01*
X4443596Y-5585256D01*
X4434000Y-5606890D01*
X4434000Y-5586027D01*
X4430194Y-5576839D01*
X4423161Y-5569806D01*
X4421779Y-5569233D01*
X4555000Y-5436012D01*
X4555000Y-5467843D01*
X4553782Y-5469060D01*
X4545459Y-5489102D01*
X4545441Y-5510803D01*
X4553728Y-5530860D01*
X4569060Y-5546218D01*
X4589102Y-5554541D01*
X4610803Y-5554559D01*
X4630860Y-5546272D01*
X4643718Y-5533437D01*
X4644413Y-5535237D01*
X4646173Y-5537871D01*
X4658948Y-5539637D01*
X4698586Y-5500000D01*
X4658948Y-5460363D01*
X4646173Y-5462129D01*
X4645000Y-5464779D01*
X4645000Y-5418640D01*
X4693640Y-5370000D01*
X4731360Y-5370000D01*
X4748007Y-5386647D01*
X4755467Y-5404700D01*
X4770222Y-5419481D01*
X4789511Y-5427491D01*
X4810397Y-5427509D01*
X4821000Y-5423128D01*
X4821000Y-5569947D01*
X4821000Y-5569947D01*
G37*
X4821000Y-5569947D02*
X4801156Y-5566000D01*
X4798844Y-5566000D01*
X4776266Y-5570491D01*
X4764840Y-5578125D01*
X4764840Y-5488718D01*
X4755587Y-5464763D01*
X4753827Y-5462129D01*
X4741052Y-5460363D01*
X4739637Y-5461777D01*
X4739637Y-5458948D01*
X4737871Y-5446173D01*
X4714390Y-5435778D01*
X4688718Y-5435160D01*
X4664763Y-5444413D01*
X4662129Y-5446173D01*
X4660363Y-5458948D01*
X4700000Y-5498586D01*
X4739637Y-5458948D01*
X4739637Y-5461777D01*
X4701414Y-5500000D01*
X4741052Y-5539637D01*
X4753827Y-5537871D01*
X4764222Y-5514390D01*
X4764840Y-5488718D01*
X4764840Y-5578125D01*
X4762573Y-5579641D01*
X4761051Y-5575957D01*
X4749106Y-5563991D01*
X4733491Y-5557507D01*
X4730273Y-5557505D01*
X4735237Y-5555587D01*
X4737871Y-5553827D01*
X4739637Y-5541052D01*
X4700000Y-5501414D01*
X4660363Y-5541052D01*
X4662129Y-5553827D01*
X4685610Y-5564222D01*
X4700329Y-5564577D01*
X4688991Y-5575894D01*
X4682507Y-5591509D01*
X4682499Y-5601489D01*
X4560890Y-5723098D01*
X4567987Y-5713219D01*
X4567320Y-5709866D01*
X4556404Y-5685256D01*
X4545627Y-5675000D01*
X4556404Y-5664744D01*
X4567320Y-5640134D01*
X4567987Y-5636781D01*
X4567987Y-5613219D01*
X4567320Y-5609866D01*
X4556404Y-5585256D01*
X4536901Y-5566696D01*
X4511781Y-5557013D01*
X4501000Y-5564757D01*
X4501000Y-5624000D01*
X4560242Y-5624000D01*
X4567987Y-5613219D01*
X4567987Y-5636781D01*
X4560242Y-5626000D01*
X4501000Y-5626000D01*
X4501000Y-5664757D01*
X4501000Y-5685243D01*
X4501000Y-5724000D01*
X4501787Y-5724000D01*
X4501787Y-5726000D01*
X4501000Y-5726000D01*
X4501000Y-5726787D01*
X4499000Y-5726787D01*
X4499000Y-5726000D01*
X4498213Y-5726000D01*
X4498213Y-5724000D01*
X4499000Y-5724000D01*
X4499000Y-5685243D01*
X4499000Y-5664757D01*
X4499000Y-5626000D01*
X4498213Y-5626000D01*
X4498213Y-5624000D01*
X4499000Y-5624000D01*
X4499000Y-5564757D01*
X4488219Y-5557013D01*
X4463099Y-5566696D01*
X4443596Y-5585256D01*
X4434000Y-5606890D01*
X4434000Y-5586027D01*
X4430194Y-5576839D01*
X4423161Y-5569806D01*
X4421779Y-5569233D01*
X4555000Y-5436012D01*
X4555000Y-5467843D01*
X4553782Y-5469060D01*
X4545459Y-5489102D01*
X4545441Y-5510803D01*
X4553728Y-5530860D01*
X4569060Y-5546218D01*
X4589102Y-5554541D01*
X4610803Y-5554559D01*
X4630860Y-5546272D01*
X4643718Y-5533437D01*
X4644413Y-5535237D01*
X4646173Y-5537871D01*
X4658948Y-5539637D01*
X4698586Y-5500000D01*
X4658948Y-5460363D01*
X4646173Y-5462129D01*
X4645000Y-5464779D01*
X4645000Y-5418640D01*
X4693640Y-5370000D01*
X4731360Y-5370000D01*
X4748007Y-5386647D01*
X4755467Y-5404700D01*
X4770222Y-5419481D01*
X4789511Y-5427491D01*
X4810397Y-5427509D01*
X4821000Y-5423128D01*
X4821000Y-5569947D01*
G36*
X5076787Y-4001000D02*
X5076000Y-4001000D01*
X5076000Y-4001787D01*
X5074000Y-4001787D01*
X5074000Y-4001000D01*
X5073213Y-4001000D01*
X5073213Y-3999000D01*
X5074000Y-3999000D01*
X5074000Y-3998213D01*
X5076000Y-3998213D01*
X5076000Y-3999000D01*
X5076787Y-3999000D01*
X5076787Y-4001000D01*
X5076787Y-4001000D01*
G37*
X5076787Y-4001000D02*
X5076000Y-4001000D01*
X5076000Y-4001787D01*
X5074000Y-4001787D01*
X5074000Y-4001000D01*
X5073213Y-4001000D01*
X5073213Y-3999000D01*
X5074000Y-3999000D01*
X5074000Y-3998213D01*
X5076000Y-3998213D01*
X5076000Y-3999000D01*
X5076787Y-3999000D01*
X5076787Y-4001000D01*
G36*
X5083976Y-5878543D02*
X4825179Y-5878543D01*
X4842875Y-5866719D01*
X4853724Y-5850483D01*
X4855467Y-5854700D01*
X4870222Y-5869481D01*
X4889511Y-5877491D01*
X4910397Y-5877509D01*
X4929700Y-5869533D01*
X4944481Y-5854778D01*
X4952491Y-5835489D01*
X4952509Y-5814603D01*
X4944533Y-5795300D01*
X4929778Y-5780519D01*
X4916478Y-5774996D01*
X4929700Y-5769533D01*
X4944481Y-5754778D01*
X4952491Y-5735489D01*
X4952509Y-5714603D01*
X4949273Y-5706772D01*
X5083976Y-5706772D01*
X5083976Y-5878543D01*
X5083976Y-5878543D01*
G37*
X5083976Y-5878543D02*
X4825179Y-5878543D01*
X4842875Y-5866719D01*
X4853724Y-5850483D01*
X4855467Y-5854700D01*
X4870222Y-5869481D01*
X4889511Y-5877491D01*
X4910397Y-5877509D01*
X4929700Y-5869533D01*
X4944481Y-5854778D01*
X4952491Y-5835489D01*
X4952509Y-5814603D01*
X4944533Y-5795300D01*
X4929778Y-5780519D01*
X4916478Y-5774996D01*
X4929700Y-5769533D01*
X4944481Y-5754778D01*
X4952491Y-5735489D01*
X4952509Y-5714603D01*
X4949273Y-5706772D01*
X5083976Y-5706772D01*
X5083976Y-5878543D01*
G36*
X5101971Y-4950557D02*
X5100557Y-4951971D01*
X5100000Y-4951414D01*
X5060363Y-4991052D01*
X5062129Y-5003827D01*
X5074628Y-5009360D01*
X4987988Y-5096000D01*
X4952500Y-5096000D01*
X4952500Y-5044503D01*
X4967221Y-5041575D01*
X4981820Y-5031820D01*
X5009082Y-5004558D01*
X5010803Y-5004559D01*
X5030860Y-4996272D01*
X5043718Y-4983437D01*
X5044413Y-4985237D01*
X5046173Y-4987871D01*
X5058948Y-4989637D01*
X5098586Y-4950000D01*
X5058948Y-4910363D01*
X5046173Y-4912129D01*
X5044053Y-4916917D01*
X5030940Y-4903782D01*
X5010898Y-4895459D01*
X4989197Y-4895441D01*
X4969140Y-4903728D01*
X4963252Y-4909606D01*
X4955587Y-4889763D01*
X4953827Y-4887129D01*
X4941052Y-4885363D01*
X4939637Y-4886777D01*
X4939637Y-4883948D01*
X4937871Y-4871173D01*
X4914390Y-4860778D01*
X4888718Y-4860160D01*
X4864763Y-4869413D01*
X4862129Y-4871173D01*
X4860363Y-4883948D01*
X4900000Y-4923586D01*
X4939637Y-4883948D01*
X4939637Y-4886777D01*
X4901414Y-4925000D01*
X4901971Y-4925557D01*
X4900557Y-4926971D01*
X4900000Y-4926414D01*
X4899443Y-4926971D01*
X4898029Y-4925557D01*
X4898586Y-4925000D01*
X4858948Y-4885363D01*
X4846173Y-4887129D01*
X4844053Y-4891917D01*
X4830940Y-4878782D01*
X4810898Y-4870459D01*
X4789197Y-4870441D01*
X4769140Y-4878728D01*
X4753782Y-4894060D01*
X4747495Y-4909200D01*
X4741272Y-4894140D01*
X4725940Y-4878782D01*
X4705898Y-4870459D01*
X4684197Y-4870441D01*
X4664140Y-4878728D01*
X4651282Y-4891563D01*
X4650587Y-4889763D01*
X4648827Y-4887129D01*
X4636052Y-4885363D01*
X4634637Y-4886777D01*
X4634637Y-4883948D01*
X4632871Y-4871173D01*
X4609390Y-4860778D01*
X4583718Y-4860160D01*
X4559763Y-4869413D01*
X4557129Y-4871173D01*
X4555363Y-4883948D01*
X4595000Y-4923586D01*
X4634637Y-4883948D01*
X4634637Y-4886777D01*
X4596414Y-4925000D01*
X4636052Y-4964637D01*
X4648827Y-4962871D01*
X4650947Y-4958083D01*
X4664060Y-4971218D01*
X4684102Y-4979541D01*
X4705803Y-4979559D01*
X4725860Y-4971272D01*
X4741218Y-4955940D01*
X4747505Y-4940800D01*
X4753728Y-4955860D01*
X4754879Y-4957013D01*
X4747779Y-4958425D01*
X4733180Y-4968180D01*
X4634637Y-5066723D01*
X4634637Y-4966052D01*
X4595000Y-4926414D01*
X4593586Y-4927828D01*
X4593586Y-4925000D01*
X4553948Y-4885363D01*
X4541173Y-4887129D01*
X4530778Y-4910610D01*
X4530160Y-4936282D01*
X4539413Y-4960237D01*
X4541173Y-4962871D01*
X4553948Y-4964637D01*
X4593586Y-4925000D01*
X4593586Y-4927828D01*
X4555363Y-4966052D01*
X4557129Y-4978827D01*
X4580610Y-4989222D01*
X4606282Y-4989840D01*
X4630237Y-4980587D01*
X4632871Y-4978827D01*
X4634637Y-4966052D01*
X4634637Y-5066723D01*
X4633180Y-5068180D01*
X4623425Y-5082779D01*
X4622336Y-5088256D01*
X4608491Y-5082507D01*
X4591583Y-5082493D01*
X4575957Y-5088949D01*
X4568894Y-5096000D01*
X4552500Y-5096000D01*
X4552500Y-5042527D01*
X4548694Y-5033339D01*
X4541661Y-5026306D01*
X4532473Y-5022500D01*
X4522527Y-5022500D01*
X4514840Y-5022500D01*
X4514840Y-4838718D01*
X4505587Y-4814763D01*
X4503827Y-4812129D01*
X4491052Y-4810363D01*
X4451414Y-4850000D01*
X4491052Y-4889637D01*
X4503827Y-4887871D01*
X4514222Y-4864390D01*
X4514840Y-4838718D01*
X4514840Y-5022500D01*
X4489637Y-5022500D01*
X4489637Y-4891052D01*
X4450000Y-4851414D01*
X4448586Y-4852828D01*
X4448586Y-4850000D01*
X4408948Y-4810363D01*
X4396173Y-4812129D01*
X4385778Y-4835610D01*
X4385160Y-4861282D01*
X4394413Y-4885237D01*
X4396173Y-4887871D01*
X4408948Y-4889637D01*
X4448586Y-4850000D01*
X4448586Y-4852828D01*
X4410363Y-4891052D01*
X4412129Y-4903827D01*
X4435610Y-4914222D01*
X4461282Y-4914840D01*
X4485237Y-4905587D01*
X4487871Y-4903827D01*
X4489637Y-4891052D01*
X4489637Y-5022500D01*
X4467527Y-5022500D01*
X4458339Y-5026306D01*
X4451306Y-5033339D01*
X4447500Y-5042527D01*
X4447500Y-5046000D01*
X4380053Y-5046000D01*
X4384000Y-5026156D01*
X4384000Y-5023844D01*
X4379509Y-5001266D01*
X4366719Y-4982125D01*
X4347578Y-4969335D01*
X4325000Y-4964844D01*
X4302422Y-4969335D01*
X4283281Y-4982125D01*
X4275000Y-4994518D01*
X4266719Y-4982125D01*
X4247578Y-4969335D01*
X4225000Y-4964844D01*
X4202422Y-4969335D01*
X4183281Y-4982125D01*
X4170491Y-5001266D01*
X4166000Y-5023844D01*
X4166000Y-5026156D01*
X4170491Y-5048734D01*
X4183281Y-5067875D01*
X4202422Y-5080665D01*
X4224026Y-5084962D01*
X4189350Y-5119638D01*
X4189350Y-5080677D01*
X4185544Y-5071489D01*
X4178511Y-5064456D01*
X4169323Y-5060650D01*
X4159377Y-5060650D01*
X4080677Y-5060650D01*
X4071489Y-5064456D01*
X4064456Y-5071489D01*
X4060650Y-5080677D01*
X4060650Y-5090623D01*
X4060650Y-5094638D01*
X4057173Y-5091161D01*
X4058990Y-5086787D01*
X4059010Y-5063316D01*
X4057164Y-5058848D01*
X4312012Y-4804000D01*
X4350000Y-4804000D01*
X4361098Y-4801793D01*
X4370506Y-4795506D01*
X4395506Y-4770506D01*
X4397943Y-4766859D01*
X4403728Y-4780860D01*
X4416563Y-4793718D01*
X4414763Y-4794413D01*
X4412129Y-4796173D01*
X4410363Y-4808948D01*
X4450000Y-4848586D01*
X4489637Y-4808948D01*
X4487871Y-4796173D01*
X4485221Y-4795000D01*
X4525000Y-4795000D01*
X4542221Y-4791575D01*
X4556820Y-4781820D01*
X4650000Y-4688640D01*
X4673255Y-4711895D01*
X4669798Y-4710459D01*
X4648097Y-4710441D01*
X4628040Y-4718728D01*
X4612682Y-4734060D01*
X4604359Y-4754102D01*
X4604341Y-4775803D01*
X4612628Y-4795860D01*
X4627960Y-4811218D01*
X4648002Y-4819541D01*
X4669703Y-4819559D01*
X4689760Y-4811272D01*
X4705118Y-4795940D01*
X4713441Y-4775898D01*
X4713459Y-4754197D01*
X4708286Y-4741675D01*
X4725000Y-4745000D01*
X4800339Y-4745000D01*
X4796559Y-4754102D01*
X4796541Y-4775803D01*
X4804828Y-4795860D01*
X4820160Y-4811218D01*
X4840202Y-4819541D01*
X4861903Y-4819559D01*
X4881960Y-4811272D01*
X4897318Y-4795940D01*
X4905641Y-4775898D01*
X4905659Y-4754197D01*
X4901859Y-4745000D01*
X4973754Y-4745000D01*
X4978346Y-4756114D01*
X4993804Y-4771600D01*
X5001989Y-4774998D01*
X4993886Y-4778346D01*
X4978400Y-4793804D01*
X4970010Y-4814012D01*
X4969990Y-4835892D01*
X4978346Y-4856114D01*
X4993804Y-4871600D01*
X5014012Y-4879990D01*
X5016353Y-4879992D01*
X5018180Y-4881820D01*
X5032779Y-4891575D01*
X5050000Y-4895000D01*
X5063884Y-4895000D01*
X5062129Y-4896173D01*
X5060363Y-4908948D01*
X5100000Y-4948586D01*
X5100557Y-4948029D01*
X5101971Y-4949443D01*
X5101414Y-4950000D01*
X5101971Y-4950557D01*
X5101971Y-4950557D01*
G37*
X5101971Y-4950557D02*
X5100557Y-4951971D01*
X5100000Y-4951414D01*
X5060363Y-4991052D01*
X5062129Y-5003827D01*
X5074628Y-5009360D01*
X4987988Y-5096000D01*
X4952500Y-5096000D01*
X4952500Y-5044503D01*
X4967221Y-5041575D01*
X4981820Y-5031820D01*
X5009082Y-5004558D01*
X5010803Y-5004559D01*
X5030860Y-4996272D01*
X5043718Y-4983437D01*
X5044413Y-4985237D01*
X5046173Y-4987871D01*
X5058948Y-4989637D01*
X5098586Y-4950000D01*
X5058948Y-4910363D01*
X5046173Y-4912129D01*
X5044053Y-4916917D01*
X5030940Y-4903782D01*
X5010898Y-4895459D01*
X4989197Y-4895441D01*
X4969140Y-4903728D01*
X4963252Y-4909606D01*
X4955587Y-4889763D01*
X4953827Y-4887129D01*
X4941052Y-4885363D01*
X4939637Y-4886777D01*
X4939637Y-4883948D01*
X4937871Y-4871173D01*
X4914390Y-4860778D01*
X4888718Y-4860160D01*
X4864763Y-4869413D01*
X4862129Y-4871173D01*
X4860363Y-4883948D01*
X4900000Y-4923586D01*
X4939637Y-4883948D01*
X4939637Y-4886777D01*
X4901414Y-4925000D01*
X4901971Y-4925557D01*
X4900557Y-4926971D01*
X4900000Y-4926414D01*
X4899443Y-4926971D01*
X4898029Y-4925557D01*
X4898586Y-4925000D01*
X4858948Y-4885363D01*
X4846173Y-4887129D01*
X4844053Y-4891917D01*
X4830940Y-4878782D01*
X4810898Y-4870459D01*
X4789197Y-4870441D01*
X4769140Y-4878728D01*
X4753782Y-4894060D01*
X4747495Y-4909200D01*
X4741272Y-4894140D01*
X4725940Y-4878782D01*
X4705898Y-4870459D01*
X4684197Y-4870441D01*
X4664140Y-4878728D01*
X4651282Y-4891563D01*
X4650587Y-4889763D01*
X4648827Y-4887129D01*
X4636052Y-4885363D01*
X4634637Y-4886777D01*
X4634637Y-4883948D01*
X4632871Y-4871173D01*
X4609390Y-4860778D01*
X4583718Y-4860160D01*
X4559763Y-4869413D01*
X4557129Y-4871173D01*
X4555363Y-4883948D01*
X4595000Y-4923586D01*
X4634637Y-4883948D01*
X4634637Y-4886777D01*
X4596414Y-4925000D01*
X4636052Y-4964637D01*
X4648827Y-4962871D01*
X4650947Y-4958083D01*
X4664060Y-4971218D01*
X4684102Y-4979541D01*
X4705803Y-4979559D01*
X4725860Y-4971272D01*
X4741218Y-4955940D01*
X4747505Y-4940800D01*
X4753728Y-4955860D01*
X4754879Y-4957013D01*
X4747779Y-4958425D01*
X4733180Y-4968180D01*
X4634637Y-5066723D01*
X4634637Y-4966052D01*
X4595000Y-4926414D01*
X4593586Y-4927828D01*
X4593586Y-4925000D01*
X4553948Y-4885363D01*
X4541173Y-4887129D01*
X4530778Y-4910610D01*
X4530160Y-4936282D01*
X4539413Y-4960237D01*
X4541173Y-4962871D01*
X4553948Y-4964637D01*
X4593586Y-4925000D01*
X4593586Y-4927828D01*
X4555363Y-4966052D01*
X4557129Y-4978827D01*
X4580610Y-4989222D01*
X4606282Y-4989840D01*
X4630237Y-4980587D01*
X4632871Y-4978827D01*
X4634637Y-4966052D01*
X4634637Y-5066723D01*
X4633180Y-5068180D01*
X4623425Y-5082779D01*
X4622336Y-5088256D01*
X4608491Y-5082507D01*
X4591583Y-5082493D01*
X4575957Y-5088949D01*
X4568894Y-5096000D01*
X4552500Y-5096000D01*
X4552500Y-5042527D01*
X4548694Y-5033339D01*
X4541661Y-5026306D01*
X4532473Y-5022500D01*
X4522527Y-5022500D01*
X4514840Y-5022500D01*
X4514840Y-4838718D01*
X4505587Y-4814763D01*
X4503827Y-4812129D01*
X4491052Y-4810363D01*
X4451414Y-4850000D01*
X4491052Y-4889637D01*
X4503827Y-4887871D01*
X4514222Y-4864390D01*
X4514840Y-4838718D01*
X4514840Y-5022500D01*
X4489637Y-5022500D01*
X4489637Y-4891052D01*
X4450000Y-4851414D01*
X4448586Y-4852828D01*
X4448586Y-4850000D01*
X4408948Y-4810363D01*
X4396173Y-4812129D01*
X4385778Y-4835610D01*
X4385160Y-4861282D01*
X4394413Y-4885237D01*
X4396173Y-4887871D01*
X4408948Y-4889637D01*
X4448586Y-4850000D01*
X4448586Y-4852828D01*
X4410363Y-4891052D01*
X4412129Y-4903827D01*
X4435610Y-4914222D01*
X4461282Y-4914840D01*
X4485237Y-4905587D01*
X4487871Y-4903827D01*
X4489637Y-4891052D01*
X4489637Y-5022500D01*
X4467527Y-5022500D01*
X4458339Y-5026306D01*
X4451306Y-5033339D01*
X4447500Y-5042527D01*
X4447500Y-5046000D01*
X4380053Y-5046000D01*
X4384000Y-5026156D01*
X4384000Y-5023844D01*
X4379509Y-5001266D01*
X4366719Y-4982125D01*
X4347578Y-4969335D01*
X4325000Y-4964844D01*
X4302422Y-4969335D01*
X4283281Y-4982125D01*
X4275000Y-4994518D01*
X4266719Y-4982125D01*
X4247578Y-4969335D01*
X4225000Y-4964844D01*
X4202422Y-4969335D01*
X4183281Y-4982125D01*
X4170491Y-5001266D01*
X4166000Y-5023844D01*
X4166000Y-5026156D01*
X4170491Y-5048734D01*
X4183281Y-5067875D01*
X4202422Y-5080665D01*
X4224026Y-5084962D01*
X4189350Y-5119638D01*
X4189350Y-5080677D01*
X4185544Y-5071489D01*
X4178511Y-5064456D01*
X4169323Y-5060650D01*
X4159377Y-5060650D01*
X4080677Y-5060650D01*
X4071489Y-5064456D01*
X4064456Y-5071489D01*
X4060650Y-5080677D01*
X4060650Y-5090623D01*
X4060650Y-5094638D01*
X4057173Y-5091161D01*
X4058990Y-5086787D01*
X4059010Y-5063316D01*
X4057164Y-5058848D01*
X4312012Y-4804000D01*
X4350000Y-4804000D01*
X4361098Y-4801793D01*
X4370506Y-4795506D01*
X4395506Y-4770506D01*
X4397943Y-4766859D01*
X4403728Y-4780860D01*
X4416563Y-4793718D01*
X4414763Y-4794413D01*
X4412129Y-4796173D01*
X4410363Y-4808948D01*
X4450000Y-4848586D01*
X4489637Y-4808948D01*
X4487871Y-4796173D01*
X4485221Y-4795000D01*
X4525000Y-4795000D01*
X4542221Y-4791575D01*
X4556820Y-4781820D01*
X4650000Y-4688640D01*
X4673255Y-4711895D01*
X4669798Y-4710459D01*
X4648097Y-4710441D01*
X4628040Y-4718728D01*
X4612682Y-4734060D01*
X4604359Y-4754102D01*
X4604341Y-4775803D01*
X4612628Y-4795860D01*
X4627960Y-4811218D01*
X4648002Y-4819541D01*
X4669703Y-4819559D01*
X4689760Y-4811272D01*
X4705118Y-4795940D01*
X4713441Y-4775898D01*
X4713459Y-4754197D01*
X4708286Y-4741675D01*
X4725000Y-4745000D01*
X4800339Y-4745000D01*
X4796559Y-4754102D01*
X4796541Y-4775803D01*
X4804828Y-4795860D01*
X4820160Y-4811218D01*
X4840202Y-4819541D01*
X4861903Y-4819559D01*
X4881960Y-4811272D01*
X4897318Y-4795940D01*
X4905641Y-4775898D01*
X4905659Y-4754197D01*
X4901859Y-4745000D01*
X4973754Y-4745000D01*
X4978346Y-4756114D01*
X4993804Y-4771600D01*
X5001989Y-4774998D01*
X4993886Y-4778346D01*
X4978400Y-4793804D01*
X4970010Y-4814012D01*
X4969990Y-4835892D01*
X4978346Y-4856114D01*
X4993804Y-4871600D01*
X5014012Y-4879990D01*
X5016353Y-4879992D01*
X5018180Y-4881820D01*
X5032779Y-4891575D01*
X5050000Y-4895000D01*
X5063884Y-4895000D01*
X5062129Y-4896173D01*
X5060363Y-4908948D01*
X5100000Y-4948586D01*
X5100557Y-4948029D01*
X5101971Y-4949443D01*
X5101414Y-4950000D01*
X5101971Y-4950557D01*
G36*
X5183521Y-5125004D02*
X5170300Y-5130467D01*
X5155519Y-5145222D01*
X5147509Y-5164511D01*
X5147492Y-5183976D01*
X5089882Y-5183976D01*
X5089882Y-5411339D01*
X4937909Y-5411339D01*
X4944481Y-5404778D01*
X4952491Y-5385489D01*
X4952509Y-5364603D01*
X4944810Y-5345971D01*
X4945506Y-5345506D01*
X4970506Y-5320506D01*
X4976793Y-5311098D01*
X4976793Y-5311098D01*
X4979000Y-5300000D01*
X4979000Y-5262298D01*
X4991509Y-5267493D01*
X5008417Y-5267507D01*
X5024043Y-5261051D01*
X5036009Y-5249106D01*
X5042493Y-5233491D01*
X5042507Y-5216583D01*
X5037222Y-5203791D01*
X5149866Y-5091146D01*
X5155467Y-5104700D01*
X5170222Y-5119481D01*
X5183521Y-5125004D01*
X5183521Y-5125004D01*
G37*
X5183521Y-5125004D02*
X5170300Y-5130467D01*
X5155519Y-5145222D01*
X5147509Y-5164511D01*
X5147492Y-5183976D01*
X5089882Y-5183976D01*
X5089882Y-5411339D01*
X4937909Y-5411339D01*
X4944481Y-5404778D01*
X4952491Y-5385489D01*
X4952509Y-5364603D01*
X4944810Y-5345971D01*
X4945506Y-5345506D01*
X4970506Y-5320506D01*
X4976793Y-5311098D01*
X4976793Y-5311098D01*
X4979000Y-5300000D01*
X4979000Y-5262298D01*
X4991509Y-5267493D01*
X5008417Y-5267507D01*
X5024043Y-5261051D01*
X5036009Y-5249106D01*
X5042493Y-5233491D01*
X5042507Y-5216583D01*
X5037222Y-5203791D01*
X5149866Y-5091146D01*
X5155467Y-5104700D01*
X5170222Y-5119481D01*
X5183521Y-5125004D01*
G36*
X5301971Y-4950557D02*
X5300557Y-4951971D01*
X5300000Y-4951414D01*
X5299443Y-4951971D01*
X5298029Y-4950557D01*
X5298586Y-4950000D01*
X5298029Y-4949443D01*
X5299443Y-4948029D01*
X5300000Y-4948586D01*
X5300557Y-4948029D01*
X5301971Y-4949443D01*
X5301414Y-4950000D01*
X5301971Y-4950557D01*
X5301971Y-4950557D01*
G37*
X5301971Y-4950557D02*
X5300557Y-4951971D01*
X5300000Y-4951414D01*
X5299443Y-4951971D01*
X5298029Y-4950557D01*
X5298586Y-4950000D01*
X5298029Y-4949443D01*
X5299443Y-4948029D01*
X5300000Y-4948586D01*
X5300557Y-4948029D01*
X5301971Y-4949443D01*
X5301414Y-4950000D01*
X5301971Y-4950557D01*
G36*
X5446000Y-4808087D02*
X5440962Y-4806000D01*
X5427038Y-4806000D01*
X5409750Y-4806000D01*
X5401000Y-4814750D01*
X5401000Y-4874000D01*
X5401787Y-4874000D01*
X5401787Y-4876000D01*
X5401000Y-4876000D01*
X5401000Y-4876787D01*
X5399000Y-4876787D01*
X5399000Y-4876000D01*
X5398213Y-4876000D01*
X5398213Y-4874000D01*
X5399000Y-4874000D01*
X5399000Y-4814750D01*
X5390250Y-4806000D01*
X5385012Y-4806000D01*
X5387012Y-4804000D01*
X5446000Y-4804000D01*
X5446000Y-4808087D01*
X5446000Y-4808087D01*
G37*
X5446000Y-4808087D02*
X5440962Y-4806000D01*
X5427038Y-4806000D01*
X5409750Y-4806000D01*
X5401000Y-4814750D01*
X5401000Y-4874000D01*
X5401787Y-4874000D01*
X5401787Y-4876000D01*
X5401000Y-4876000D01*
X5401000Y-4876787D01*
X5399000Y-4876787D01*
X5399000Y-4876000D01*
X5398213Y-4876000D01*
X5398213Y-4874000D01*
X5399000Y-4874000D01*
X5399000Y-4814750D01*
X5390250Y-4806000D01*
X5385012Y-4806000D01*
X5387012Y-4804000D01*
X5446000Y-4804000D01*
X5446000Y-4808087D01*
G36*
X5878543Y-4700585D02*
X5851796Y-4700460D01*
X5851796Y-4105517D01*
X5830055Y-4052899D01*
X5789833Y-4012606D01*
X5737253Y-3990773D01*
X5680320Y-3990723D01*
X5627702Y-4012465D01*
X5587409Y-4052687D01*
X5565576Y-4105267D01*
X5565526Y-4162200D01*
X5587268Y-4214818D01*
X5627490Y-4255110D01*
X5680070Y-4276944D01*
X5737003Y-4276993D01*
X5789621Y-4255252D01*
X5829914Y-4215030D01*
X5851747Y-4162450D01*
X5851796Y-4105517D01*
X5851796Y-4700460D01*
X5815294Y-4700290D01*
X5815294Y-4588646D01*
X5805978Y-4564524D01*
X5804198Y-4561859D01*
X5791376Y-4560038D01*
X5751414Y-4600000D01*
X5791376Y-4639962D01*
X5804198Y-4638141D01*
X5814668Y-4614497D01*
X5815294Y-4588646D01*
X5815294Y-4700290D01*
X5805000Y-4700242D01*
X5805010Y-4689108D01*
X5796654Y-4668886D01*
X5784244Y-4656454D01*
X5785476Y-4655978D01*
X5788141Y-4654198D01*
X5789962Y-4641376D01*
X5750000Y-4601414D01*
X5748586Y-4602828D01*
X5748586Y-4600000D01*
X5708624Y-4560038D01*
X5700000Y-4561263D01*
X5691376Y-4560038D01*
X5651414Y-4600000D01*
X5691376Y-4639962D01*
X5700000Y-4638737D01*
X5708624Y-4639962D01*
X5748586Y-4600000D01*
X5748586Y-4602828D01*
X5710038Y-4641376D01*
X5711859Y-4654198D01*
X5716135Y-4656092D01*
X5703400Y-4668804D01*
X5700002Y-4676989D01*
X5696654Y-4668886D01*
X5684244Y-4656454D01*
X5685476Y-4655978D01*
X5688141Y-4654198D01*
X5689962Y-4641376D01*
X5650000Y-4601414D01*
X5648586Y-4602828D01*
X5648586Y-4600000D01*
X5608624Y-4560038D01*
X5595802Y-4561859D01*
X5585332Y-4585503D01*
X5584706Y-4611354D01*
X5594022Y-4635476D01*
X5595802Y-4638141D01*
X5608624Y-4639962D01*
X5648586Y-4600000D01*
X5648586Y-4602828D01*
X5610038Y-4641376D01*
X5611859Y-4654198D01*
X5616135Y-4656092D01*
X5603400Y-4668804D01*
X5602489Y-4671000D01*
X5542640Y-4671000D01*
X5556820Y-4656820D01*
X5566575Y-4642221D01*
X5570000Y-4625000D01*
X5570000Y-4568640D01*
X5593640Y-4545000D01*
X5599645Y-4545000D01*
X5605839Y-4551194D01*
X5610801Y-4553250D01*
X5610038Y-4558624D01*
X5650000Y-4598586D01*
X5689962Y-4558624D01*
X5689199Y-4553250D01*
X5694161Y-4551194D01*
X5700355Y-4545000D01*
X5713059Y-4545000D01*
X5711859Y-4545802D01*
X5710038Y-4558624D01*
X5750000Y-4598586D01*
X5789962Y-4558624D01*
X5788141Y-4545802D01*
X5783865Y-4543908D01*
X5796600Y-4531196D01*
X5804990Y-4510988D01*
X5805010Y-4489108D01*
X5796654Y-4468886D01*
X5781196Y-4453400D01*
X5760988Y-4445010D01*
X5739108Y-4444990D01*
X5718886Y-4453346D01*
X5717229Y-4455000D01*
X5700355Y-4455000D01*
X5694161Y-4448806D01*
X5684973Y-4445000D01*
X5675027Y-4445000D01*
X5615027Y-4445000D01*
X5605839Y-4448806D01*
X5599645Y-4455000D01*
X5575000Y-4455000D01*
X5557779Y-4458425D01*
X5552350Y-4462053D01*
X5552350Y-4071312D01*
X5552350Y-4057388D01*
X5552350Y-4034750D01*
X5543600Y-4026000D01*
X5479000Y-4026000D01*
X5479000Y-4090600D01*
X5487750Y-4099350D01*
X5524312Y-4099350D01*
X5537176Y-4094022D01*
X5547022Y-4084176D01*
X5552350Y-4071312D01*
X5552350Y-4462053D01*
X5543180Y-4468180D01*
X5493180Y-4518180D01*
X5483425Y-4532779D01*
X5480000Y-4550000D01*
X5480000Y-4606360D01*
X5477000Y-4609360D01*
X5477000Y-4090600D01*
X5477000Y-4026000D01*
X5412400Y-4026000D01*
X5403650Y-4034750D01*
X5403650Y-4057388D01*
X5403650Y-4071312D01*
X5408978Y-4084176D01*
X5418824Y-4094022D01*
X5431688Y-4099350D01*
X5468250Y-4099350D01*
X5477000Y-4090600D01*
X5477000Y-4609360D01*
X5406360Y-4680000D01*
X5332792Y-4680000D01*
X5331196Y-4678400D01*
X5310988Y-4670010D01*
X5289108Y-4669990D01*
X5268886Y-4678346D01*
X5253400Y-4693804D01*
X5245444Y-4712965D01*
X5239497Y-4710332D01*
X5213646Y-4709706D01*
X5189524Y-4719022D01*
X5186859Y-4720802D01*
X5185038Y-4733624D01*
X5225000Y-4773586D01*
X5225557Y-4773029D01*
X5226971Y-4774443D01*
X5226414Y-4775000D01*
X5226971Y-4775557D01*
X5225557Y-4776971D01*
X5225000Y-4776414D01*
X5224443Y-4776971D01*
X5223029Y-4775557D01*
X5223586Y-4775000D01*
X5183624Y-4735038D01*
X5170802Y-4736859D01*
X5162334Y-4755981D01*
X5155978Y-4739524D01*
X5154198Y-4736859D01*
X5141376Y-4735038D01*
X5101414Y-4775000D01*
X5101971Y-4775557D01*
X5100557Y-4776971D01*
X5100000Y-4776414D01*
X5099443Y-4776971D01*
X5098029Y-4775557D01*
X5098586Y-4775000D01*
X5098029Y-4774443D01*
X5099443Y-4773029D01*
X5100000Y-4773586D01*
X5139962Y-4733624D01*
X5138141Y-4720802D01*
X5114497Y-4710332D01*
X5088646Y-4709706D01*
X5079630Y-4713188D01*
X5071654Y-4693886D01*
X5056196Y-4678400D01*
X5054036Y-4677504D01*
X5060397Y-4677509D01*
X5079700Y-4669533D01*
X5094481Y-4654778D01*
X5100004Y-4641478D01*
X5105467Y-4654700D01*
X5120222Y-4669481D01*
X5139511Y-4677491D01*
X5160397Y-4677509D01*
X5179700Y-4669533D01*
X5194481Y-4654778D01*
X5200004Y-4641478D01*
X5205467Y-4654700D01*
X5220222Y-4669481D01*
X5239511Y-4677491D01*
X5260397Y-4677509D01*
X5279700Y-4669533D01*
X5294481Y-4654778D01*
X5300004Y-4641478D01*
X5305467Y-4654700D01*
X5320222Y-4669481D01*
X5339511Y-4677491D01*
X5360397Y-4677509D01*
X5379700Y-4669533D01*
X5394481Y-4654778D01*
X5402491Y-4635489D01*
X5402509Y-4614603D01*
X5394533Y-4595300D01*
X5379778Y-4580519D01*
X5360489Y-4572509D01*
X5342502Y-4572493D01*
X5342507Y-4566583D01*
X5336051Y-4550957D01*
X5324106Y-4538991D01*
X5308491Y-4532507D01*
X5298511Y-4532499D01*
X5143507Y-4377494D01*
X5160397Y-4377509D01*
X5179700Y-4369533D01*
X5194481Y-4354778D01*
X5200004Y-4341478D01*
X5205467Y-4354700D01*
X5220222Y-4369481D01*
X5239511Y-4377491D01*
X5260397Y-4377509D01*
X5279700Y-4369533D01*
X5294481Y-4354778D01*
X5300004Y-4341478D01*
X5305467Y-4354700D01*
X5320222Y-4369481D01*
X5339511Y-4377491D01*
X5360397Y-4377509D01*
X5379700Y-4369533D01*
X5394481Y-4354778D01*
X5402491Y-4335489D01*
X5402509Y-4314603D01*
X5394533Y-4295300D01*
X5379778Y-4280519D01*
X5360489Y-4272509D01*
X5339603Y-4272491D01*
X5320300Y-4280467D01*
X5305519Y-4295222D01*
X5299996Y-4308521D01*
X5294533Y-4295300D01*
X5279778Y-4280519D01*
X5260489Y-4272509D01*
X5239603Y-4272491D01*
X5220300Y-4280467D01*
X5205519Y-4295222D01*
X5199996Y-4308521D01*
X5194533Y-4295300D01*
X5179778Y-4280519D01*
X5160489Y-4272509D01*
X5139603Y-4272491D01*
X5120300Y-4280467D01*
X5105519Y-4295222D01*
X5099996Y-4308521D01*
X5094533Y-4295300D01*
X5079778Y-4280519D01*
X5060489Y-4272509D01*
X5039603Y-4272491D01*
X5020300Y-4280467D01*
X5005519Y-4295222D01*
X4999996Y-4308521D01*
X4994533Y-4295300D01*
X4979778Y-4280519D01*
X4960489Y-4272509D01*
X4939603Y-4272491D01*
X4920300Y-4280467D01*
X4905519Y-4295222D01*
X4899996Y-4308521D01*
X4894533Y-4295300D01*
X4879778Y-4280519D01*
X4860489Y-4272509D01*
X4839603Y-4272491D01*
X4821429Y-4280000D01*
X4778529Y-4280000D01*
X4769156Y-4276108D01*
X4780860Y-4271272D01*
X4796218Y-4255940D01*
X4804541Y-4235898D01*
X4804559Y-4214197D01*
X4796272Y-4194140D01*
X4780940Y-4178782D01*
X4760898Y-4170459D01*
X4739197Y-4170441D01*
X4719140Y-4178728D01*
X4706282Y-4191563D01*
X4705587Y-4189763D01*
X4703827Y-4187129D01*
X4691052Y-4185363D01*
X4651414Y-4225000D01*
X4691052Y-4264637D01*
X4703827Y-4262871D01*
X4705947Y-4258083D01*
X4719060Y-4271218D01*
X4730842Y-4276111D01*
X4720300Y-4280467D01*
X4705519Y-4295222D01*
X4705506Y-4295253D01*
X4703805Y-4290855D01*
X4702136Y-4288357D01*
X4689637Y-4286848D01*
X4689637Y-4266052D01*
X4650000Y-4226414D01*
X4648586Y-4227828D01*
X4648586Y-4225000D01*
X4608948Y-4185363D01*
X4596173Y-4187129D01*
X4585778Y-4210610D01*
X4585160Y-4236282D01*
X4594413Y-4260237D01*
X4596173Y-4262871D01*
X4608948Y-4264637D01*
X4648586Y-4225000D01*
X4648586Y-4227828D01*
X4610363Y-4266052D01*
X4612129Y-4278827D01*
X4612612Y-4279041D01*
X4611841Y-4285427D01*
X4650000Y-4323586D01*
X4688159Y-4285427D01*
X4687400Y-4279141D01*
X4687871Y-4278827D01*
X4689637Y-4266052D01*
X4689637Y-4286848D01*
X4689573Y-4286841D01*
X4651414Y-4325000D01*
X4651971Y-4325557D01*
X4650557Y-4326971D01*
X4650000Y-4326414D01*
X4649443Y-4326971D01*
X4648029Y-4325557D01*
X4648586Y-4325000D01*
X4610427Y-4286841D01*
X4597864Y-4288357D01*
X4594660Y-4295606D01*
X4594533Y-4295300D01*
X4579778Y-4280519D01*
X4560489Y-4272509D01*
X4539603Y-4272491D01*
X4520300Y-4280467D01*
X4515294Y-4285464D01*
X4515294Y-4213646D01*
X4505978Y-4189524D01*
X4504198Y-4186859D01*
X4491376Y-4185038D01*
X4451414Y-4225000D01*
X4491376Y-4264962D01*
X4504198Y-4263141D01*
X4514668Y-4239497D01*
X4515294Y-4213646D01*
X4515294Y-4285464D01*
X4505519Y-4295222D01*
X4499996Y-4308521D01*
X4494533Y-4295300D01*
X4481695Y-4282439D01*
X4485476Y-4280978D01*
X4488141Y-4279198D01*
X4489962Y-4266376D01*
X4450000Y-4226414D01*
X4448586Y-4227828D01*
X4448586Y-4225000D01*
X4408624Y-4185038D01*
X4395802Y-4186859D01*
X4385332Y-4210503D01*
X4384706Y-4236354D01*
X4394022Y-4260476D01*
X4395802Y-4263141D01*
X4408624Y-4264962D01*
X4448586Y-4225000D01*
X4448586Y-4227828D01*
X4410038Y-4266376D01*
X4411859Y-4279198D01*
X4418586Y-4282177D01*
X4405519Y-4295222D01*
X4399996Y-4308521D01*
X4394533Y-4295300D01*
X4379778Y-4280519D01*
X4360489Y-4272509D01*
X4339603Y-4272491D01*
X4320300Y-4280467D01*
X4305519Y-4295222D01*
X4299996Y-4308521D01*
X4294533Y-4295300D01*
X4279778Y-4280519D01*
X4260489Y-4272509D01*
X4239603Y-4272491D01*
X4220300Y-4280467D01*
X4205519Y-4295222D01*
X4199996Y-4308521D01*
X4194533Y-4295300D01*
X4179778Y-4280519D01*
X4166755Y-4275111D01*
X4214818Y-4255252D01*
X4255110Y-4215030D01*
X4276944Y-4162450D01*
X4276993Y-4105517D01*
X4255252Y-4052899D01*
X4215030Y-4012606D01*
X4162450Y-3990773D01*
X4105517Y-3990723D01*
X4052899Y-4012465D01*
X4012606Y-4052687D01*
X3990773Y-4105267D01*
X3990723Y-4162200D01*
X4012465Y-4214818D01*
X4052687Y-4255110D01*
X4105267Y-4276944D01*
X4128777Y-4276964D01*
X4120300Y-4280467D01*
X4105519Y-4295222D01*
X4099996Y-4308521D01*
X4094533Y-4295300D01*
X4079778Y-4280519D01*
X4060489Y-4272509D01*
X4039603Y-4272491D01*
X4020300Y-4280467D01*
X4005519Y-4295222D01*
X3997509Y-4314511D01*
X3997491Y-4335397D01*
X4005467Y-4354700D01*
X4020222Y-4369481D01*
X4039511Y-4377491D01*
X4060397Y-4377509D01*
X4079700Y-4369533D01*
X4094481Y-4354778D01*
X4100004Y-4341478D01*
X4105467Y-4354700D01*
X4120222Y-4369481D01*
X4139511Y-4377491D01*
X4160397Y-4377509D01*
X4179700Y-4369533D01*
X4194481Y-4354778D01*
X4200004Y-4341478D01*
X4205467Y-4354700D01*
X4220222Y-4369481D01*
X4239511Y-4377491D01*
X4260397Y-4377509D01*
X4279700Y-4369533D01*
X4294481Y-4354778D01*
X4300004Y-4341478D01*
X4305467Y-4354700D01*
X4320222Y-4369481D01*
X4339511Y-4377491D01*
X4360397Y-4377509D01*
X4379700Y-4369533D01*
X4394481Y-4354778D01*
X4400004Y-4341478D01*
X4405467Y-4354700D01*
X4420222Y-4369481D01*
X4439511Y-4377491D01*
X4460397Y-4377509D01*
X4461175Y-4377188D01*
X4479494Y-4395506D01*
X4488902Y-4401793D01*
X4500000Y-4404000D01*
X5087988Y-4404000D01*
X5256493Y-4572506D01*
X5239603Y-4572491D01*
X5220300Y-4580467D01*
X5205519Y-4595222D01*
X5199996Y-4608521D01*
X5194533Y-4595300D01*
X5179778Y-4580519D01*
X5160489Y-4572509D01*
X5139603Y-4572491D01*
X5120300Y-4580467D01*
X5105519Y-4595222D01*
X5099996Y-4608521D01*
X5094533Y-4595300D01*
X5079778Y-4580519D01*
X5060489Y-4572509D01*
X5039603Y-4572491D01*
X5020300Y-4580467D01*
X5005519Y-4595222D01*
X4999996Y-4608521D01*
X4994533Y-4595300D01*
X4979778Y-4580519D01*
X4960489Y-4572509D01*
X4939603Y-4572491D01*
X4920300Y-4580467D01*
X4905519Y-4595222D01*
X4899996Y-4608521D01*
X4894533Y-4595300D01*
X4879778Y-4580519D01*
X4860489Y-4572509D01*
X4839603Y-4572491D01*
X4820300Y-4580467D01*
X4805519Y-4595222D01*
X4805506Y-4595253D01*
X4803805Y-4590855D01*
X4802136Y-4588357D01*
X4789573Y-4586841D01*
X4788159Y-4588255D01*
X4788159Y-4585427D01*
X4786643Y-4572864D01*
X4763902Y-4562810D01*
X4739045Y-4562224D01*
X4715855Y-4571195D01*
X4713357Y-4572864D01*
X4711841Y-4585427D01*
X4750000Y-4623586D01*
X4788159Y-4585427D01*
X4788159Y-4588255D01*
X4751414Y-4625000D01*
X4751971Y-4625557D01*
X4750557Y-4626971D01*
X4750000Y-4626414D01*
X4749443Y-4626971D01*
X4748029Y-4625557D01*
X4748586Y-4625000D01*
X4710427Y-4586841D01*
X4697864Y-4588357D01*
X4694660Y-4595606D01*
X4694533Y-4595300D01*
X4679778Y-4580519D01*
X4660489Y-4572509D01*
X4639603Y-4572491D01*
X4620300Y-4580467D01*
X4605519Y-4595222D01*
X4599996Y-4608521D01*
X4594533Y-4595300D01*
X4579778Y-4580519D01*
X4560489Y-4572509D01*
X4539603Y-4572491D01*
X4520300Y-4580467D01*
X4505519Y-4595222D01*
X4499996Y-4608521D01*
X4494533Y-4595300D01*
X4479778Y-4580519D01*
X4460489Y-4572509D01*
X4439603Y-4572491D01*
X4420300Y-4580467D01*
X4405519Y-4595222D01*
X4399996Y-4608521D01*
X4394533Y-4595300D01*
X4379778Y-4580519D01*
X4360489Y-4572509D01*
X4339603Y-4572491D01*
X4320300Y-4580467D01*
X4305519Y-4595222D01*
X4299996Y-4608521D01*
X4294533Y-4595300D01*
X4279778Y-4580519D01*
X4260489Y-4572509D01*
X4239603Y-4572491D01*
X4220300Y-4580467D01*
X4205519Y-4595222D01*
X4199996Y-4608521D01*
X4194533Y-4595300D01*
X4179778Y-4580519D01*
X4160489Y-4572509D01*
X4139603Y-4572491D01*
X4120300Y-4580467D01*
X4105519Y-4595222D01*
X4102500Y-4602492D01*
X4102500Y-4592527D01*
X4098694Y-4583339D01*
X4091661Y-4576306D01*
X4082473Y-4572500D01*
X4072527Y-4572500D01*
X4017527Y-4572500D01*
X4008339Y-4576306D01*
X4001306Y-4583339D01*
X3997500Y-4592527D01*
X3997500Y-4602473D01*
X3997500Y-4657473D01*
X4001306Y-4666661D01*
X4008339Y-4673694D01*
X4017527Y-4677500D01*
X4027473Y-4677500D01*
X4081499Y-4677500D01*
X4070479Y-4688501D01*
X4060661Y-4712144D01*
X4060653Y-4721000D01*
X4047041Y-4721000D01*
X4046272Y-4719140D01*
X4030940Y-4703782D01*
X4010898Y-4695459D01*
X3989197Y-4695441D01*
X3969140Y-4703728D01*
X3963976Y-4708883D01*
X3963976Y-3963976D01*
X4303319Y-3963976D01*
X4294335Y-3977422D01*
X4289844Y-4000000D01*
X4294335Y-4022578D01*
X4307125Y-4041719D01*
X4326266Y-4054509D01*
X4348844Y-4059000D01*
X4351156Y-4059000D01*
X4373734Y-4054509D01*
X4392875Y-4041719D01*
X4405665Y-4022578D01*
X4410156Y-4000000D01*
X4405665Y-3977422D01*
X4396681Y-3963976D01*
X4603319Y-3963976D01*
X4598626Y-3971000D01*
X4575000Y-3971000D01*
X4563902Y-3973207D01*
X4554494Y-3979494D01*
X4463101Y-4070887D01*
X4460988Y-4070010D01*
X4439108Y-4069990D01*
X4418886Y-4078346D01*
X4403400Y-4093804D01*
X4395010Y-4114012D01*
X4394990Y-4135892D01*
X4403346Y-4156114D01*
X4415756Y-4168546D01*
X4414524Y-4169022D01*
X4411859Y-4170802D01*
X4410038Y-4183624D01*
X4450000Y-4223586D01*
X4489962Y-4183624D01*
X4488141Y-4170802D01*
X4483865Y-4168908D01*
X4496600Y-4156196D01*
X4504990Y-4135988D01*
X4505010Y-4114108D01*
X4504102Y-4111911D01*
X4587012Y-4029000D01*
X4598626Y-4029000D01*
X4607125Y-4041719D01*
X4626266Y-4054509D01*
X4648844Y-4059000D01*
X4651156Y-4059000D01*
X4673734Y-4054509D01*
X4692875Y-4041719D01*
X4705665Y-4022578D01*
X4710156Y-4000000D01*
X4705665Y-3977422D01*
X4696681Y-3963976D01*
X4828319Y-3963976D01*
X4819335Y-3977422D01*
X4814844Y-4000000D01*
X4819021Y-4021000D01*
X4800000Y-4021000D01*
X4788902Y-4023207D01*
X4779494Y-4029494D01*
X4712988Y-4096000D01*
X4681102Y-4096000D01*
X4674106Y-4088991D01*
X4658491Y-4082507D01*
X4641583Y-4082493D01*
X4625957Y-4088949D01*
X4613991Y-4100894D01*
X4607507Y-4116509D01*
X4607493Y-4133417D01*
X4613949Y-4149043D01*
X4625894Y-4161009D01*
X4631015Y-4163135D01*
X4614763Y-4169413D01*
X4612129Y-4171173D01*
X4610363Y-4183948D01*
X4650000Y-4223586D01*
X4689637Y-4183948D01*
X4687871Y-4171173D01*
X4669369Y-4162982D01*
X4674043Y-4161051D01*
X4681106Y-4154000D01*
X4725000Y-4154000D01*
X4736098Y-4151793D01*
X4745506Y-4145506D01*
X4812012Y-4079000D01*
X4816000Y-4079000D01*
X4816000Y-4138973D01*
X4819806Y-4148161D01*
X4826839Y-4155194D01*
X4836027Y-4159000D01*
X4845973Y-4159000D01*
X4913973Y-4159000D01*
X4923161Y-4155194D01*
X4930194Y-4148161D01*
X4932702Y-4142105D01*
X4951266Y-4154509D01*
X4973844Y-4159000D01*
X4976156Y-4159000D01*
X4998734Y-4154509D01*
X5017875Y-4141719D01*
X5025000Y-4131056D01*
X5032125Y-4141719D01*
X5051266Y-4154509D01*
X5073844Y-4159000D01*
X5076156Y-4159000D01*
X5098734Y-4154509D01*
X5117875Y-4141719D01*
X5130665Y-4122578D01*
X5135156Y-4100000D01*
X5131980Y-4084032D01*
X5162012Y-4054000D01*
X5164356Y-4054000D01*
X5167415Y-4061404D01*
X5185501Y-4079521D01*
X5209144Y-4089339D01*
X5234744Y-4089361D01*
X5258404Y-4079585D01*
X5276521Y-4061499D01*
X5286339Y-4037856D01*
X5286361Y-4012256D01*
X5276585Y-3988596D01*
X5258499Y-3970479D01*
X5242840Y-3963976D01*
X5410826Y-3963976D01*
X5408978Y-3965824D01*
X5403650Y-3978688D01*
X5403650Y-3992612D01*
X5403650Y-4015250D01*
X5412400Y-4024000D01*
X5477000Y-4024000D01*
X5477000Y-4023213D01*
X5479000Y-4023213D01*
X5479000Y-4024000D01*
X5543600Y-4024000D01*
X5552350Y-4015250D01*
X5552350Y-3992612D01*
X5552350Y-3978688D01*
X5547022Y-3965824D01*
X5545174Y-3963976D01*
X5878543Y-3963976D01*
X5878543Y-4700585D01*
X5878543Y-4700585D01*
G37*
X5878543Y-4700585D02*
X5851796Y-4700460D01*
X5851796Y-4105517D01*
X5830055Y-4052899D01*
X5789833Y-4012606D01*
X5737253Y-3990773D01*
X5680320Y-3990723D01*
X5627702Y-4012465D01*
X5587409Y-4052687D01*
X5565576Y-4105267D01*
X5565526Y-4162200D01*
X5587268Y-4214818D01*
X5627490Y-4255110D01*
X5680070Y-4276944D01*
X5737003Y-4276993D01*
X5789621Y-4255252D01*
X5829914Y-4215030D01*
X5851747Y-4162450D01*
X5851796Y-4105517D01*
X5851796Y-4700460D01*
X5815294Y-4700290D01*
X5815294Y-4588646D01*
X5805978Y-4564524D01*
X5804198Y-4561859D01*
X5791376Y-4560038D01*
X5751414Y-4600000D01*
X5791376Y-4639962D01*
X5804198Y-4638141D01*
X5814668Y-4614497D01*
X5815294Y-4588646D01*
X5815294Y-4700290D01*
X5805000Y-4700242D01*
X5805010Y-4689108D01*
X5796654Y-4668886D01*
X5784244Y-4656454D01*
X5785476Y-4655978D01*
X5788141Y-4654198D01*
X5789962Y-4641376D01*
X5750000Y-4601414D01*
X5748586Y-4602828D01*
X5748586Y-4600000D01*
X5708624Y-4560038D01*
X5700000Y-4561263D01*
X5691376Y-4560038D01*
X5651414Y-4600000D01*
X5691376Y-4639962D01*
X5700000Y-4638737D01*
X5708624Y-4639962D01*
X5748586Y-4600000D01*
X5748586Y-4602828D01*
X5710038Y-4641376D01*
X5711859Y-4654198D01*
X5716135Y-4656092D01*
X5703400Y-4668804D01*
X5700002Y-4676989D01*
X5696654Y-4668886D01*
X5684244Y-4656454D01*
X5685476Y-4655978D01*
X5688141Y-4654198D01*
X5689962Y-4641376D01*
X5650000Y-4601414D01*
X5648586Y-4602828D01*
X5648586Y-4600000D01*
X5608624Y-4560038D01*
X5595802Y-4561859D01*
X5585332Y-4585503D01*
X5584706Y-4611354D01*
X5594022Y-4635476D01*
X5595802Y-4638141D01*
X5608624Y-4639962D01*
X5648586Y-4600000D01*
X5648586Y-4602828D01*
X5610038Y-4641376D01*
X5611859Y-4654198D01*
X5616135Y-4656092D01*
X5603400Y-4668804D01*
X5602489Y-4671000D01*
X5542640Y-4671000D01*
X5556820Y-4656820D01*
X5566575Y-4642221D01*
X5570000Y-4625000D01*
X5570000Y-4568640D01*
X5593640Y-4545000D01*
X5599645Y-4545000D01*
X5605839Y-4551194D01*
X5610801Y-4553250D01*
X5610038Y-4558624D01*
X5650000Y-4598586D01*
X5689962Y-4558624D01*
X5689199Y-4553250D01*
X5694161Y-4551194D01*
X5700355Y-4545000D01*
X5713059Y-4545000D01*
X5711859Y-4545802D01*
X5710038Y-4558624D01*
X5750000Y-4598586D01*
X5789962Y-4558624D01*
X5788141Y-4545802D01*
X5783865Y-4543908D01*
X5796600Y-4531196D01*
X5804990Y-4510988D01*
X5805010Y-4489108D01*
X5796654Y-4468886D01*
X5781196Y-4453400D01*
X5760988Y-4445010D01*
X5739108Y-4444990D01*
X5718886Y-4453346D01*
X5717229Y-4455000D01*
X5700355Y-4455000D01*
X5694161Y-4448806D01*
X5684973Y-4445000D01*
X5675027Y-4445000D01*
X5615027Y-4445000D01*
X5605839Y-4448806D01*
X5599645Y-4455000D01*
X5575000Y-4455000D01*
X5557779Y-4458425D01*
X5552350Y-4462053D01*
X5552350Y-4071312D01*
X5552350Y-4057388D01*
X5552350Y-4034750D01*
X5543600Y-4026000D01*
X5479000Y-4026000D01*
X5479000Y-4090600D01*
X5487750Y-4099350D01*
X5524312Y-4099350D01*
X5537176Y-4094022D01*
X5547022Y-4084176D01*
X5552350Y-4071312D01*
X5552350Y-4462053D01*
X5543180Y-4468180D01*
X5493180Y-4518180D01*
X5483425Y-4532779D01*
X5480000Y-4550000D01*
X5480000Y-4606360D01*
X5477000Y-4609360D01*
X5477000Y-4090600D01*
X5477000Y-4026000D01*
X5412400Y-4026000D01*
X5403650Y-4034750D01*
X5403650Y-4057388D01*
X5403650Y-4071312D01*
X5408978Y-4084176D01*
X5418824Y-4094022D01*
X5431688Y-4099350D01*
X5468250Y-4099350D01*
X5477000Y-4090600D01*
X5477000Y-4609360D01*
X5406360Y-4680000D01*
X5332792Y-4680000D01*
X5331196Y-4678400D01*
X5310988Y-4670010D01*
X5289108Y-4669990D01*
X5268886Y-4678346D01*
X5253400Y-4693804D01*
X5245444Y-4712965D01*
X5239497Y-4710332D01*
X5213646Y-4709706D01*
X5189524Y-4719022D01*
X5186859Y-4720802D01*
X5185038Y-4733624D01*
X5225000Y-4773586D01*
X5225557Y-4773029D01*
X5226971Y-4774443D01*
X5226414Y-4775000D01*
X5226971Y-4775557D01*
X5225557Y-4776971D01*
X5225000Y-4776414D01*
X5224443Y-4776971D01*
X5223029Y-4775557D01*
X5223586Y-4775000D01*
X5183624Y-4735038D01*
X5170802Y-4736859D01*
X5162334Y-4755981D01*
X5155978Y-4739524D01*
X5154198Y-4736859D01*
X5141376Y-4735038D01*
X5101414Y-4775000D01*
X5101971Y-4775557D01*
X5100557Y-4776971D01*
X5100000Y-4776414D01*
X5099443Y-4776971D01*
X5098029Y-4775557D01*
X5098586Y-4775000D01*
X5098029Y-4774443D01*
X5099443Y-4773029D01*
X5100000Y-4773586D01*
X5139962Y-4733624D01*
X5138141Y-4720802D01*
X5114497Y-4710332D01*
X5088646Y-4709706D01*
X5079630Y-4713188D01*
X5071654Y-4693886D01*
X5056196Y-4678400D01*
X5054036Y-4677504D01*
X5060397Y-4677509D01*
X5079700Y-4669533D01*
X5094481Y-4654778D01*
X5100004Y-4641478D01*
X5105467Y-4654700D01*
X5120222Y-4669481D01*
X5139511Y-4677491D01*
X5160397Y-4677509D01*
X5179700Y-4669533D01*
X5194481Y-4654778D01*
X5200004Y-4641478D01*
X5205467Y-4654700D01*
X5220222Y-4669481D01*
X5239511Y-4677491D01*
X5260397Y-4677509D01*
X5279700Y-4669533D01*
X5294481Y-4654778D01*
X5300004Y-4641478D01*
X5305467Y-4654700D01*
X5320222Y-4669481D01*
X5339511Y-4677491D01*
X5360397Y-4677509D01*
X5379700Y-4669533D01*
X5394481Y-4654778D01*
X5402491Y-4635489D01*
X5402509Y-4614603D01*
X5394533Y-4595300D01*
X5379778Y-4580519D01*
X5360489Y-4572509D01*
X5342502Y-4572493D01*
X5342507Y-4566583D01*
X5336051Y-4550957D01*
X5324106Y-4538991D01*
X5308491Y-4532507D01*
X5298511Y-4532499D01*
X5143507Y-4377494D01*
X5160397Y-4377509D01*
X5179700Y-4369533D01*
X5194481Y-4354778D01*
X5200004Y-4341478D01*
X5205467Y-4354700D01*
X5220222Y-4369481D01*
X5239511Y-4377491D01*
X5260397Y-4377509D01*
X5279700Y-4369533D01*
X5294481Y-4354778D01*
X5300004Y-4341478D01*
X5305467Y-4354700D01*
X5320222Y-4369481D01*
X5339511Y-4377491D01*
X5360397Y-4377509D01*
X5379700Y-4369533D01*
X5394481Y-4354778D01*
X5402491Y-4335489D01*
X5402509Y-4314603D01*
X5394533Y-4295300D01*
X5379778Y-4280519D01*
X5360489Y-4272509D01*
X5339603Y-4272491D01*
X5320300Y-4280467D01*
X5305519Y-4295222D01*
X5299996Y-4308521D01*
X5294533Y-4295300D01*
X5279778Y-4280519D01*
X5260489Y-4272509D01*
X5239603Y-4272491D01*
X5220300Y-4280467D01*
X5205519Y-4295222D01*
X5199996Y-4308521D01*
X5194533Y-4295300D01*
X5179778Y-4280519D01*
X5160489Y-4272509D01*
X5139603Y-4272491D01*
X5120300Y-4280467D01*
X5105519Y-4295222D01*
X5099996Y-4308521D01*
X5094533Y-4295300D01*
X5079778Y-4280519D01*
X5060489Y-4272509D01*
X5039603Y-4272491D01*
X5020300Y-4280467D01*
X5005519Y-4295222D01*
X4999996Y-4308521D01*
X4994533Y-4295300D01*
X4979778Y-4280519D01*
X4960489Y-4272509D01*
X4939603Y-4272491D01*
X4920300Y-4280467D01*
X4905519Y-4295222D01*
X4899996Y-4308521D01*
X4894533Y-4295300D01*
X4879778Y-4280519D01*
X4860489Y-4272509D01*
X4839603Y-4272491D01*
X4821429Y-4280000D01*
X4778529Y-4280000D01*
X4769156Y-4276108D01*
X4780860Y-4271272D01*
X4796218Y-4255940D01*
X4804541Y-4235898D01*
X4804559Y-4214197D01*
X4796272Y-4194140D01*
X4780940Y-4178782D01*
X4760898Y-4170459D01*
X4739197Y-4170441D01*
X4719140Y-4178728D01*
X4706282Y-4191563D01*
X4705587Y-4189763D01*
X4703827Y-4187129D01*
X4691052Y-4185363D01*
X4651414Y-4225000D01*
X4691052Y-4264637D01*
X4703827Y-4262871D01*
X4705947Y-4258083D01*
X4719060Y-4271218D01*
X4730842Y-4276111D01*
X4720300Y-4280467D01*
X4705519Y-4295222D01*
X4705506Y-4295253D01*
X4703805Y-4290855D01*
X4702136Y-4288357D01*
X4689637Y-4286848D01*
X4689637Y-4266052D01*
X4650000Y-4226414D01*
X4648586Y-4227828D01*
X4648586Y-4225000D01*
X4608948Y-4185363D01*
X4596173Y-4187129D01*
X4585778Y-4210610D01*
X4585160Y-4236282D01*
X4594413Y-4260237D01*
X4596173Y-4262871D01*
X4608948Y-4264637D01*
X4648586Y-4225000D01*
X4648586Y-4227828D01*
X4610363Y-4266052D01*
X4612129Y-4278827D01*
X4612612Y-4279041D01*
X4611841Y-4285427D01*
X4650000Y-4323586D01*
X4688159Y-4285427D01*
X4687400Y-4279141D01*
X4687871Y-4278827D01*
X4689637Y-4266052D01*
X4689637Y-4286848D01*
X4689573Y-4286841D01*
X4651414Y-4325000D01*
X4651971Y-4325557D01*
X4650557Y-4326971D01*
X4650000Y-4326414D01*
X4649443Y-4326971D01*
X4648029Y-4325557D01*
X4648586Y-4325000D01*
X4610427Y-4286841D01*
X4597864Y-4288357D01*
X4594660Y-4295606D01*
X4594533Y-4295300D01*
X4579778Y-4280519D01*
X4560489Y-4272509D01*
X4539603Y-4272491D01*
X4520300Y-4280467D01*
X4515294Y-4285464D01*
X4515294Y-4213646D01*
X4505978Y-4189524D01*
X4504198Y-4186859D01*
X4491376Y-4185038D01*
X4451414Y-4225000D01*
X4491376Y-4264962D01*
X4504198Y-4263141D01*
X4514668Y-4239497D01*
X4515294Y-4213646D01*
X4515294Y-4285464D01*
X4505519Y-4295222D01*
X4499996Y-4308521D01*
X4494533Y-4295300D01*
X4481695Y-4282439D01*
X4485476Y-4280978D01*
X4488141Y-4279198D01*
X4489962Y-4266376D01*
X4450000Y-4226414D01*
X4448586Y-4227828D01*
X4448586Y-4225000D01*
X4408624Y-4185038D01*
X4395802Y-4186859D01*
X4385332Y-4210503D01*
X4384706Y-4236354D01*
X4394022Y-4260476D01*
X4395802Y-4263141D01*
X4408624Y-4264962D01*
X4448586Y-4225000D01*
X4448586Y-4227828D01*
X4410038Y-4266376D01*
X4411859Y-4279198D01*
X4418586Y-4282177D01*
X4405519Y-4295222D01*
X4399996Y-4308521D01*
X4394533Y-4295300D01*
X4379778Y-4280519D01*
X4360489Y-4272509D01*
X4339603Y-4272491D01*
X4320300Y-4280467D01*
X4305519Y-4295222D01*
X4299996Y-4308521D01*
X4294533Y-4295300D01*
X4279778Y-4280519D01*
X4260489Y-4272509D01*
X4239603Y-4272491D01*
X4220300Y-4280467D01*
X4205519Y-4295222D01*
X4199996Y-4308521D01*
X4194533Y-4295300D01*
X4179778Y-4280519D01*
X4166755Y-4275111D01*
X4214818Y-4255252D01*
X4255110Y-4215030D01*
X4276944Y-4162450D01*
X4276993Y-4105517D01*
X4255252Y-4052899D01*
X4215030Y-4012606D01*
X4162450Y-3990773D01*
X4105517Y-3990723D01*
X4052899Y-4012465D01*
X4012606Y-4052687D01*
X3990773Y-4105267D01*
X3990723Y-4162200D01*
X4012465Y-4214818D01*
X4052687Y-4255110D01*
X4105267Y-4276944D01*
X4128777Y-4276964D01*
X4120300Y-4280467D01*
X4105519Y-4295222D01*
X4099996Y-4308521D01*
X4094533Y-4295300D01*
X4079778Y-4280519D01*
X4060489Y-4272509D01*
X4039603Y-4272491D01*
X4020300Y-4280467D01*
X4005519Y-4295222D01*
X3997509Y-4314511D01*
X3997491Y-4335397D01*
X4005467Y-4354700D01*
X4020222Y-4369481D01*
X4039511Y-4377491D01*
X4060397Y-4377509D01*
X4079700Y-4369533D01*
X4094481Y-4354778D01*
X4100004Y-4341478D01*
X4105467Y-4354700D01*
X4120222Y-4369481D01*
X4139511Y-4377491D01*
X4160397Y-4377509D01*
X4179700Y-4369533D01*
X4194481Y-4354778D01*
X4200004Y-4341478D01*
X4205467Y-4354700D01*
X4220222Y-4369481D01*
X4239511Y-4377491D01*
X4260397Y-4377509D01*
X4279700Y-4369533D01*
X4294481Y-4354778D01*
X4300004Y-4341478D01*
X4305467Y-4354700D01*
X4320222Y-4369481D01*
X4339511Y-4377491D01*
X4360397Y-4377509D01*
X4379700Y-4369533D01*
X4394481Y-4354778D01*
X4400004Y-4341478D01*
X4405467Y-4354700D01*
X4420222Y-4369481D01*
X4439511Y-4377491D01*
X4460397Y-4377509D01*
X4461175Y-4377188D01*
X4479494Y-4395506D01*
X4488902Y-4401793D01*
X4500000Y-4404000D01*
X5087988Y-4404000D01*
X5256493Y-4572506D01*
X5239603Y-4572491D01*
X5220300Y-4580467D01*
X5205519Y-4595222D01*
X5199996Y-4608521D01*
X5194533Y-4595300D01*
X5179778Y-4580519D01*
X5160489Y-4572509D01*
X5139603Y-4572491D01*
X5120300Y-4580467D01*
X5105519Y-4595222D01*
X5099996Y-4608521D01*
X5094533Y-4595300D01*
X5079778Y-4580519D01*
X5060489Y-4572509D01*
X5039603Y-4572491D01*
X5020300Y-4580467D01*
X5005519Y-4595222D01*
X4999996Y-4608521D01*
X4994533Y-4595300D01*
X4979778Y-4580519D01*
X4960489Y-4572509D01*
X4939603Y-4572491D01*
X4920300Y-4580467D01*
X4905519Y-4595222D01*
X4899996Y-4608521D01*
X4894533Y-4595300D01*
X4879778Y-4580519D01*
X4860489Y-4572509D01*
X4839603Y-4572491D01*
X4820300Y-4580467D01*
X4805519Y-4595222D01*
X4805506Y-4595253D01*
X4803805Y-4590855D01*
X4802136Y-4588357D01*
X4789573Y-4586841D01*
X4788159Y-4588255D01*
X4788159Y-4585427D01*
X4786643Y-4572864D01*
X4763902Y-4562810D01*
X4739045Y-4562224D01*
X4715855Y-4571195D01*
X4713357Y-4572864D01*
X4711841Y-4585427D01*
X4750000Y-4623586D01*
X4788159Y-4585427D01*
X4788159Y-4588255D01*
X4751414Y-4625000D01*
X4751971Y-4625557D01*
X4750557Y-4626971D01*
X4750000Y-4626414D01*
X4749443Y-4626971D01*
X4748029Y-4625557D01*
X4748586Y-4625000D01*
X4710427Y-4586841D01*
X4697864Y-4588357D01*
X4694660Y-4595606D01*
X4694533Y-4595300D01*
X4679778Y-4580519D01*
X4660489Y-4572509D01*
X4639603Y-4572491D01*
X4620300Y-4580467D01*
X4605519Y-4595222D01*
X4599996Y-4608521D01*
X4594533Y-4595300D01*
X4579778Y-4580519D01*
X4560489Y-4572509D01*
X4539603Y-4572491D01*
X4520300Y-4580467D01*
X4505519Y-4595222D01*
X4499996Y-4608521D01*
X4494533Y-4595300D01*
X4479778Y-4580519D01*
X4460489Y-4572509D01*
X4439603Y-4572491D01*
X4420300Y-4580467D01*
X4405519Y-4595222D01*
X4399996Y-4608521D01*
X4394533Y-4595300D01*
X4379778Y-4580519D01*
X4360489Y-4572509D01*
X4339603Y-4572491D01*
X4320300Y-4580467D01*
X4305519Y-4595222D01*
X4299996Y-4608521D01*
X4294533Y-4595300D01*
X4279778Y-4580519D01*
X4260489Y-4572509D01*
X4239603Y-4572491D01*
X4220300Y-4580467D01*
X4205519Y-4595222D01*
X4199996Y-4608521D01*
X4194533Y-4595300D01*
X4179778Y-4580519D01*
X4160489Y-4572509D01*
X4139603Y-4572491D01*
X4120300Y-4580467D01*
X4105519Y-4595222D01*
X4102500Y-4602492D01*
X4102500Y-4592527D01*
X4098694Y-4583339D01*
X4091661Y-4576306D01*
X4082473Y-4572500D01*
X4072527Y-4572500D01*
X4017527Y-4572500D01*
X4008339Y-4576306D01*
X4001306Y-4583339D01*
X3997500Y-4592527D01*
X3997500Y-4602473D01*
X3997500Y-4657473D01*
X4001306Y-4666661D01*
X4008339Y-4673694D01*
X4017527Y-4677500D01*
X4027473Y-4677500D01*
X4081499Y-4677500D01*
X4070479Y-4688501D01*
X4060661Y-4712144D01*
X4060653Y-4721000D01*
X4047041Y-4721000D01*
X4046272Y-4719140D01*
X4030940Y-4703782D01*
X4010898Y-4695459D01*
X3989197Y-4695441D01*
X3969140Y-4703728D01*
X3963976Y-4708883D01*
X3963976Y-3963976D01*
X4303319Y-3963976D01*
X4294335Y-3977422D01*
X4289844Y-4000000D01*
X4294335Y-4022578D01*
X4307125Y-4041719D01*
X4326266Y-4054509D01*
X4348844Y-4059000D01*
X4351156Y-4059000D01*
X4373734Y-4054509D01*
X4392875Y-4041719D01*
X4405665Y-4022578D01*
X4410156Y-4000000D01*
X4405665Y-3977422D01*
X4396681Y-3963976D01*
X4603319Y-3963976D01*
X4598626Y-3971000D01*
X4575000Y-3971000D01*
X4563902Y-3973207D01*
X4554494Y-3979494D01*
X4463101Y-4070887D01*
X4460988Y-4070010D01*
X4439108Y-4069990D01*
X4418886Y-4078346D01*
X4403400Y-4093804D01*
X4395010Y-4114012D01*
X4394990Y-4135892D01*
X4403346Y-4156114D01*
X4415756Y-4168546D01*
X4414524Y-4169022D01*
X4411859Y-4170802D01*
X4410038Y-4183624D01*
X4450000Y-4223586D01*
X4489962Y-4183624D01*
X4488141Y-4170802D01*
X4483865Y-4168908D01*
X4496600Y-4156196D01*
X4504990Y-4135988D01*
X4505010Y-4114108D01*
X4504102Y-4111911D01*
X4587012Y-4029000D01*
X4598626Y-4029000D01*
X4607125Y-4041719D01*
X4626266Y-4054509D01*
X4648844Y-4059000D01*
X4651156Y-4059000D01*
X4673734Y-4054509D01*
X4692875Y-4041719D01*
X4705665Y-4022578D01*
X4710156Y-4000000D01*
X4705665Y-3977422D01*
X4696681Y-3963976D01*
X4828319Y-3963976D01*
X4819335Y-3977422D01*
X4814844Y-4000000D01*
X4819021Y-4021000D01*
X4800000Y-4021000D01*
X4788902Y-4023207D01*
X4779494Y-4029494D01*
X4712988Y-4096000D01*
X4681102Y-4096000D01*
X4674106Y-4088991D01*
X4658491Y-4082507D01*
X4641583Y-4082493D01*
X4625957Y-4088949D01*
X4613991Y-4100894D01*
X4607507Y-4116509D01*
X4607493Y-4133417D01*
X4613949Y-4149043D01*
X4625894Y-4161009D01*
X4631015Y-4163135D01*
X4614763Y-4169413D01*
X4612129Y-4171173D01*
X4610363Y-4183948D01*
X4650000Y-4223586D01*
X4689637Y-4183948D01*
X4687871Y-4171173D01*
X4669369Y-4162982D01*
X4674043Y-4161051D01*
X4681106Y-4154000D01*
X4725000Y-4154000D01*
X4736098Y-4151793D01*
X4745506Y-4145506D01*
X4812012Y-4079000D01*
X4816000Y-4079000D01*
X4816000Y-4138973D01*
X4819806Y-4148161D01*
X4826839Y-4155194D01*
X4836027Y-4159000D01*
X4845973Y-4159000D01*
X4913973Y-4159000D01*
X4923161Y-4155194D01*
X4930194Y-4148161D01*
X4932702Y-4142105D01*
X4951266Y-4154509D01*
X4973844Y-4159000D01*
X4976156Y-4159000D01*
X4998734Y-4154509D01*
X5017875Y-4141719D01*
X5025000Y-4131056D01*
X5032125Y-4141719D01*
X5051266Y-4154509D01*
X5073844Y-4159000D01*
X5076156Y-4159000D01*
X5098734Y-4154509D01*
X5117875Y-4141719D01*
X5130665Y-4122578D01*
X5135156Y-4100000D01*
X5131980Y-4084032D01*
X5162012Y-4054000D01*
X5164356Y-4054000D01*
X5167415Y-4061404D01*
X5185501Y-4079521D01*
X5209144Y-4089339D01*
X5234744Y-4089361D01*
X5258404Y-4079585D01*
X5276521Y-4061499D01*
X5286339Y-4037856D01*
X5286361Y-4012256D01*
X5276585Y-3988596D01*
X5258499Y-3970479D01*
X5242840Y-3963976D01*
X5410826Y-3963976D01*
X5408978Y-3965824D01*
X5403650Y-3978688D01*
X5403650Y-3992612D01*
X5403650Y-4015250D01*
X5412400Y-4024000D01*
X5477000Y-4024000D01*
X5477000Y-4023213D01*
X5479000Y-4023213D01*
X5479000Y-4024000D01*
X5543600Y-4024000D01*
X5552350Y-4015250D01*
X5552350Y-3992612D01*
X5552350Y-3978688D01*
X5547022Y-3965824D01*
X5545174Y-3963976D01*
X5878543Y-3963976D01*
X5878543Y-4700585D01*
M02*
