%FSLAX36Y36*%
G04 Gerber Fmt 3.6, Leading zero omitted, Abs format (unit inch)*
G04 Created by KiCad (PCBNEW (2014-jul-16 BZR unknown)-product) date Tue 27 Jan 2015 11:40:33 AM PST*
%MOIN*%
G01*
G04 APERTURE LIST*
%ADD10C,0.003937*%
%ADD11C,0.008000*%
%ADD12C,0.006000*%
%ADD13C,0.012000*%
%ADD14C,0.015000*%
%ADD15C,0.010000*%
%ADD16C,0.005906*%
G04 APERTURE END LIST*
D10*
D11*
X4200700Y-5584600D02*
X4312000Y-5695900D01*
D12*
X4066719Y-5529795D02*
X4089576Y-5529795D01*
X4078148Y-5569795D02*
X4078148Y-5529795D01*
X4102910Y-5548843D02*
X4116243Y-5548843D01*
X4121957Y-5569795D02*
X4102910Y-5569795D01*
X4102910Y-5529795D01*
X4121957Y-5529795D01*
X4161957Y-5569795D02*
X4148624Y-5550748D01*
X4139100Y-5569795D02*
X4139100Y-5529795D01*
X4154338Y-5529795D01*
X4158148Y-5531700D01*
X4160052Y-5533605D01*
X4161957Y-5537414D01*
X4161957Y-5543129D01*
X4160052Y-5546938D01*
X4158148Y-5548843D01*
X4154338Y-5550748D01*
X4139100Y-5550748D01*
X4179100Y-5569795D02*
X4179100Y-5529795D01*
X4192433Y-5558367D01*
X4205767Y-5529795D01*
X4205767Y-5569795D01*
X4230905Y-5797095D02*
X4238524Y-5797095D01*
X4242333Y-5799000D01*
X4246143Y-5802810D01*
X4248048Y-5810429D01*
X4248048Y-5823762D01*
X4246143Y-5831381D01*
X4242333Y-5835190D01*
X4238524Y-5837095D01*
X4230905Y-5837095D01*
X4227095Y-5835190D01*
X4223286Y-5831381D01*
X4221381Y-5823762D01*
X4221381Y-5810429D01*
X4223286Y-5802810D01*
X4227095Y-5799000D01*
X4230905Y-5797095D01*
X4278524Y-5816143D02*
X4265191Y-5816143D01*
X4265191Y-5837095D02*
X4265191Y-5797095D01*
X4284238Y-5797095D01*
X4312810Y-5816143D02*
X4299476Y-5816143D01*
X4299476Y-5837095D02*
X4299476Y-5797095D01*
X4318524Y-5797095D01*
X4253638Y-5580195D02*
X4261257Y-5580195D01*
X4265067Y-5582100D01*
X4268876Y-5585910D01*
X4270781Y-5593529D01*
X4270781Y-5606862D01*
X4268876Y-5614481D01*
X4265067Y-5618290D01*
X4261257Y-5620195D01*
X4253638Y-5620195D01*
X4249829Y-5618290D01*
X4246019Y-5614481D01*
X4244114Y-5606862D01*
X4244114Y-5593529D01*
X4246019Y-5585910D01*
X4249829Y-5582100D01*
X4253638Y-5580195D01*
X4287924Y-5620195D02*
X4287924Y-5580195D01*
X4310781Y-5620195D01*
X4310781Y-5580195D01*
X4085429Y-5497595D02*
X4062571Y-5497595D01*
X4074000Y-5497595D02*
X4074000Y-5457595D01*
X4070191Y-5463310D01*
X4066381Y-5467119D01*
X4062571Y-5469024D01*
D11*
X4441500Y-5680500D02*
X4456900Y-5695900D01*
X4441500Y-5569900D02*
X4441500Y-5680500D01*
X4323900Y-5893500D02*
X4315200Y-5884800D01*
X4517700Y-5893500D02*
X4323900Y-5893500D01*
X4517000Y-5894000D02*
X4542000Y-5869000D01*
D12*
X4081429Y-4701095D02*
X4058571Y-4701095D01*
X4070000Y-4701095D02*
X4070000Y-4661095D01*
X4066191Y-4666810D01*
X4062381Y-4670619D01*
X4058571Y-4672524D01*
X4453429Y-5111095D02*
X4430571Y-5111095D01*
X4442000Y-5111095D02*
X4442000Y-5071095D01*
X4438191Y-5076810D01*
X4434381Y-5080619D01*
X4430571Y-5082524D01*
X4865429Y-5121095D02*
X4842571Y-5121095D01*
X4854000Y-5121095D02*
X4854000Y-5081095D01*
X4850191Y-5086810D01*
X4846381Y-5090619D01*
X4842571Y-5092524D01*
X4851929Y-5508095D02*
X4829071Y-5508095D01*
X4840500Y-5508095D02*
X4840500Y-5468095D01*
X4836691Y-5473810D01*
X4832881Y-5477619D01*
X4829071Y-5479524D01*
D11*
X5314500Y-5874000D02*
X5311500Y-5874000D01*
X5331000Y-5890500D02*
X5314500Y-5874000D01*
X5463000Y-5890500D02*
X5331000Y-5890500D01*
D12*
X5544429Y-5577495D02*
X5521571Y-5577495D01*
X5533000Y-5577495D02*
X5533000Y-5537495D01*
X5529191Y-5543210D01*
X5525381Y-5547019D01*
X5521571Y-5548924D01*
X5597229Y-4279495D02*
X5574371Y-4279495D01*
X5585800Y-4279495D02*
X5585800Y-4239495D01*
X5581991Y-4245210D01*
X5578181Y-4249019D01*
X5574371Y-4250924D01*
D11*
X5448100Y-4685100D02*
X5448800Y-4685100D01*
X5448100Y-4809000D02*
X5448100Y-4685100D01*
X5093200Y-4885300D02*
X5091100Y-4885300D01*
X5109300Y-4869200D02*
X5093200Y-4885300D01*
X5120500Y-4869200D02*
X5109300Y-4869200D01*
X5336100Y-4816700D02*
X5351500Y-4801300D01*
X5336000Y-4875000D02*
X5323000Y-4888000D01*
X5336000Y-4815000D02*
X5336000Y-4875000D01*
X5114900Y-4677400D02*
X5107900Y-4684400D01*
X5120500Y-4677400D02*
X5114900Y-4677400D01*
X4522500Y-4864500D02*
X4540500Y-4846500D01*
X4522500Y-4894500D02*
X4522500Y-4864500D01*
D12*
X4346762Y-4065857D02*
X4377238Y-4065857D01*
X4362000Y-4081095D02*
X4362000Y-4050619D01*
X4311762Y-4263857D02*
X4342238Y-4263857D01*
X4813129Y-4156195D02*
X4790271Y-4156195D01*
X4801700Y-4156195D02*
X4801700Y-4116195D01*
X4797891Y-4121910D01*
X4794081Y-4125719D01*
X4790271Y-4127624D01*
X5292605Y-4148895D02*
X5279271Y-4129848D01*
X5269748Y-4148895D02*
X5269748Y-4108895D01*
X5284986Y-4108895D01*
X5288795Y-4110800D01*
X5290700Y-4112705D01*
X5292605Y-4116514D01*
X5292605Y-4122229D01*
X5290700Y-4126038D01*
X5288795Y-4127943D01*
X5284986Y-4129848D01*
X5269748Y-4129848D01*
X5309748Y-4127943D02*
X5323081Y-4127943D01*
X5328795Y-4148895D02*
X5309748Y-4148895D01*
X5309748Y-4108895D01*
X5328795Y-4108895D01*
X5344033Y-4146990D02*
X5349748Y-4148895D01*
X5359271Y-4148895D01*
X5363081Y-4146990D01*
X5364986Y-4145086D01*
X5366890Y-4141276D01*
X5366890Y-4137467D01*
X5364986Y-4133657D01*
X5363081Y-4131752D01*
X5359271Y-4129848D01*
X5351652Y-4127943D01*
X5347843Y-4126038D01*
X5345938Y-4124133D01*
X5344033Y-4120324D01*
X5344033Y-4116514D01*
X5345938Y-4112705D01*
X5347843Y-4110800D01*
X5351652Y-4108895D01*
X5361176Y-4108895D01*
X5366890Y-4110800D01*
X5384033Y-4127943D02*
X5397367Y-4127943D01*
X5403081Y-4148895D02*
X5384033Y-4148895D01*
X5384033Y-4108895D01*
X5403081Y-4108895D01*
X5414510Y-4108895D02*
X5437367Y-4108895D01*
X5425938Y-4148895D02*
X5425938Y-4108895D01*
X4887381Y-4191143D02*
X4893095Y-4193048D01*
X4895000Y-4194952D01*
X4896905Y-4198762D01*
X4896905Y-4204476D01*
X4895000Y-4208286D01*
X4893095Y-4210190D01*
X4889286Y-4212095D01*
X4874048Y-4212095D01*
X4874048Y-4172095D01*
X4887381Y-4172095D01*
X4891191Y-4174000D01*
X4893095Y-4175905D01*
X4895000Y-4179714D01*
X4895000Y-4183524D01*
X4893095Y-4187333D01*
X4891191Y-4189238D01*
X4887381Y-4191143D01*
X4874048Y-4191143D01*
X4914048Y-4172095D02*
X4914048Y-4204476D01*
X4915952Y-4208286D01*
X4917857Y-4210190D01*
X4921667Y-4212095D01*
X4929286Y-4212095D01*
X4933095Y-4210190D01*
X4935000Y-4208286D01*
X4936905Y-4204476D01*
X4936905Y-4172095D01*
X4954048Y-4210190D02*
X4959762Y-4212095D01*
X4969286Y-4212095D01*
X4973095Y-4210190D01*
X4975000Y-4208286D01*
X4976905Y-4204476D01*
X4976905Y-4200667D01*
X4975000Y-4196857D01*
X4973095Y-4194952D01*
X4969286Y-4193048D01*
X4961667Y-4191143D01*
X4957857Y-4189238D01*
X4955952Y-4187333D01*
X4954048Y-4183524D01*
X4954048Y-4179714D01*
X4955952Y-4175905D01*
X4957857Y-4174000D01*
X4961667Y-4172095D01*
X4971191Y-4172095D01*
X4976905Y-4174000D01*
X4984524Y-4215905D02*
X5015000Y-4215905D01*
X5037857Y-4191143D02*
X5043571Y-4193048D01*
X5045476Y-4194952D01*
X5047381Y-4198762D01*
X5047381Y-4204476D01*
X5045476Y-4208286D01*
X5043571Y-4210190D01*
X5039762Y-4212095D01*
X5024524Y-4212095D01*
X5024524Y-4172095D01*
X5037857Y-4172095D01*
X5041667Y-4174000D01*
X5043571Y-4175905D01*
X5045476Y-4179714D01*
X5045476Y-4183524D01*
X5043571Y-4187333D01*
X5041667Y-4189238D01*
X5037857Y-4191143D01*
X5024524Y-4191143D01*
X5062619Y-4200667D02*
X5081667Y-4200667D01*
X5058810Y-4212095D02*
X5072143Y-4172095D01*
X5085476Y-4212095D01*
X5093095Y-4172095D02*
X5115952Y-4172095D01*
X5104524Y-4212095D02*
X5104524Y-4172095D01*
X5123571Y-4172095D02*
X5146429Y-4172095D01*
X5135000Y-4212095D02*
X5135000Y-4172095D01*
X5159762Y-4191143D02*
X5173095Y-4191143D01*
X5178810Y-4212095D02*
X5159762Y-4212095D01*
X5159762Y-4172095D01*
X5178810Y-4172095D01*
X5218810Y-4212095D02*
X5205476Y-4193048D01*
X5195952Y-4212095D02*
X5195952Y-4172095D01*
X5211190Y-4172095D01*
X5215000Y-4174000D01*
X5216905Y-4175905D01*
X5218810Y-4179714D01*
X5218810Y-4185429D01*
X5216905Y-4189238D01*
X5215000Y-4191143D01*
X5211190Y-4193048D01*
X5195952Y-4193048D01*
X5243571Y-4193048D02*
X5243571Y-4212095D01*
X5230238Y-4172095D02*
X5243571Y-4193048D01*
X5256905Y-4172095D01*
X5323571Y-4212095D02*
X5310238Y-4193048D01*
X5300714Y-4212095D02*
X5300714Y-4172095D01*
X5315952Y-4172095D01*
X5319762Y-4174000D01*
X5321667Y-4175905D01*
X5323571Y-4179714D01*
X5323571Y-4185429D01*
X5321667Y-4189238D01*
X5319762Y-4191143D01*
X5315952Y-4193048D01*
X5300714Y-4193048D01*
X5340714Y-4191143D02*
X5354048Y-4191143D01*
X5359762Y-4212095D02*
X5340714Y-4212095D01*
X5340714Y-4172095D01*
X5359762Y-4172095D01*
X5371190Y-4172095D02*
X5384524Y-4212095D01*
X5397857Y-4172095D01*
X5411190Y-4208286D02*
X5413095Y-4210190D01*
X5411190Y-4212095D01*
X5409286Y-4210190D01*
X5411190Y-4208286D01*
X5411190Y-4212095D01*
X5458810Y-4200667D02*
X5477857Y-4200667D01*
X5455000Y-4212095D02*
X5468333Y-4172095D01*
X5481667Y-4212095D01*
X4846429Y-4289333D02*
X4844524Y-4287429D01*
X4840714Y-4281714D01*
X4838810Y-4277905D01*
X4836905Y-4272190D01*
X4835000Y-4262667D01*
X4835000Y-4255048D01*
X4836905Y-4245524D01*
X4838810Y-4239810D01*
X4840714Y-4236000D01*
X4844524Y-4230286D01*
X4846429Y-4228381D01*
X4878810Y-4272190D02*
X4875000Y-4274095D01*
X4867381Y-4274095D01*
X4863571Y-4272190D01*
X4861667Y-4270286D01*
X4859762Y-4266476D01*
X4859762Y-4255048D01*
X4861667Y-4251238D01*
X4863571Y-4249333D01*
X4867381Y-4247429D01*
X4875000Y-4247429D01*
X4878810Y-4249333D01*
X4892143Y-4289333D02*
X4894048Y-4287429D01*
X4897857Y-4281714D01*
X4899762Y-4277905D01*
X4901667Y-4272190D01*
X4903571Y-4262667D01*
X4903571Y-4255048D01*
X4901667Y-4245524D01*
X4899762Y-4239810D01*
X4897857Y-4236000D01*
X4894048Y-4230286D01*
X4892143Y-4228381D01*
X4951190Y-4237905D02*
X4953095Y-4236000D01*
X4956905Y-4234095D01*
X4966429Y-4234095D01*
X4970238Y-4236000D01*
X4972143Y-4237905D01*
X4974048Y-4241714D01*
X4974048Y-4245524D01*
X4972143Y-4251238D01*
X4949286Y-4274095D01*
X4974048Y-4274095D01*
X4998810Y-4234095D02*
X5002619Y-4234095D01*
X5006429Y-4236000D01*
X5008333Y-4237905D01*
X5010238Y-4241714D01*
X5012143Y-4249333D01*
X5012143Y-4258857D01*
X5010238Y-4266476D01*
X5008333Y-4270286D01*
X5006429Y-4272190D01*
X5002619Y-4274095D01*
X4998810Y-4274095D01*
X4995000Y-4272190D01*
X4993095Y-4270286D01*
X4991190Y-4266476D01*
X4989286Y-4258857D01*
X4989286Y-4249333D01*
X4991190Y-4241714D01*
X4993095Y-4237905D01*
X4995000Y-4236000D01*
X4998810Y-4234095D01*
X5050238Y-4274095D02*
X5027381Y-4274095D01*
X5038810Y-4274095D02*
X5038810Y-4234095D01*
X5035000Y-4239810D01*
X5031190Y-4243619D01*
X5027381Y-4245524D01*
X5086429Y-4234095D02*
X5067381Y-4234095D01*
X5065476Y-4253143D01*
X5067381Y-4251238D01*
X5071190Y-4249333D01*
X5080714Y-4249333D01*
X5084524Y-4251238D01*
X5086429Y-4253143D01*
X5088333Y-4256952D01*
X5088333Y-4266476D01*
X5086429Y-4270286D01*
X5084524Y-4272190D01*
X5080714Y-4274095D01*
X5071190Y-4274095D01*
X5067381Y-4272190D01*
X5065476Y-4270286D01*
X5149286Y-4253143D02*
X5155000Y-4255048D01*
X5156905Y-4256952D01*
X5158809Y-4260762D01*
X5158809Y-4266476D01*
X5156905Y-4270286D01*
X5155000Y-4272190D01*
X5151190Y-4274095D01*
X5135952Y-4274095D01*
X5135952Y-4234095D01*
X5149286Y-4234095D01*
X5153095Y-4236000D01*
X5155000Y-4237905D01*
X5156905Y-4241714D01*
X5156905Y-4245524D01*
X5155000Y-4249333D01*
X5153095Y-4251238D01*
X5149286Y-4253143D01*
X5135952Y-4253143D01*
X5183571Y-4255048D02*
X5183571Y-4274095D01*
X5170238Y-4234095D02*
X5183571Y-4255048D01*
X5196905Y-4234095D01*
X5261667Y-4236000D02*
X5257857Y-4234095D01*
X5252143Y-4234095D01*
X5246429Y-4236000D01*
X5242619Y-4239810D01*
X5240714Y-4243619D01*
X5238809Y-4251238D01*
X5238809Y-4256952D01*
X5240714Y-4264571D01*
X5242619Y-4268381D01*
X5246429Y-4272190D01*
X5252143Y-4274095D01*
X5255952Y-4274095D01*
X5261667Y-4272190D01*
X5263571Y-4270286D01*
X5263571Y-4256952D01*
X5255952Y-4256952D01*
X5303571Y-4274095D02*
X5290238Y-4255048D01*
X5280714Y-4274095D02*
X5280714Y-4234095D01*
X5295952Y-4234095D01*
X5299762Y-4236000D01*
X5301667Y-4237905D01*
X5303571Y-4241714D01*
X5303571Y-4247429D01*
X5301667Y-4251238D01*
X5299762Y-4253143D01*
X5295952Y-4255048D01*
X5280714Y-4255048D01*
X5318809Y-4262667D02*
X5337857Y-4262667D01*
X5315000Y-4274095D02*
X5328333Y-4234095D01*
X5341667Y-4274095D01*
X5355000Y-4274095D02*
X5355000Y-4234095D01*
X5368333Y-4262667D01*
X5381667Y-4234095D01*
X5381667Y-4274095D01*
X5419762Y-4274095D02*
X5400714Y-4274095D01*
X5400714Y-4234095D01*
X5433095Y-4274095D02*
X5433095Y-4234095D01*
X5475000Y-4270286D02*
X5473095Y-4272190D01*
X5467381Y-4274095D01*
X5463571Y-4274095D01*
X5457857Y-4272190D01*
X5454048Y-4268381D01*
X5452143Y-4264571D01*
X5450238Y-4256952D01*
X5450238Y-4251238D01*
X5452143Y-4243619D01*
X5454048Y-4239810D01*
X5457857Y-4236000D01*
X5463571Y-4234095D01*
X5467381Y-4234095D01*
X5473095Y-4236000D01*
X5475000Y-4237905D01*
X5492143Y-4274095D02*
X5492143Y-4234095D01*
X5492143Y-4253143D02*
X5515000Y-4253143D01*
X5515000Y-4274095D02*
X5515000Y-4234095D01*
D11*
X3937008Y-5905512D02*
X3937008Y-3937008D01*
X5905512Y-5905512D02*
X3937008Y-5905512D01*
X5905512Y-3937008D02*
X5905512Y-5905512D01*
X3937008Y-3937008D02*
X5905512Y-3937008D01*
D13*
X3950000Y-4898000D02*
X3950000Y-4700000D01*
X3950000Y-4700000D02*
X4050000Y-4700000D01*
X4050000Y-4700000D02*
X4050000Y-4900000D01*
X4050000Y-4900000D02*
X3950000Y-4900000D01*
X3975000Y-4900000D02*
X3950000Y-4875000D01*
X4743000Y-4975000D02*
X4545000Y-4975000D01*
X4545000Y-4975000D02*
X4545000Y-4875000D01*
X4545000Y-4875000D02*
X4745000Y-4875000D01*
X4745000Y-4875000D02*
X4745000Y-4975000D01*
X4745000Y-4950000D02*
X4720000Y-4975000D01*
X5152000Y-4900000D02*
X5350000Y-4900000D01*
X5350000Y-4900000D02*
X5350000Y-5000000D01*
X5350000Y-5000000D02*
X5150000Y-5000000D01*
X5150000Y-5000000D02*
X5150000Y-4900000D01*
X5150000Y-4925000D02*
X5175000Y-4900000D01*
X4752000Y-4875000D02*
X4950000Y-4875000D01*
X4950000Y-4875000D02*
X4950000Y-4975000D01*
X4950000Y-4975000D02*
X4750000Y-4975000D01*
X4750000Y-4975000D02*
X4750000Y-4875000D01*
X4750000Y-4900000D02*
X4775000Y-4875000D01*
X4952000Y-4900000D02*
X5150000Y-4900000D01*
X5150000Y-4900000D02*
X5150000Y-5000000D01*
X5150000Y-5000000D02*
X4950000Y-5000000D01*
X4950000Y-5000000D02*
X4950000Y-4900000D01*
X4950000Y-4925000D02*
X4975000Y-4900000D01*
D14*
X4125000Y-4825000D02*
X4125000Y-4785000D01*
X4125000Y-5015000D02*
X4125000Y-5065000D01*
D15*
X4175000Y-5005000D02*
X4075000Y-5005000D01*
X4175000Y-4995000D02*
X4075000Y-4995000D01*
X4175000Y-4985000D02*
X4075000Y-4985000D01*
X4175000Y-5015000D02*
X4075000Y-5015000D01*
X4175000Y-4975000D02*
X4075000Y-5025000D01*
X4175000Y-5025000D02*
X4075000Y-4975000D01*
X4175000Y-4975000D02*
X4075000Y-4975000D01*
X4175000Y-5000000D02*
X4075000Y-5000000D01*
X4075000Y-5025000D02*
X4175000Y-5025000D01*
X4175000Y-5025000D02*
X4175000Y-4825000D01*
X4175000Y-4825000D02*
X4075000Y-4825000D01*
X4075000Y-4825000D02*
X4075000Y-5025000D01*
D11*
X4370100Y-4255700D02*
X4528300Y-4255700D01*
X4530000Y-4254900D02*
G75*
G03X4370100Y-4255000I-80000J79900D01*
G74*
G01*
D15*
X4325000Y-5675000D02*
X4325000Y-5875000D01*
X4325000Y-5875000D02*
X4425000Y-5875000D01*
X4425000Y-5875000D02*
X4425000Y-5675000D01*
X4425000Y-5575000D02*
X4425000Y-5675000D01*
X4425000Y-5675000D02*
X4325000Y-5675000D01*
X4425000Y-5575000D02*
X4325000Y-5575000D01*
X4325000Y-5575000D02*
X4325000Y-5675000D01*
X5510000Y-4790000D02*
X5530000Y-4790000D01*
X5530000Y-4790000D02*
X5530000Y-4610000D01*
X5530000Y-4610000D02*
X5510000Y-4610000D01*
X5890000Y-4300000D02*
X5890000Y-5100000D01*
X5890000Y-5100000D02*
X5510000Y-5100000D01*
X5510000Y-5100000D02*
X5510000Y-4300000D01*
X5510000Y-4300000D02*
X5890000Y-4300000D01*
X3950000Y-5425000D02*
X3950000Y-4925000D01*
X3950000Y-4925000D02*
X4050000Y-4925000D01*
X4050000Y-4925000D02*
X4050000Y-5425000D01*
X3950000Y-5525000D02*
X3950000Y-5425000D01*
X3950000Y-5425000D02*
X4050000Y-5425000D01*
X3950000Y-5525000D02*
X4050000Y-5525000D01*
X4050000Y-5525000D02*
X4050000Y-5425000D01*
D16*
X4825000Y-4050000D02*
X4925000Y-4050000D01*
X4925000Y-4050000D02*
X4925000Y-4150000D01*
X4825000Y-4150000D02*
X5125000Y-4150000D01*
X5125000Y-4150000D02*
X5125000Y-3950000D01*
X5125000Y-3950000D02*
X4925000Y-3950000D01*
X4825000Y-4150000D02*
X4825000Y-4050000D01*
X4825000Y-3950000D02*
X4825000Y-4050000D01*
X4925000Y-3950000D02*
X4825000Y-3950000D01*
D14*
X5231900Y-3956100D02*
X5231900Y-3965900D01*
X5468100Y-3956100D02*
X5468100Y-3965900D01*
X5231900Y-4093900D02*
X5231900Y-4084100D01*
X5468100Y-4093900D02*
X5468100Y-4084100D01*
X5468100Y-3956100D02*
X5231900Y-3956100D01*
X5468100Y-4093900D02*
X5231900Y-4093900D01*
X4940000Y-4725600D02*
X4947900Y-4741400D01*
X4947900Y-4741400D02*
X4951900Y-4765000D01*
X4951900Y-4765000D02*
X4947900Y-4784700D01*
X4947900Y-4784700D02*
X4932200Y-4812200D01*
X4932200Y-4812200D02*
X4908500Y-4828000D01*
X4908500Y-4828000D02*
X4884900Y-4835900D01*
X4884900Y-4835900D02*
X4625100Y-4835900D01*
X4625100Y-4835900D02*
X4597500Y-4828000D01*
X4597500Y-4828000D02*
X4581800Y-4816200D01*
X4581800Y-4816200D02*
X4566000Y-4796500D01*
X4566000Y-4796500D02*
X4558100Y-4772900D01*
X4558100Y-4772900D02*
X4558100Y-4753200D01*
X4558100Y-4753200D02*
X4566000Y-4733500D01*
X4566000Y-4733500D02*
X4585700Y-4709900D01*
X4585700Y-4709900D02*
X4605400Y-4698100D01*
X4605400Y-4698100D02*
X4625100Y-4694100D01*
X4629000Y-4694100D02*
X4888900Y-4694100D01*
X4888900Y-4694100D02*
X4904600Y-4698100D01*
X4904600Y-4698100D02*
X4924300Y-4709900D01*
X4924300Y-4709900D02*
X4944000Y-4729600D01*
X4629400Y-4673300D02*
X4611300Y-4675200D01*
X4611300Y-4675200D02*
X4595600Y-4679600D01*
X4595600Y-4679600D02*
X4578600Y-4688200D01*
X4578600Y-4688200D02*
X4567200Y-4697300D01*
X4567200Y-4697300D02*
X4554200Y-4711100D01*
X4554200Y-4711100D02*
X4542800Y-4732300D01*
X4542800Y-4732300D02*
X4537700Y-4755900D01*
X4537700Y-4755900D02*
X4537700Y-4776000D01*
X4537700Y-4776000D02*
X4544400Y-4803600D01*
X4544400Y-4803600D02*
X4560100Y-4826800D01*
X4560100Y-4826800D02*
X4578200Y-4841400D01*
X4578200Y-4841400D02*
X4594800Y-4849600D01*
X4594800Y-4849600D02*
X4612500Y-4855900D01*
X4612500Y-4855900D02*
X4629800Y-4857100D01*
X4918800Y-4848500D02*
X4933700Y-4839800D01*
X4933700Y-4839800D02*
X4946300Y-4828800D01*
X4946300Y-4828800D02*
X4956200Y-4815800D01*
X4956200Y-4815800D02*
X4968000Y-4794100D01*
X4968000Y-4794100D02*
X4972300Y-4775600D01*
X4972300Y-4775600D02*
X4973100Y-4757500D01*
X4973100Y-4757500D02*
X4969600Y-4739400D01*
X4969600Y-4739400D02*
X4962100Y-4721700D01*
X4962100Y-4721700D02*
X4947900Y-4703200D01*
X4947900Y-4703200D02*
X4934100Y-4690600D01*
X4934100Y-4690600D02*
X4918800Y-4681500D01*
X4918800Y-4681500D02*
X4901900Y-4676000D01*
X4901900Y-4676000D02*
X4884500Y-4673300D01*
X4629000Y-4856700D02*
X4883000Y-4856700D01*
X4883000Y-4856700D02*
X4899500Y-4855200D01*
X4899500Y-4855200D02*
X4918800Y-4848500D01*
X4629000Y-4673300D02*
X4883000Y-4673300D01*
D15*
X5100000Y-5025000D02*
X5100000Y-5075000D01*
X5100000Y-5075000D02*
X5000000Y-5075000D01*
X5000000Y-5075000D02*
X5000000Y-5025000D01*
X5150000Y-5025000D02*
X5150000Y-5425000D01*
X5150000Y-5425000D02*
X4950000Y-5425000D01*
X4950000Y-5425000D02*
X4950000Y-5025000D01*
X4950000Y-5025000D02*
X5150000Y-5025000D01*
D13*
X4500000Y-4702000D02*
X4500000Y-4900000D01*
X4500000Y-4900000D02*
X4400000Y-4900000D01*
X4400000Y-4900000D02*
X4400000Y-4700000D01*
X4400000Y-4700000D02*
X4500000Y-4700000D01*
X4475000Y-4700000D02*
X4500000Y-4725000D01*
X4798000Y-4275000D02*
X4600000Y-4275000D01*
X4600000Y-4275000D02*
X4600000Y-4175000D01*
X4600000Y-4175000D02*
X4800000Y-4175000D01*
X4800000Y-4175000D02*
X4800000Y-4275000D01*
X4800000Y-4250000D02*
X4775000Y-4275000D01*
X5450000Y-5677000D02*
X5450000Y-5875000D01*
X5450000Y-5875000D02*
X5350000Y-5875000D01*
X5350000Y-5875000D02*
X5350000Y-5675000D01*
X5350000Y-5675000D02*
X5450000Y-5675000D01*
X5425000Y-5675000D02*
X5450000Y-5700000D01*
X5350000Y-5673000D02*
X5350000Y-5475000D01*
X5350000Y-5475000D02*
X5450000Y-5475000D01*
X5450000Y-5475000D02*
X5450000Y-5675000D01*
X5450000Y-5675000D02*
X5350000Y-5675000D01*
X5375000Y-5675000D02*
X5350000Y-5650000D01*
D15*
X5450000Y-4925000D02*
X5450000Y-5425000D01*
X5450000Y-5425000D02*
X5350000Y-5425000D01*
X5350000Y-5425000D02*
X5350000Y-4925000D01*
X5450000Y-4825000D02*
X5450000Y-4925000D01*
X5450000Y-4925000D02*
X5350000Y-4925000D01*
X5450000Y-4825000D02*
X5350000Y-4825000D01*
X5350000Y-4825000D02*
X5350000Y-4925000D01*
D14*
X3950000Y-4375000D02*
X5450000Y-4375000D01*
X5450000Y-4375000D02*
X5450000Y-4575000D01*
X5450000Y-4575000D02*
X3950000Y-4575000D01*
X3950000Y-4575000D02*
X3950000Y-4375000D01*
X3950000Y-4425000D02*
X4000000Y-4425000D01*
X4000000Y-4425000D02*
X4000000Y-4525000D01*
X4000000Y-4525000D02*
X3950000Y-4525000D01*
D15*
X5100000Y-5475000D02*
X5100000Y-5525000D01*
X5100000Y-5525000D02*
X5000000Y-5525000D01*
X5000000Y-5525000D02*
X5000000Y-5475000D01*
X5150000Y-5475000D02*
X5150000Y-5875000D01*
X5150000Y-5875000D02*
X4950000Y-5875000D01*
X4950000Y-5875000D02*
X4950000Y-5475000D01*
X4950000Y-5475000D02*
X5150000Y-5475000D01*
X5475000Y-5275000D02*
X5525000Y-5275000D01*
X5525000Y-5275000D02*
X5525000Y-5375000D01*
X5525000Y-5375000D02*
X5475000Y-5375000D01*
X5475000Y-5225000D02*
X5875000Y-5225000D01*
X5875000Y-5225000D02*
X5875000Y-5425000D01*
X5875000Y-5425000D02*
X5475000Y-5425000D01*
X5475000Y-5425000D02*
X5475000Y-5225000D01*
D16*
X5324478Y-4688699D02*
G75*
G03X5325000Y-4861000I-49478J-86301D01*
G74*
G01*
X5325000Y-4861000D02*
X5325000Y-4688000D01*
D15*
X4700000Y-5025000D02*
X4700000Y-5075000D01*
X4700000Y-5075000D02*
X4600000Y-5075000D01*
X4600000Y-5075000D02*
X4600000Y-5025000D01*
X4750000Y-5025000D02*
X4750000Y-5425000D01*
X4750000Y-5425000D02*
X4550000Y-5425000D01*
X4550000Y-5425000D02*
X4550000Y-5025000D01*
X4550000Y-5025000D02*
X4750000Y-5025000D01*
D16*
X5000522Y-4861301D02*
G75*
G03X5000000Y-4689000I49478J86301D01*
G74*
G01*
X5000000Y-4689000D02*
X5000000Y-4862000D01*
D11*
X4225000Y-4965000D02*
X4225000Y-4975000D01*
X4225000Y-4785000D02*
X4225000Y-4775000D01*
X4185000Y-4785000D02*
X4265000Y-4785000D01*
X4265000Y-4785000D02*
X4265000Y-4965000D01*
X4265000Y-4965000D02*
X4185000Y-4965000D01*
X4185000Y-4965000D02*
X4185000Y-4785000D01*
X4400000Y-5415000D02*
X4400000Y-5425000D01*
X4400000Y-5235000D02*
X4400000Y-5225000D01*
X4360000Y-5235000D02*
X4440000Y-5235000D01*
X4440000Y-5235000D02*
X4440000Y-5415000D01*
X4440000Y-5415000D02*
X4360000Y-5415000D01*
X4360000Y-5415000D02*
X4360000Y-5235000D01*
X4325000Y-4785000D02*
X4325000Y-4775000D01*
X4325000Y-4965000D02*
X4325000Y-4975000D01*
X4365000Y-4965000D02*
X4285000Y-4965000D01*
X4285000Y-4965000D02*
X4285000Y-4785000D01*
X4285000Y-4785000D02*
X4365000Y-4785000D01*
X4365000Y-4785000D02*
X4365000Y-4965000D01*
X4300000Y-5415000D02*
X4300000Y-5425000D01*
X4300000Y-5235000D02*
X4300000Y-5225000D01*
X4260000Y-5235000D02*
X4340000Y-5235000D01*
X4340000Y-5235000D02*
X4340000Y-5415000D01*
X4340000Y-5415000D02*
X4260000Y-5415000D01*
X4260000Y-5415000D02*
X4260000Y-5235000D01*
X4560000Y-5825000D02*
X4550000Y-5825000D01*
X4740000Y-5825000D02*
X4750000Y-5825000D01*
X4740000Y-5785000D02*
X4740000Y-5865000D01*
X4740000Y-5865000D02*
X4560000Y-5865000D01*
X4560000Y-5865000D02*
X4560000Y-5785000D01*
X4560000Y-5785000D02*
X4740000Y-5785000D01*
X4740000Y-5725000D02*
X4750000Y-5725000D01*
X4560000Y-5725000D02*
X4550000Y-5725000D01*
X4560000Y-5765000D02*
X4560000Y-5685000D01*
X4560000Y-5685000D02*
X4740000Y-5685000D01*
X4740000Y-5685000D02*
X4740000Y-5765000D01*
X4740000Y-5765000D02*
X4560000Y-5765000D01*
X4740000Y-5625000D02*
X4750000Y-5625000D01*
X4560000Y-5625000D02*
X4550000Y-5625000D01*
X4560000Y-5665000D02*
X4560000Y-5585000D01*
X4560000Y-5585000D02*
X4740000Y-5585000D01*
X4740000Y-5585000D02*
X4740000Y-5665000D01*
X4740000Y-5665000D02*
X4560000Y-5665000D01*
X4590000Y-4000000D02*
X4600000Y-4000000D01*
X4410000Y-4000000D02*
X4400000Y-4000000D01*
X4410000Y-4040000D02*
X4410000Y-3960000D01*
X4410000Y-3960000D02*
X4590000Y-3960000D01*
X4590000Y-3960000D02*
X4590000Y-4040000D01*
X4590000Y-4040000D02*
X4410000Y-4040000D01*
X5300000Y-5585000D02*
X5300000Y-5575000D01*
X5300000Y-5765000D02*
X5300000Y-5775000D01*
X5340000Y-5765000D02*
X5260000Y-5765000D01*
X5260000Y-5765000D02*
X5260000Y-5585000D01*
X5260000Y-5585000D02*
X5340000Y-5585000D01*
X5340000Y-5585000D02*
X5340000Y-5765000D01*
X5300000Y-5315000D02*
X5300000Y-5325000D01*
X5300000Y-5135000D02*
X5300000Y-5125000D01*
X5260000Y-5135000D02*
X5340000Y-5135000D01*
X5340000Y-5135000D02*
X5340000Y-5315000D01*
X5340000Y-5315000D02*
X5260000Y-5315000D01*
X5260000Y-5315000D02*
X5260000Y-5135000D01*
D13*
X4552000Y-5450000D02*
X4750000Y-5450000D01*
X4750000Y-5450000D02*
X4750000Y-5550000D01*
X4750000Y-5550000D02*
X4550000Y-5550000D01*
X4550000Y-5550000D02*
X4550000Y-5450000D01*
X4550000Y-5475000D02*
X4575000Y-5450000D01*
D11*
X3968333Y-4685286D02*
X3966429Y-4687190D01*
X3960714Y-4689095D01*
X3956905Y-4689095D01*
X3951191Y-4687190D01*
X3947381Y-4683381D01*
X3945476Y-4679571D01*
X3943571Y-4671952D01*
X3943571Y-4666238D01*
X3945476Y-4658619D01*
X3947381Y-4654810D01*
X3951191Y-4651000D01*
X3956905Y-4649095D01*
X3960714Y-4649095D01*
X3966429Y-4651000D01*
X3968333Y-4652905D01*
X4006429Y-4689095D02*
X3983571Y-4689095D01*
X3995000Y-4689095D02*
X3995000Y-4649095D01*
X3991191Y-4654810D01*
X3987381Y-4658619D01*
X3983571Y-4660524D01*
X4494333Y-5011286D02*
X4492429Y-5013190D01*
X4486714Y-5015095D01*
X4482905Y-5015095D01*
X4477191Y-5013190D01*
X4473381Y-5009381D01*
X4471476Y-5005571D01*
X4469571Y-4997952D01*
X4469571Y-4992238D01*
X4471476Y-4984619D01*
X4473381Y-4980810D01*
X4477191Y-4977000D01*
X4482905Y-4975095D01*
X4486714Y-4975095D01*
X4492429Y-4977000D01*
X4494333Y-4978905D01*
X4509571Y-4978905D02*
X4511476Y-4977000D01*
X4515286Y-4975095D01*
X4524810Y-4975095D01*
X4528619Y-4977000D01*
X4530524Y-4978905D01*
X4532429Y-4982714D01*
X4532429Y-4986524D01*
X4530524Y-4992238D01*
X4507667Y-5015095D01*
X4532429Y-5015095D01*
X5384333Y-4799286D02*
X5382429Y-4801190D01*
X5376714Y-4803095D01*
X5372905Y-4803095D01*
X5367191Y-4801190D01*
X5363381Y-4797381D01*
X5361476Y-4793571D01*
X5359571Y-4785952D01*
X5359571Y-4780238D01*
X5361476Y-4772619D01*
X5363381Y-4768810D01*
X5367191Y-4765000D01*
X5372905Y-4763095D01*
X5376714Y-4763095D01*
X5382429Y-4765000D01*
X5384333Y-4766905D01*
X5397667Y-4763095D02*
X5422429Y-4763095D01*
X5409095Y-4778333D01*
X5414810Y-4778333D01*
X5418619Y-4780238D01*
X5420524Y-4782143D01*
X5422429Y-4785952D01*
X5422429Y-4795476D01*
X5420524Y-4799286D01*
X5418619Y-4801190D01*
X5414810Y-4803095D01*
X5403381Y-4803095D01*
X5399571Y-4801190D01*
X5397667Y-4799286D01*
X4791833Y-5019786D02*
X4789929Y-5021690D01*
X4784214Y-5023595D01*
X4780405Y-5023595D01*
X4774691Y-5021690D01*
X4770881Y-5017881D01*
X4768976Y-5014071D01*
X4767071Y-5006452D01*
X4767071Y-5000738D01*
X4768976Y-4993119D01*
X4770881Y-4989310D01*
X4774691Y-4985500D01*
X4780405Y-4983595D01*
X4784214Y-4983595D01*
X4789929Y-4985500D01*
X4791833Y-4987405D01*
X4826119Y-4996929D02*
X4826119Y-5023595D01*
X4816595Y-4981690D02*
X4807071Y-5010262D01*
X4831833Y-5010262D01*
X5154333Y-4878286D02*
X5152429Y-4880190D01*
X5146714Y-4882095D01*
X5142905Y-4882095D01*
X5137191Y-4880190D01*
X5133381Y-4876381D01*
X5131476Y-4872571D01*
X5129571Y-4864952D01*
X5129571Y-4859238D01*
X5131476Y-4851619D01*
X5133381Y-4847810D01*
X5137191Y-4844000D01*
X5142905Y-4842095D01*
X5146714Y-4842095D01*
X5152429Y-4844000D01*
X5154333Y-4845905D01*
X5190524Y-4842095D02*
X5171476Y-4842095D01*
X5169571Y-4861143D01*
X5171476Y-4859238D01*
X5175286Y-4857333D01*
X5184810Y-4857333D01*
X5188619Y-4859238D01*
X5190524Y-4861143D01*
X5192429Y-4864952D01*
X5192429Y-4874476D01*
X5190524Y-4878286D01*
X5188619Y-4880190D01*
X5184810Y-4882095D01*
X5175286Y-4882095D01*
X5171476Y-4880190D01*
X5169571Y-4878286D01*
X4094476Y-5225095D02*
X4094476Y-5185095D01*
X4104000Y-5185095D01*
X4109714Y-5187000D01*
X4113524Y-5190810D01*
X4115429Y-5194619D01*
X4117333Y-5202238D01*
X4117333Y-5207952D01*
X4115429Y-5215571D01*
X4113524Y-5219381D01*
X4109714Y-5223190D01*
X4104000Y-5225095D01*
X4094476Y-5225095D01*
X4155429Y-5225095D02*
X4132571Y-5225095D01*
X4144000Y-5225095D02*
X4144000Y-5185095D01*
X4140191Y-5190810D01*
X4136381Y-5194619D01*
X4132571Y-5196524D01*
X4060534Y-5063860D02*
X4060534Y-5033384D01*
X4066440Y-4805592D02*
X4066440Y-4775116D01*
X4081678Y-4790354D02*
X4051202Y-4790354D01*
X4264476Y-4221095D02*
X4264476Y-4181095D01*
X4274000Y-4181095D01*
X4279714Y-4183000D01*
X4283524Y-4186810D01*
X4285429Y-4190619D01*
X4287333Y-4198238D01*
X4287333Y-4203952D01*
X4285429Y-4211571D01*
X4283524Y-4215381D01*
X4279714Y-4219190D01*
X4274000Y-4221095D01*
X4264476Y-4221095D01*
X4302571Y-4184905D02*
X4304476Y-4183000D01*
X4308286Y-4181095D01*
X4317810Y-4181095D01*
X4321619Y-4183000D01*
X4323524Y-4184905D01*
X4325429Y-4188714D01*
X4325429Y-4192524D01*
X4323524Y-4198238D01*
X4300667Y-4221095D01*
X4325429Y-4221095D01*
X4434762Y-4302857D02*
X4465238Y-4302857D01*
X4434762Y-4027857D02*
X4465238Y-4027857D01*
X4450000Y-4043095D02*
X4450000Y-4012619D01*
X4271667Y-5527095D02*
X4271667Y-5555667D01*
X4269762Y-5561381D01*
X4265952Y-5565190D01*
X4260238Y-5567095D01*
X4256429Y-5567095D01*
X4311667Y-5567095D02*
X4288810Y-5567095D01*
X4300238Y-5567095D02*
X4300238Y-5527095D01*
X4296429Y-5532810D01*
X4292619Y-5536619D01*
X4288810Y-5538524D01*
X5823724Y-4279495D02*
X5823724Y-4239495D01*
X5846581Y-4279495D01*
X5846581Y-4239495D01*
X5886581Y-4279495D02*
X5863724Y-4279495D01*
X5875152Y-4279495D02*
X5875152Y-4239495D01*
X5871343Y-4245210D01*
X5867533Y-4249019D01*
X5863724Y-4250924D01*
X4066524Y-5356095D02*
X4066524Y-5316095D01*
X4089381Y-5356095D01*
X4089381Y-5316095D01*
X4106524Y-5319905D02*
X4108429Y-5318000D01*
X4112238Y-5316095D01*
X4121762Y-5316095D01*
X4125571Y-5318000D01*
X4127476Y-5319905D01*
X4129381Y-5323714D01*
X4129381Y-5327524D01*
X4127476Y-5333238D01*
X4104619Y-5356095D01*
X4129381Y-5356095D01*
X4746524Y-4098095D02*
X4746524Y-4058095D01*
X4769381Y-4098095D01*
X4769381Y-4058095D01*
X4784619Y-4058095D02*
X4809381Y-4058095D01*
X4796048Y-4073333D01*
X4801762Y-4073333D01*
X4805571Y-4075238D01*
X4807476Y-4077143D01*
X4809381Y-4080952D01*
X4809381Y-4090476D01*
X4807476Y-4094286D01*
X4805571Y-4096190D01*
X4801762Y-4098095D01*
X4790333Y-4098095D01*
X4786524Y-4096190D01*
X4784619Y-4094286D01*
X5546667Y-4016190D02*
X5552381Y-4018095D01*
X5561905Y-4018095D01*
X5565714Y-4016190D01*
X5567619Y-4014286D01*
X5569524Y-4010476D01*
X5569524Y-4006667D01*
X5567619Y-4002857D01*
X5565714Y-4000952D01*
X5561905Y-3999048D01*
X5554286Y-3997143D01*
X5550476Y-3995238D01*
X5548571Y-3993333D01*
X5546667Y-3989524D01*
X5546667Y-3985714D01*
X5548571Y-3981905D01*
X5550476Y-3980000D01*
X5554286Y-3978095D01*
X5563810Y-3978095D01*
X5569524Y-3980000D01*
X5582857Y-3978095D02*
X5592381Y-4018095D01*
X5600000Y-3989524D01*
X5607619Y-4018095D01*
X5617143Y-3978095D01*
X5653333Y-4018095D02*
X5630476Y-4018095D01*
X5641905Y-4018095D02*
X5641905Y-3978095D01*
X5638095Y-3983810D01*
X5634286Y-3987619D01*
X5630476Y-3989524D01*
X4469119Y-4916095D02*
X4495786Y-4956095D01*
X4495786Y-4916095D02*
X4469119Y-4956095D01*
X4531976Y-4956095D02*
X4509119Y-4956095D01*
X4520548Y-4956095D02*
X4520548Y-4916095D01*
X4516738Y-4921810D01*
X4512929Y-4925619D01*
X4509119Y-4927524D01*
X4849024Y-4982095D02*
X4849024Y-5014476D01*
X4850929Y-5018286D01*
X4852833Y-5020190D01*
X4856643Y-5022095D01*
X4864262Y-5022095D01*
X4868071Y-5020190D01*
X4869976Y-5018286D01*
X4871881Y-5014476D01*
X4871881Y-4982095D01*
X4908071Y-4995429D02*
X4908071Y-5022095D01*
X4898548Y-4980190D02*
X4889024Y-5008762D01*
X4913786Y-5008762D01*
X4410833Y-4952286D02*
X4408929Y-4954190D01*
X4403214Y-4956095D01*
X4399405Y-4956095D01*
X4393691Y-4954190D01*
X4389881Y-4950381D01*
X4387976Y-4946571D01*
X4386071Y-4938952D01*
X4386071Y-4933238D01*
X4387976Y-4925619D01*
X4389881Y-4921810D01*
X4393691Y-4918000D01*
X4399405Y-4916095D01*
X4403214Y-4916095D01*
X4408929Y-4918000D01*
X4410833Y-4919905D01*
X4445119Y-4916095D02*
X4437500Y-4916095D01*
X4433691Y-4918000D01*
X4431786Y-4919905D01*
X4427976Y-4925619D01*
X4426071Y-4933238D01*
X4426071Y-4948476D01*
X4427976Y-4952286D01*
X4429881Y-4954190D01*
X4433691Y-4956095D01*
X4441310Y-4956095D01*
X4445119Y-4954190D01*
X4447024Y-4952286D01*
X4448929Y-4948476D01*
X4448929Y-4938952D01*
X4447024Y-4935143D01*
X4445119Y-4933238D01*
X4441310Y-4931333D01*
X4433691Y-4931333D01*
X4429881Y-4933238D01*
X4427976Y-4935143D01*
X4426071Y-4938952D01*
X4700333Y-4156286D02*
X4698429Y-4158190D01*
X4692714Y-4160095D01*
X4688905Y-4160095D01*
X4683191Y-4158190D01*
X4679381Y-4154381D01*
X4677476Y-4150571D01*
X4675571Y-4142952D01*
X4675571Y-4137238D01*
X4677476Y-4129619D01*
X4679381Y-4125810D01*
X4683191Y-4122000D01*
X4688905Y-4120095D01*
X4692714Y-4120095D01*
X4698429Y-4122000D01*
X4700333Y-4123905D01*
X4713667Y-4120095D02*
X4740333Y-4120095D01*
X4723191Y-4160095D01*
X5492333Y-5789286D02*
X5490429Y-5791190D01*
X5484714Y-5793095D01*
X5480905Y-5793095D01*
X5475191Y-5791190D01*
X5471381Y-5787381D01*
X5469476Y-5783571D01*
X5467571Y-5775952D01*
X5467571Y-5770238D01*
X5469476Y-5762619D01*
X5471381Y-5758810D01*
X5475191Y-5755000D01*
X5480905Y-5753095D01*
X5484714Y-5753095D01*
X5490429Y-5755000D01*
X5492333Y-5756905D01*
X5515191Y-5770238D02*
X5511381Y-5768333D01*
X5509476Y-5766429D01*
X5507571Y-5762619D01*
X5507571Y-5760714D01*
X5509476Y-5756905D01*
X5511381Y-5755000D01*
X5515191Y-5753095D01*
X5522810Y-5753095D01*
X5526619Y-5755000D01*
X5528524Y-5756905D01*
X5530429Y-5760714D01*
X5530429Y-5762619D01*
X5528524Y-5766429D01*
X5526619Y-5768333D01*
X5522810Y-5770238D01*
X5515191Y-5770238D01*
X5511381Y-5772143D01*
X5509476Y-5774048D01*
X5507571Y-5777857D01*
X5507571Y-5785476D01*
X5509476Y-5789286D01*
X5511381Y-5791190D01*
X5515191Y-5793095D01*
X5522810Y-5793095D01*
X5526619Y-5791190D01*
X5528524Y-5789286D01*
X5530429Y-5785476D01*
X5530429Y-5777857D01*
X5528524Y-5774048D01*
X5526619Y-5772143D01*
X5522810Y-5770238D01*
X5484533Y-5652886D02*
X5482629Y-5654790D01*
X5476914Y-5656695D01*
X5473105Y-5656695D01*
X5467391Y-5654790D01*
X5463581Y-5650981D01*
X5461676Y-5647171D01*
X5459771Y-5639552D01*
X5459771Y-5633838D01*
X5461676Y-5626219D01*
X5463581Y-5622410D01*
X5467391Y-5618600D01*
X5473105Y-5616695D01*
X5476914Y-5616695D01*
X5482629Y-5618600D01*
X5484533Y-5620505D01*
X5503581Y-5656695D02*
X5511200Y-5656695D01*
X5515010Y-5654790D01*
X5516914Y-5652886D01*
X5520724Y-5647171D01*
X5522629Y-5639552D01*
X5522629Y-5624314D01*
X5520724Y-5620505D01*
X5518819Y-5618600D01*
X5515010Y-5616695D01*
X5507391Y-5616695D01*
X5503581Y-5618600D01*
X5501676Y-5620505D01*
X5499771Y-5624314D01*
X5499771Y-5633838D01*
X5501676Y-5637648D01*
X5503581Y-5639552D01*
X5507391Y-5641457D01*
X5515010Y-5641457D01*
X5518819Y-5639552D01*
X5520724Y-5637648D01*
X5522629Y-5633838D01*
X5440533Y-4671095D02*
X5427200Y-4652048D01*
X5417676Y-4671095D02*
X5417676Y-4631095D01*
X5432914Y-4631095D01*
X5436724Y-4633000D01*
X5438629Y-4634905D01*
X5440533Y-4638714D01*
X5440533Y-4644429D01*
X5438629Y-4648238D01*
X5436724Y-4650143D01*
X5432914Y-4652048D01*
X5417676Y-4652048D01*
X5453867Y-4631095D02*
X5480533Y-4631095D01*
X5463391Y-4671095D01*
X3968524Y-4241095D02*
X3968524Y-4273476D01*
X3970429Y-4277286D01*
X3972333Y-4279190D01*
X3976143Y-4281095D01*
X3983762Y-4281095D01*
X3987571Y-4279190D01*
X3989476Y-4277286D01*
X3991381Y-4273476D01*
X3991381Y-4241095D01*
X4029476Y-4241095D02*
X4010429Y-4241095D01*
X4008524Y-4260143D01*
X4010429Y-4258238D01*
X4014238Y-4256333D01*
X4023762Y-4256333D01*
X4027571Y-4258238D01*
X4029476Y-4260143D01*
X4031381Y-4263952D01*
X4031381Y-4273476D01*
X4029476Y-4277286D01*
X4027571Y-4279190D01*
X4023762Y-4281095D01*
X4014238Y-4281095D01*
X4010429Y-4279190D01*
X4008524Y-4277286D01*
X4787524Y-5525095D02*
X4787524Y-5557476D01*
X4789429Y-5561286D01*
X4791333Y-5563190D01*
X4795143Y-5565095D01*
X4802762Y-5565095D01*
X4806571Y-5563190D01*
X4808476Y-5561286D01*
X4810381Y-5557476D01*
X4810381Y-5525095D01*
X4846571Y-5525095D02*
X4838952Y-5525095D01*
X4835143Y-5527000D01*
X4833238Y-5528905D01*
X4829429Y-5534619D01*
X4827524Y-5542238D01*
X4827524Y-5557476D01*
X4829429Y-5561286D01*
X4831333Y-5563190D01*
X4835143Y-5565095D01*
X4842762Y-5565095D01*
X4846571Y-5563190D01*
X4848476Y-5561286D01*
X4850381Y-5557476D01*
X4850381Y-5547952D01*
X4848476Y-5544143D01*
X4846571Y-5542238D01*
X4842762Y-5540333D01*
X4835143Y-5540333D01*
X4831333Y-5542238D01*
X4829429Y-5544143D01*
X4827524Y-5547952D01*
X5642524Y-5525095D02*
X5642524Y-5557476D01*
X5644429Y-5561286D01*
X5646333Y-5563190D01*
X5650143Y-5565095D01*
X5657762Y-5565095D01*
X5661571Y-5563190D01*
X5663476Y-5561286D01*
X5665381Y-5557476D01*
X5665381Y-5525095D01*
X5680619Y-5525095D02*
X5707286Y-5525095D01*
X5690143Y-5565095D01*
X5346524Y-4700095D02*
X5346524Y-4732476D01*
X5348429Y-4736286D01*
X5350333Y-4738190D01*
X5354143Y-4740095D01*
X5361762Y-4740095D01*
X5365571Y-4738190D01*
X5367476Y-4736286D01*
X5369381Y-4732476D01*
X5369381Y-4700095D01*
X5409381Y-4740095D02*
X5386524Y-4740095D01*
X5397952Y-4740095D02*
X5397952Y-4700095D01*
X5394143Y-4705810D01*
X5390333Y-4709619D01*
X5386524Y-4711524D01*
X4393524Y-5014095D02*
X4393524Y-5046476D01*
X4395429Y-5050286D01*
X4397333Y-5052190D01*
X4401143Y-5054095D01*
X4408762Y-5054095D01*
X4412571Y-5052190D01*
X4414476Y-5050286D01*
X4416381Y-5046476D01*
X4416381Y-5014095D01*
X4433524Y-5017905D02*
X4435429Y-5016000D01*
X4439238Y-5014095D01*
X4448762Y-5014095D01*
X4452571Y-5016000D01*
X4454476Y-5017905D01*
X4456381Y-5021714D01*
X4456381Y-5025524D01*
X4454476Y-5031238D01*
X4431619Y-5054095D01*
X4456381Y-5054095D01*
X5132024Y-4665995D02*
X5132024Y-4698376D01*
X5133929Y-4702186D01*
X5135833Y-4704090D01*
X5139643Y-4705995D01*
X5147262Y-4705995D01*
X5151071Y-4704090D01*
X5152976Y-4702186D01*
X5154881Y-4698376D01*
X5154881Y-4665995D01*
X5170119Y-4665995D02*
X5194881Y-4665995D01*
X5181548Y-4681233D01*
X5187262Y-4681233D01*
X5191071Y-4683138D01*
X5192976Y-4685043D01*
X5194881Y-4688852D01*
X5194881Y-4698376D01*
X5192976Y-4702186D01*
X5191071Y-4704090D01*
X5187262Y-4705995D01*
X5175833Y-4705995D01*
X5172024Y-4704090D01*
X5170119Y-4702186D01*
D12*
X4218333Y-5112095D02*
X4205000Y-5093048D01*
X4195476Y-5112095D02*
X4195476Y-5072095D01*
X4210714Y-5072095D01*
X4214524Y-5074000D01*
X4216429Y-5075905D01*
X4218333Y-5079714D01*
X4218333Y-5085429D01*
X4216429Y-5089238D01*
X4214524Y-5091143D01*
X4210714Y-5093048D01*
X4195476Y-5093048D01*
X4256429Y-5112095D02*
X4233571Y-5112095D01*
X4245000Y-5112095D02*
X4245000Y-5072095D01*
X4241191Y-5077810D01*
X4237381Y-5081619D01*
X4233571Y-5083524D01*
X4371833Y-5127095D02*
X4358500Y-5108048D01*
X4348976Y-5127095D02*
X4348976Y-5087095D01*
X4364214Y-5087095D01*
X4368024Y-5089000D01*
X4369929Y-5090905D01*
X4371833Y-5094714D01*
X4371833Y-5100429D01*
X4369929Y-5104238D01*
X4368024Y-5106143D01*
X4364214Y-5108048D01*
X4348976Y-5108048D01*
X4387071Y-5090905D02*
X4388976Y-5089000D01*
X4392786Y-5087095D01*
X4402310Y-5087095D01*
X4406119Y-5089000D01*
X4408024Y-5090905D01*
X4409929Y-5094714D01*
X4409929Y-5098524D01*
X4408024Y-5104238D01*
X4385167Y-5127095D01*
X4409929Y-5127095D01*
X4299333Y-5110095D02*
X4286000Y-5091048D01*
X4276476Y-5110095D02*
X4276476Y-5070095D01*
X4291714Y-5070095D01*
X4295524Y-5072000D01*
X4297429Y-5073905D01*
X4299333Y-5077714D01*
X4299333Y-5083429D01*
X4297429Y-5087238D01*
X4295524Y-5089143D01*
X4291714Y-5091048D01*
X4276476Y-5091048D01*
X4312667Y-5070095D02*
X4337429Y-5070095D01*
X4324095Y-5085333D01*
X4329810Y-5085333D01*
X4333619Y-5087238D01*
X4335524Y-5089143D01*
X4337429Y-5092952D01*
X4337429Y-5102476D01*
X4335524Y-5106286D01*
X4333619Y-5108190D01*
X4329810Y-5110095D01*
X4318381Y-5110095D01*
X4314571Y-5108190D01*
X4312667Y-5106286D01*
X4208033Y-5341595D02*
X4194700Y-5322548D01*
X4185176Y-5341595D02*
X4185176Y-5301595D01*
X4200414Y-5301595D01*
X4204224Y-5303500D01*
X4206129Y-5305405D01*
X4208033Y-5309214D01*
X4208033Y-5314929D01*
X4206129Y-5318738D01*
X4204224Y-5320643D01*
X4200414Y-5322548D01*
X4185176Y-5322548D01*
X4242319Y-5314929D02*
X4242319Y-5341595D01*
X4232795Y-5299690D02*
X4223271Y-5328262D01*
X4248033Y-5328262D01*
X4268333Y-5893095D02*
X4255000Y-5874048D01*
X4245476Y-5893095D02*
X4245476Y-5853095D01*
X4260714Y-5853095D01*
X4264524Y-5855000D01*
X4266429Y-5856905D01*
X4268333Y-5860714D01*
X4268333Y-5866429D01*
X4266429Y-5870238D01*
X4264524Y-5872143D01*
X4260714Y-5874048D01*
X4245476Y-5874048D01*
X4304524Y-5853095D02*
X4285476Y-5853095D01*
X4283571Y-5872143D01*
X4285476Y-5870238D01*
X4289286Y-5868333D01*
X4298810Y-5868333D01*
X4302619Y-5870238D01*
X4304524Y-5872143D01*
X4306429Y-5875952D01*
X4306429Y-5885476D01*
X4304524Y-5889286D01*
X4302619Y-5891190D01*
X4298810Y-5893095D01*
X4289286Y-5893095D01*
X4285476Y-5891190D01*
X4283571Y-5889286D01*
X4408333Y-5562095D02*
X4395000Y-5543048D01*
X4385476Y-5562095D02*
X4385476Y-5522095D01*
X4400714Y-5522095D01*
X4404524Y-5524000D01*
X4406429Y-5525905D01*
X4408333Y-5529714D01*
X4408333Y-5535429D01*
X4406429Y-5539238D01*
X4404524Y-5541143D01*
X4400714Y-5543048D01*
X4385476Y-5543048D01*
X4442619Y-5522095D02*
X4435000Y-5522095D01*
X4431191Y-5524000D01*
X4429286Y-5525905D01*
X4425476Y-5531619D01*
X4423571Y-5539238D01*
X4423571Y-5554476D01*
X4425476Y-5558286D01*
X4427381Y-5560190D01*
X4431191Y-5562095D01*
X4438810Y-5562095D01*
X4442619Y-5560190D01*
X4444524Y-5558286D01*
X4446429Y-5554476D01*
X4446429Y-5544952D01*
X4444524Y-5541143D01*
X4442619Y-5539238D01*
X4438810Y-5537333D01*
X4431191Y-5537333D01*
X4427381Y-5539238D01*
X4425476Y-5541143D01*
X4423571Y-5544952D01*
X4492333Y-5575095D02*
X4479000Y-5556048D01*
X4469476Y-5575095D02*
X4469476Y-5535095D01*
X4484714Y-5535095D01*
X4488524Y-5537000D01*
X4490429Y-5538905D01*
X4492333Y-5542714D01*
X4492333Y-5548429D01*
X4490429Y-5552238D01*
X4488524Y-5554143D01*
X4484714Y-5556048D01*
X4469476Y-5556048D01*
X4515191Y-5552238D02*
X4511381Y-5550333D01*
X4509476Y-5548429D01*
X4507571Y-5544619D01*
X4507571Y-5542714D01*
X4509476Y-5538905D01*
X4511381Y-5537000D01*
X4515191Y-5535095D01*
X4522810Y-5535095D01*
X4526619Y-5537000D01*
X4528524Y-5538905D01*
X4530429Y-5542714D01*
X4530429Y-5544619D01*
X4528524Y-5548429D01*
X4526619Y-5550333D01*
X4522810Y-5552238D01*
X4515191Y-5552238D01*
X4511381Y-5554143D01*
X4509476Y-5556048D01*
X4507571Y-5559857D01*
X4507571Y-5567476D01*
X4509476Y-5571286D01*
X4511381Y-5573190D01*
X4515191Y-5575095D01*
X4522810Y-5575095D01*
X4526619Y-5573190D01*
X4528524Y-5571286D01*
X4530429Y-5567476D01*
X4530429Y-5559857D01*
X4528524Y-5556048D01*
X4526619Y-5554143D01*
X4522810Y-5552238D01*
X4748733Y-4009795D02*
X4735400Y-3990748D01*
X4725876Y-4009795D02*
X4725876Y-3969795D01*
X4741114Y-3969795D01*
X4744924Y-3971700D01*
X4746829Y-3973605D01*
X4748733Y-3977414D01*
X4748733Y-3983129D01*
X4746829Y-3986938D01*
X4744924Y-3988843D01*
X4741114Y-3990748D01*
X4725876Y-3990748D01*
X4767781Y-4009795D02*
X4775400Y-4009795D01*
X4779210Y-4007890D01*
X4781114Y-4005986D01*
X4784924Y-4000271D01*
X4786829Y-3992652D01*
X4786829Y-3977414D01*
X4784924Y-3973605D01*
X4783019Y-3971700D01*
X4779210Y-3969795D01*
X4771591Y-3969795D01*
X4767781Y-3971700D01*
X4765876Y-3973605D01*
X4763971Y-3977414D01*
X4763971Y-3986938D01*
X4765876Y-3990748D01*
X4767781Y-3992652D01*
X4771591Y-3994557D01*
X4779210Y-3994557D01*
X4783019Y-3992652D01*
X4784924Y-3990748D01*
X4786829Y-3986938D01*
X5498786Y-5890595D02*
X5485452Y-5871548D01*
X5475929Y-5890595D02*
X5475929Y-5850595D01*
X5491167Y-5850595D01*
X5494976Y-5852500D01*
X5496881Y-5854405D01*
X5498786Y-5858214D01*
X5498786Y-5863929D01*
X5496881Y-5867738D01*
X5494976Y-5869643D01*
X5491167Y-5871548D01*
X5475929Y-5871548D01*
X5536881Y-5890595D02*
X5514024Y-5890595D01*
X5525452Y-5890595D02*
X5525452Y-5850595D01*
X5521643Y-5856310D01*
X5517833Y-5860119D01*
X5514024Y-5862024D01*
X5561643Y-5850595D02*
X5565452Y-5850595D01*
X5569262Y-5852500D01*
X5571167Y-5854405D01*
X5573071Y-5858214D01*
X5574976Y-5865833D01*
X5574976Y-5875357D01*
X5573071Y-5882976D01*
X5571167Y-5886786D01*
X5569262Y-5888690D01*
X5565452Y-5890595D01*
X5561643Y-5890595D01*
X5557833Y-5888690D01*
X5555929Y-5886786D01*
X5554024Y-5882976D01*
X5552119Y-5875357D01*
X5552119Y-5865833D01*
X5554024Y-5858214D01*
X5555929Y-5854405D01*
X5557833Y-5852500D01*
X5561643Y-5850595D01*
X5272286Y-5457095D02*
X5258952Y-5438048D01*
X5249429Y-5457095D02*
X5249429Y-5417095D01*
X5264667Y-5417095D01*
X5268476Y-5419000D01*
X5270381Y-5420905D01*
X5272286Y-5424714D01*
X5272286Y-5430429D01*
X5270381Y-5434238D01*
X5268476Y-5436143D01*
X5264667Y-5438048D01*
X5249429Y-5438048D01*
X5310381Y-5457095D02*
X5287524Y-5457095D01*
X5298952Y-5457095D02*
X5298952Y-5417095D01*
X5295143Y-5422810D01*
X5291333Y-5426619D01*
X5287524Y-5428524D01*
X5348476Y-5457095D02*
X5325619Y-5457095D01*
X5337048Y-5457095D02*
X5337048Y-5417095D01*
X5333238Y-5422810D01*
X5329429Y-5426619D01*
X5325619Y-5428524D01*
D11*
X4464286Y-5461286D02*
X4462381Y-5463190D01*
X4456667Y-5465095D01*
X4452857Y-5465095D01*
X4447143Y-5463190D01*
X4443333Y-5459381D01*
X4441429Y-5455571D01*
X4439524Y-5447952D01*
X4439524Y-5442238D01*
X4441429Y-5434619D01*
X4443333Y-5430810D01*
X4447143Y-5427000D01*
X4452857Y-5425095D01*
X4456667Y-5425095D01*
X4462381Y-5427000D01*
X4464286Y-5428905D01*
X4502381Y-5465095D02*
X4479524Y-5465095D01*
X4490952Y-5465095D02*
X4490952Y-5425095D01*
X4487143Y-5430810D01*
X4483333Y-5434619D01*
X4479524Y-5436524D01*
X4527143Y-5425095D02*
X4530952Y-5425095D01*
X4534762Y-5427000D01*
X4536667Y-5428905D01*
X4538571Y-5432714D01*
X4540476Y-5440333D01*
X4540476Y-5449857D01*
X4538571Y-5457476D01*
X4536667Y-5461286D01*
X4534762Y-5463190D01*
X4530952Y-5465095D01*
X4527143Y-5465095D01*
X4523333Y-5463190D01*
X4521429Y-5461286D01*
X4519524Y-5457476D01*
X4517619Y-5449857D01*
X4517619Y-5440333D01*
X4519524Y-5432714D01*
X4521429Y-5428905D01*
X4523333Y-5427000D01*
X4527143Y-5425095D01*
X5678185Y-5726757D02*
X5678185Y-5686757D01*
X5678185Y-5705804D02*
X5701042Y-5705804D01*
X5701042Y-5726757D02*
X5701042Y-5686757D01*
X5737233Y-5700090D02*
X5737233Y-5726757D01*
X5727709Y-5684852D02*
X5718185Y-5713423D01*
X5742947Y-5713423D01*
X4103382Y-5726757D02*
X4103382Y-5686757D01*
X4103382Y-5705804D02*
X4126239Y-5705804D01*
X4126239Y-5726757D02*
X4126239Y-5686757D01*
X4141477Y-5686757D02*
X4166239Y-5686757D01*
X4152906Y-5701995D01*
X4158620Y-5701995D01*
X4162430Y-5703900D01*
X4164334Y-5705804D01*
X4166239Y-5709614D01*
X4166239Y-5719138D01*
X4164334Y-5722947D01*
X4162430Y-5724852D01*
X4158620Y-5726757D01*
X4147192Y-5726757D01*
X4143382Y-5724852D01*
X4141477Y-5722947D01*
X5678185Y-4151954D02*
X5678185Y-4111954D01*
X5678185Y-4131001D02*
X5701042Y-4131001D01*
X5701042Y-4151954D02*
X5701042Y-4111954D01*
X5718185Y-4115763D02*
X5720090Y-4113858D01*
X5723900Y-4111954D01*
X5733423Y-4111954D01*
X5737233Y-4113858D01*
X5739138Y-4115763D01*
X5741042Y-4119573D01*
X5741042Y-4123382D01*
X5739138Y-4129096D01*
X5716280Y-4151954D01*
X5741042Y-4151954D01*
X4103382Y-4151954D02*
X4103382Y-4111954D01*
X4103382Y-4131001D02*
X4126239Y-4131001D01*
X4126239Y-4151954D02*
X4126239Y-4111954D01*
X4166239Y-4151954D02*
X4143382Y-4151954D01*
X4154811Y-4151954D02*
X4154811Y-4111954D01*
X4151001Y-4117668D01*
X4147192Y-4121477D01*
X4143382Y-4123382D01*
M02*
