M48
;DRILL file {kicad (2014-jul-16 BZR unknown)-product} date Tue 27 Jan 2015 11:40:30 AM PST
;FORMAT={2:4/ absolute / inch / suppress leading zeros}
FMAT,2
INCH,TZ
T1C0.025
T2C0.030
T3C0.032
T4C0.032
T5C0.039
T6C0.040
T7C0.047
T8C0.050
T9C0.125
%
G90
G05
M72
T1
X40000Y-45250
X40750Y-48000
X41250Y-49000
X41250Y-50250
X42250Y-44750
X44000Y-44750
X44000Y-46750
X44250Y-54000
X44500Y-40250
X45500Y-41000
X45750Y-48250
X46000Y-44750
X46000Y-51250
X46250Y-57750
X46500Y-41250
X47000Y-53750
X47250Y-51750
X47250Y-56000
X47500Y-48000
X48250Y-42000
X49250Y-42000
X49250Y-44750
X50000Y-42500
X50000Y-50500
X50000Y-52250
X50000Y-58250
X50250Y-54750
X50500Y-53500
X51000Y-47000
X51250Y-45000
X51250Y-51250
X51250Y-55250
X51250Y-56250
X51500Y-54250
X52010Y-44010
X53000Y-45750
X53000Y-52250
X53250Y-44000
T2
X44500Y-41250
X44500Y-42250
X50250Y-47250
X50250Y-48250
X51000Y-47750
X52250Y-47750
X53000Y-47250
X53000Y-48250
T3
X40000Y-47500
X40000Y-48500
X44500Y-47500
X44500Y-48500
X45950Y-49250
X46000Y-55000
X46500Y-42250
X46589Y-47650
X46950Y-49250
X47000Y-55000
X47500Y-42250
X48000Y-49250
X48511Y-47650
X49000Y-49250
X50000Y-49500
X51000Y-49500
X52000Y-49500
X53000Y-49500
X54000Y-55250
X54000Y-56250
X54000Y-57250
X54000Y-58250
T4
X40500Y-43250
X40500Y-46250
X41500Y-43250
X41500Y-46250
X42500Y-43250
X42500Y-46250
X43500Y-43250
X43500Y-46250
X44500Y-43250
X44500Y-46250
X45000Y-50750
X45000Y-51750
X45000Y-52750
X45000Y-53750
X45500Y-43250
X45500Y-46250
X46500Y-43250
X46500Y-46250
X47500Y-43250
X47500Y-46250
X48000Y-50750
X48000Y-51750
X48000Y-52750
X48000Y-53750
X48500Y-43250
X48500Y-46250
X49000Y-50750
X49000Y-51750
X49000Y-52750
X49000Y-53750
X49000Y-55250
X49000Y-56250
X49000Y-57250
X49000Y-58250
X49500Y-43250
X49500Y-46250
X50500Y-43250
X50500Y-46250
X51500Y-43250
X51500Y-46250
X52000Y-50750
X52000Y-51750
X52000Y-52750
X52000Y-53750
X52000Y-55250
X52000Y-56250
X52000Y-57250
X52000Y-58250
X52500Y-43250
X52500Y-46250
X53500Y-43250
X53500Y-46250
X55250Y-51750
X55250Y-54750
X56250Y-51750
X56250Y-54750
X57250Y-51750
X57250Y-54750
X58250Y-51750
X58250Y-54750
T5
X41250Y-51250
T6
X40000Y-49750
X40000Y-50750
X40000Y-51750
X40000Y-52750
X40000Y-53750
X40000Y-54750
X42250Y-47250
X42250Y-50250
X43000Y-51750
X43000Y-54750
X43250Y-47250
X43250Y-50250
X43500Y-40000
X43750Y-56250
X43750Y-57250
X43750Y-58250
X44000Y-51750
X44000Y-54750
X45000Y-56250
X45000Y-57250
X45000Y-58250
X46500Y-40000
X48000Y-56250
X48000Y-57250
X48000Y-58250
X48750Y-40000
X48750Y-41000
X49750Y-40000
X49750Y-41000
X50750Y-40000
X50750Y-41000
X53000Y-50750
X53000Y-53750
X53000Y-55250
X53000Y-58250
X54000Y-48750
X54000Y-49750
X54000Y-50750
X54000Y-51750
X54000Y-52750
X54000Y-53750
X56500Y-45000
X56500Y-46000
X56500Y-47000
X56500Y-48000
X56500Y-49000
X57500Y-45000
X57500Y-46000
X57500Y-47000
X57500Y-48000
X57500Y-49000
T7
X52220Y-40250
X54780Y-40250
T8
X41250Y-47250
T9
X41339Y-41339
X41339Y-57087
X57087Y-41339
X57087Y-57087
T0
M30
