%FSLAX36Y36*%
G04 Gerber Fmt 3.6, Leading zero omitted, Abs format (unit inch)*
G04 Created by KiCad (PCBNEW (2014-jul-16 BZR unknown)-product) date Mon 26 Jan 2015 07:29:18 PM PST*
%MOIN*%
G01*
G04 APERTURE LIST*
%ADD10C,0.003937*%
%ADD11C,0.236220*%
%ADD12C,0.059100*%
%ADD13C,0.078700*%
%ADD14R,0.078700X0.078700*%
%ADD15C,0.060000*%
%ADD16R,0.068000X0.068000*%
%ADD17C,0.068000*%
%ADD18R,0.060000X0.060000*%
%ADD19O,0.068000X0.068000*%
%ADD20R,0.055000X0.055000*%
%ADD21C,0.055000*%
%ADD22C,0.035000*%
%ADD23C,0.008000*%
%ADD24C,0.040000*%
%ADD25C,0.010000*%
G04 APERTURE END LIST*
D10*
D11*
X4133858Y-4133858D03*
X5708661Y-4133858D03*
X4133858Y-5708661D03*
X5708661Y-5708661D03*
D12*
X4000000Y-4850000D03*
X4000000Y-4750000D03*
X4695000Y-4925000D03*
X4595000Y-4925000D03*
X5200000Y-4950000D03*
X5300000Y-4950000D03*
X4800000Y-4925000D03*
X4900000Y-4925000D03*
X5000000Y-4950000D03*
X5100000Y-4950000D03*
D13*
X4125000Y-4725000D03*
D14*
X4125000Y-5125000D03*
D15*
X4450000Y-4125000D03*
X4450000Y-4225000D03*
D16*
X4375000Y-5625000D03*
D17*
X4375000Y-5725000D03*
X4375000Y-5825000D03*
D18*
X5650000Y-4500000D03*
D15*
X5750000Y-4500000D03*
X5650000Y-4600000D03*
X5750000Y-4600000D03*
X5650000Y-4700000D03*
X5750000Y-4700000D03*
X5650000Y-4800000D03*
X5750000Y-4800000D03*
X5650000Y-4900000D03*
X5750000Y-4900000D03*
D16*
X4000000Y-5475000D03*
D17*
X4000000Y-5375000D03*
X4000000Y-5275000D03*
X4000000Y-5175000D03*
X4000000Y-5075000D03*
X4000000Y-4975000D03*
D16*
X4875000Y-4100000D03*
D19*
X4875000Y-4000000D03*
X4975000Y-4100000D03*
X4975000Y-4000000D03*
X5075000Y-4100000D03*
X5075000Y-4000000D03*
D14*
X5478000Y-4025000D03*
D13*
X5222000Y-4025000D03*
D12*
X4658900Y-4765000D03*
X4851100Y-4765000D03*
D20*
X4900000Y-5075000D03*
D21*
X4900000Y-5175000D03*
X4900000Y-5275000D03*
X4900000Y-5375000D03*
X5200000Y-5375000D03*
X5200000Y-5275000D03*
X5200000Y-5175000D03*
X5200000Y-5075000D03*
D12*
X4450000Y-4750000D03*
X4450000Y-4850000D03*
X4750000Y-4225000D03*
X4650000Y-4225000D03*
X5400000Y-5725000D03*
X5400000Y-5825000D03*
X5400000Y-5625000D03*
X5400000Y-5525000D03*
D16*
X5400000Y-4875000D03*
D17*
X5400000Y-4975000D03*
X5400000Y-5075000D03*
X5400000Y-5175000D03*
X5400000Y-5275000D03*
X5400000Y-5375000D03*
D21*
X4150000Y-4625000D03*
X4250000Y-4625000D03*
X4350000Y-4625000D03*
X4450000Y-4625000D03*
X4550000Y-4625000D03*
X4650000Y-4625000D03*
X4750000Y-4625000D03*
X4850000Y-4625000D03*
X4950000Y-4625000D03*
X5050000Y-4625000D03*
X5150000Y-4625000D03*
X5250000Y-4625000D03*
X5350000Y-4625000D03*
D20*
X4050000Y-4625000D03*
D21*
X5350000Y-4325000D03*
X5250000Y-4325000D03*
X5150000Y-4325000D03*
X5050000Y-4325000D03*
X4950000Y-4325000D03*
X4850000Y-4325000D03*
X4750000Y-4325000D03*
X4650000Y-4325000D03*
X4550000Y-4325000D03*
X4450000Y-4325000D03*
X4350000Y-4325000D03*
X4250000Y-4325000D03*
X4150000Y-4325000D03*
X4050000Y-4325000D03*
D20*
X4900000Y-5525000D03*
D21*
X4900000Y-5625000D03*
X4900000Y-5725000D03*
X4900000Y-5825000D03*
X5200000Y-5825000D03*
X5200000Y-5725000D03*
X5200000Y-5625000D03*
X5200000Y-5525000D03*
D20*
X5525000Y-5475000D03*
D21*
X5625000Y-5475000D03*
X5725000Y-5475000D03*
X5825000Y-5475000D03*
X5825000Y-5175000D03*
X5725000Y-5175000D03*
X5625000Y-5175000D03*
X5525000Y-5175000D03*
D15*
X5300000Y-4825000D03*
X5225000Y-4775000D03*
X5300000Y-4725000D03*
D20*
X4500000Y-5075000D03*
D21*
X4500000Y-5175000D03*
X4500000Y-5275000D03*
X4500000Y-5375000D03*
X4800000Y-5375000D03*
X4800000Y-5275000D03*
X4800000Y-5175000D03*
X4800000Y-5075000D03*
D15*
X5025000Y-4725000D03*
X5100000Y-4775000D03*
X5025000Y-4825000D03*
D19*
X4225000Y-4725000D03*
X4225000Y-5025000D03*
X4400000Y-5175000D03*
X4400000Y-5475000D03*
X4325000Y-5025000D03*
X4325000Y-4725000D03*
X4300000Y-5175000D03*
X4300000Y-5475000D03*
X4800000Y-5825000D03*
X4500000Y-5825000D03*
X4500000Y-5725000D03*
X4800000Y-5725000D03*
X4500000Y-5625000D03*
X4800000Y-5625000D03*
X4350000Y-4000000D03*
X4650000Y-4000000D03*
X5300000Y-5825000D03*
X5300000Y-5525000D03*
X5300000Y-5075000D03*
X5300000Y-5375000D03*
D12*
X4600000Y-5500000D03*
X4700000Y-5500000D03*
D22*
X5100000Y-4700000D03*
X4400000Y-4475000D03*
X4400000Y-4675000D03*
X4750000Y-4800000D03*
X4575000Y-4825000D03*
X4700000Y-5375000D03*
X4725000Y-5175000D03*
X5000000Y-5050000D03*
X5125000Y-5125000D03*
X5050000Y-5350000D03*
X4925000Y-4200000D03*
X5000000Y-4250000D03*
X4825000Y-4200000D03*
X4450000Y-4025000D03*
X4550000Y-4100000D03*
X4125000Y-5025000D03*
X4000000Y-4525000D03*
X4075000Y-4800000D03*
X4125000Y-4900000D03*
X4425000Y-5400000D03*
X4625000Y-5775000D03*
X5000000Y-5825000D03*
X4925000Y-4475000D03*
X5325000Y-4400000D03*
X5200958Y-4400958D03*
X5125000Y-4500000D03*
X4600000Y-4475000D03*
X4225000Y-4475000D03*
X5000000Y-5225000D03*
X4600000Y-5125000D03*
X4650000Y-4125000D03*
X5300000Y-5225000D03*
X5150000Y-5425000D03*
X5125000Y-5625000D03*
X5125000Y-5525000D03*
X5025000Y-5475000D03*
X4725000Y-5600000D03*
X5300000Y-4575000D03*
D23*
X4400000Y-4475000D02*
X4400000Y-4675000D01*
X4750000Y-5025000D02*
X4750000Y-4800000D01*
X4800000Y-5075000D02*
X4750000Y-5025000D01*
D24*
X4700000Y-5200000D02*
X4700000Y-5375000D01*
X4700000Y-5200000D02*
X4725000Y-5175000D01*
D23*
X5150000Y-5000000D02*
X5150000Y-5025000D01*
X5150000Y-5025000D02*
X5125000Y-5050000D01*
X5125000Y-5050000D02*
X5125000Y-5125000D01*
X5100000Y-4950000D02*
X5150000Y-5000000D01*
X4125000Y-5025000D02*
X4125000Y-4900000D01*
X3975000Y-4550000D02*
X4000000Y-4525000D01*
X3975000Y-4650000D02*
X3975000Y-4550000D01*
X4050000Y-4725000D02*
X3975000Y-4650000D01*
X4050000Y-4775000D02*
X4050000Y-4725000D01*
X4075000Y-4800000D02*
X4050000Y-4775000D01*
X4300000Y-5175000D02*
X4300000Y-5275000D01*
X4300000Y-5275000D02*
X4425000Y-5400000D01*
X4575000Y-5725000D02*
X4625000Y-5775000D01*
X4500000Y-5725000D02*
X4575000Y-5725000D01*
D24*
X5125000Y-4476917D02*
X5200958Y-4400958D01*
X5125000Y-4500000D02*
X5125000Y-4476917D01*
X4600000Y-4375000D02*
X4600000Y-4475000D01*
X4600000Y-4375000D02*
X4650000Y-4325000D01*
D23*
X4000000Y-4975000D02*
X4000000Y-4850000D01*
X4658900Y-4765000D02*
X4710000Y-4765000D01*
X4710000Y-4765000D02*
X4850000Y-4625000D01*
X4695000Y-4925000D02*
X4695000Y-4801100D01*
X4695000Y-4801100D02*
X4658900Y-4765000D01*
X4851100Y-4765000D02*
X4851100Y-4723900D01*
X4851100Y-4723900D02*
X4950000Y-4625000D01*
X4800000Y-4925000D02*
X4800000Y-4816100D01*
X4800000Y-4816100D02*
X4851100Y-4765000D01*
X4500000Y-5275000D02*
X4500000Y-5300000D01*
X4500000Y-5300000D02*
X4650000Y-5450000D01*
D24*
X5000000Y-4950000D02*
X5000000Y-4850000D01*
X5000000Y-4850000D02*
X5025000Y-4825000D01*
D23*
X4650000Y-5450000D02*
X4650000Y-5675000D01*
X4900000Y-5725000D02*
X4850000Y-5775000D01*
X4850000Y-5775000D02*
X4750000Y-5775000D01*
X4750000Y-5775000D02*
X4650000Y-5675000D01*
X4850000Y-5225000D02*
X4800000Y-5275000D01*
X5000000Y-5225000D02*
X4850000Y-5225000D01*
X4750000Y-5125000D02*
X4800000Y-5175000D01*
X4600000Y-5125000D02*
X4750000Y-5125000D01*
X4325000Y-4725000D02*
X4250000Y-4800000D01*
X4050000Y-4925000D02*
X4050000Y-5125000D01*
X4175000Y-4800000D02*
X4050000Y-4925000D01*
X4250000Y-4800000D02*
X4175000Y-4800000D01*
X4000000Y-5175000D02*
X4050000Y-5125000D01*
X5050000Y-4325000D02*
X5000000Y-4375000D01*
X4875000Y-4200000D02*
X4875000Y-4100000D01*
X4900000Y-4225000D02*
X4875000Y-4200000D01*
X4900000Y-4350000D02*
X4900000Y-4225000D01*
X4925000Y-4375000D02*
X4900000Y-4350000D01*
X5000000Y-4375000D02*
X4925000Y-4375000D01*
X4950000Y-4325000D02*
X4950000Y-4250000D01*
X4975000Y-4225000D02*
X4975000Y-4100000D01*
X4950000Y-4250000D02*
X4975000Y-4225000D01*
X5150000Y-4325000D02*
X5025000Y-4200000D01*
X5025000Y-4050000D02*
X4975000Y-4000000D01*
X5025000Y-4200000D02*
X5025000Y-4050000D01*
X4500000Y-5375000D02*
X4350000Y-5225000D01*
X4325000Y-5100000D02*
X4325000Y-5025000D01*
X4350000Y-5125000D02*
X4325000Y-5100000D01*
X4350000Y-5225000D02*
X4350000Y-5125000D01*
X4600000Y-4175000D02*
X4375000Y-4175000D01*
X4650000Y-4125000D02*
X4600000Y-4175000D01*
X4225000Y-4725000D02*
X4300000Y-4650000D01*
X4300000Y-4250000D02*
X4375000Y-4175000D01*
X4300000Y-4650000D02*
X4300000Y-4250000D01*
X4125000Y-4725000D02*
X4125000Y-4700000D01*
X4125000Y-4700000D02*
X4050000Y-4625000D01*
X5200000Y-5075000D02*
X5200000Y-4950000D01*
X5200000Y-4950000D02*
X5200000Y-4850000D01*
X5200000Y-4725000D02*
X5300000Y-4725000D01*
X5175000Y-4750000D02*
X5200000Y-4725000D01*
X5175000Y-4800000D02*
X5175000Y-4750000D01*
X5200000Y-4825000D02*
X5175000Y-4800000D01*
X5200000Y-4850000D02*
X5200000Y-4825000D01*
D24*
X4750000Y-4325000D02*
X4750000Y-4225000D01*
X4650000Y-4625000D02*
X4650000Y-4550000D01*
X4750000Y-4450000D02*
X4750000Y-4325000D01*
X4650000Y-4550000D02*
X4750000Y-4450000D01*
X4600000Y-5500000D02*
X4550000Y-5550000D01*
X4125000Y-5400000D02*
X4125000Y-5125000D01*
X4275000Y-5550000D02*
X4125000Y-5400000D01*
X4550000Y-5550000D02*
X4275000Y-5550000D01*
X4125000Y-5125000D02*
X4225000Y-5025000D01*
X4225000Y-5025000D02*
X4225000Y-4925000D01*
X4400000Y-4750000D02*
X4450000Y-4750000D01*
X4225000Y-4925000D02*
X4400000Y-4750000D01*
X4875000Y-4000000D02*
X4800000Y-4000000D01*
X4800000Y-4000000D02*
X4750000Y-4050000D01*
X4750000Y-4050000D02*
X4750000Y-4225000D01*
D23*
X5300000Y-5525000D02*
X5350000Y-5575000D01*
X5350000Y-5675000D02*
X5400000Y-5725000D01*
X5350000Y-5575000D02*
X5350000Y-5675000D01*
X5125000Y-5450000D02*
X5150000Y-5425000D01*
X5125000Y-5525000D02*
X5125000Y-5625000D01*
X5125000Y-5750000D02*
X5125000Y-5625000D01*
X5200000Y-5825000D02*
X5125000Y-5750000D01*
X5125000Y-5525000D02*
X5125000Y-5450000D01*
X5500000Y-5225000D02*
X5450000Y-5275000D01*
X5400000Y-5175000D02*
X5450000Y-5175000D01*
X5450000Y-5175000D02*
X5500000Y-5225000D01*
X5450000Y-5275000D02*
X5450000Y-5575000D01*
X5450000Y-5575000D02*
X5400000Y-5625000D01*
X5500000Y-5225000D02*
X5675000Y-5225000D01*
X5675000Y-5225000D02*
X5725000Y-5175000D01*
X5400000Y-5525000D02*
X5350000Y-5475000D01*
X5350000Y-5325000D02*
X5400000Y-5275000D01*
X5350000Y-5475000D02*
X5350000Y-5325000D01*
X4650000Y-5250000D02*
X4650000Y-5400000D01*
X4700000Y-5450000D02*
X4725000Y-5450000D01*
X4650000Y-5400000D02*
X4700000Y-5450000D01*
X4675000Y-5600000D02*
X4675000Y-5575000D01*
X4800000Y-5725000D02*
X4675000Y-5600000D01*
X4675000Y-5575000D02*
X4700000Y-5550000D01*
X4700000Y-5550000D02*
X4725000Y-5550000D01*
X4725000Y-5550000D02*
X4750000Y-5525000D01*
X4750000Y-5525000D02*
X4750000Y-5475000D01*
X4750000Y-5475000D02*
X4725000Y-5450000D01*
X4550000Y-4425000D02*
X4550000Y-4325000D01*
X4500000Y-4475000D02*
X4550000Y-4425000D01*
X4500000Y-4825000D02*
X4500000Y-4475000D01*
X4550000Y-4875000D02*
X4500000Y-4825000D01*
X4550000Y-5150000D02*
X4550000Y-4875000D01*
X4650000Y-5250000D02*
X4550000Y-5150000D01*
X5200000Y-5175000D02*
X5100000Y-5175000D01*
X5000000Y-5325000D02*
X4775000Y-5325000D01*
X5075000Y-5250000D02*
X5000000Y-5325000D01*
X5075000Y-5200000D02*
X5075000Y-5250000D01*
X5100000Y-5175000D02*
X5075000Y-5200000D01*
X4725000Y-5600000D02*
X4775000Y-5550000D01*
X4775000Y-5325000D02*
X4750000Y-5350000D01*
X4750000Y-5350000D02*
X4750000Y-5400000D01*
X4775000Y-5550000D02*
X4775000Y-5425000D01*
X4775000Y-5425000D02*
X4750000Y-5400000D01*
X5400000Y-4975000D02*
X5350000Y-4925000D01*
X5300000Y-4650000D02*
X5300000Y-4575000D01*
X5350000Y-4700000D02*
X5300000Y-4650000D01*
X5350000Y-4925000D02*
X5350000Y-4700000D01*
X5200000Y-5525000D02*
X5200000Y-5450000D01*
X5200000Y-5450000D02*
X5250000Y-5400000D01*
X5250000Y-5225000D02*
X5400000Y-5075000D01*
X5250000Y-5400000D02*
X5250000Y-5225000D01*
X4800000Y-5625000D02*
X4825000Y-5600000D01*
X4825000Y-5600000D02*
X4825000Y-5450000D01*
X4825000Y-5450000D02*
X4900000Y-5375000D01*
X4150000Y-4325000D02*
X4350000Y-4125000D01*
X4350000Y-4125000D02*
X4350000Y-4000000D01*
X5300000Y-5375000D02*
X5300000Y-5400000D01*
X5300000Y-5400000D02*
X5250000Y-5450000D01*
X5300000Y-5625000D02*
X5300000Y-5825000D01*
X5250000Y-5575000D02*
X5300000Y-5625000D01*
X5250000Y-5450000D02*
X5250000Y-5575000D01*
X4900000Y-5075000D02*
X4900000Y-5025000D01*
X5300000Y-4275000D02*
X5350000Y-4325000D01*
X5225000Y-4275000D02*
X5300000Y-4275000D01*
X5200000Y-4300000D02*
X5225000Y-4275000D01*
X5200000Y-4350000D02*
X5200000Y-4300000D01*
X5000000Y-4550000D02*
X5200000Y-4350000D01*
X5000000Y-4650000D02*
X5000000Y-4550000D01*
X4950000Y-4700000D02*
X5000000Y-4650000D01*
X4950000Y-4975000D02*
X4950000Y-4700000D01*
X4900000Y-5025000D02*
X4950000Y-4975000D01*
X4900000Y-5275000D02*
X5000000Y-5275000D01*
X5250000Y-4400000D02*
X5250000Y-4325000D01*
X5200000Y-4450000D02*
X5250000Y-4400000D01*
X5200000Y-4650000D02*
X5200000Y-4450000D01*
X5150000Y-4700000D02*
X5200000Y-4650000D01*
X5150000Y-4825000D02*
X5150000Y-4700000D01*
X5050000Y-4925000D02*
X5150000Y-4825000D01*
X5050000Y-5225000D02*
X5050000Y-4925000D01*
X5000000Y-5275000D02*
X5050000Y-5225000D01*
X5200000Y-5625000D02*
X5200000Y-5725000D01*
D25*
G36*
X5274247Y-5878543D02*
X5234536Y-5878543D01*
X5236643Y-5877136D01*
X5238159Y-5864573D01*
X5200000Y-5826414D01*
X5198586Y-5827828D01*
X5198586Y-5825000D01*
X5160427Y-5786841D01*
X5147864Y-5788357D01*
X5137810Y-5811098D01*
X5137224Y-5835955D01*
X5146195Y-5859145D01*
X5147864Y-5861643D01*
X5160427Y-5863159D01*
X5198586Y-5825000D01*
X5198586Y-5827828D01*
X5161841Y-5864573D01*
X5163357Y-5877136D01*
X5166541Y-5878543D01*
X5123458Y-5878543D01*
X5123102Y-5670015D01*
X4929813Y-5669421D01*
X4944481Y-5654778D01*
X4952491Y-5635489D01*
X4952509Y-5614603D01*
X4944533Y-5595300D01*
X4929778Y-5580519D01*
X4922508Y-5577500D01*
X4932473Y-5577500D01*
X4941661Y-5573694D01*
X4948694Y-5566661D01*
X4952500Y-5557473D01*
X4952500Y-5547527D01*
X4952500Y-5492527D01*
X4948694Y-5483339D01*
X4941661Y-5476306D01*
X4932473Y-5472500D01*
X4922527Y-5472500D01*
X4867527Y-5472500D01*
X4867205Y-5472634D01*
X4867205Y-5448807D01*
X4868296Y-5447717D01*
X5123101Y-5447717D01*
X5123495Y-5226850D01*
X5179052Y-5226850D01*
X5170300Y-5230467D01*
X5155519Y-5245222D01*
X5147509Y-5264511D01*
X5147491Y-5285397D01*
X5155467Y-5304700D01*
X5170222Y-5319481D01*
X5183521Y-5325004D01*
X5170300Y-5330467D01*
X5155519Y-5345222D01*
X5147509Y-5364511D01*
X5147491Y-5385397D01*
X5155467Y-5404700D01*
X5170222Y-5419481D01*
X5183848Y-5425139D01*
X5179494Y-5429494D01*
X5173207Y-5438902D01*
X5171000Y-5450000D01*
X5171000Y-5480177D01*
X5170300Y-5480467D01*
X5155519Y-5495222D01*
X5147509Y-5514511D01*
X5147491Y-5535397D01*
X5155467Y-5554700D01*
X5170222Y-5569481D01*
X5183521Y-5575004D01*
X5170300Y-5580467D01*
X5155519Y-5595222D01*
X5147509Y-5614511D01*
X5147491Y-5635397D01*
X5155467Y-5654700D01*
X5170222Y-5669481D01*
X5171000Y-5669804D01*
X5171000Y-5680177D01*
X5170300Y-5680467D01*
X5155519Y-5695222D01*
X5147509Y-5714511D01*
X5147491Y-5735397D01*
X5155467Y-5754700D01*
X5170222Y-5769481D01*
X5170253Y-5769494D01*
X5165855Y-5771195D01*
X5163357Y-5772864D01*
X5161841Y-5785427D01*
X5200000Y-5823586D01*
X5238159Y-5785427D01*
X5236643Y-5772864D01*
X5229394Y-5769660D01*
X5229700Y-5769533D01*
X5244481Y-5754778D01*
X5252491Y-5735489D01*
X5252509Y-5714603D01*
X5244533Y-5695300D01*
X5229778Y-5680519D01*
X5229000Y-5680196D01*
X5229000Y-5669823D01*
X5229700Y-5669533D01*
X5244481Y-5654778D01*
X5252491Y-5635489D01*
X5252506Y-5618518D01*
X5271000Y-5637012D01*
X5271000Y-5773626D01*
X5258281Y-5782125D01*
X5253126Y-5789839D01*
X5252136Y-5788357D01*
X5239573Y-5786841D01*
X5201414Y-5825000D01*
X5239573Y-5863159D01*
X5252136Y-5861643D01*
X5252924Y-5859859D01*
X5258281Y-5867875D01*
X5274247Y-5878543D01*
X5274247Y-5878543D01*
G37*
X5274247Y-5878543D02*
X5234536Y-5878543D01*
X5236643Y-5877136D01*
X5238159Y-5864573D01*
X5200000Y-5826414D01*
X5198586Y-5827828D01*
X5198586Y-5825000D01*
X5160427Y-5786841D01*
X5147864Y-5788357D01*
X5137810Y-5811098D01*
X5137224Y-5835955D01*
X5146195Y-5859145D01*
X5147864Y-5861643D01*
X5160427Y-5863159D01*
X5198586Y-5825000D01*
X5198586Y-5827828D01*
X5161841Y-5864573D01*
X5163357Y-5877136D01*
X5166541Y-5878543D01*
X5123458Y-5878543D01*
X5123102Y-5670015D01*
X4929813Y-5669421D01*
X4944481Y-5654778D01*
X4952491Y-5635489D01*
X4952509Y-5614603D01*
X4944533Y-5595300D01*
X4929778Y-5580519D01*
X4922508Y-5577500D01*
X4932473Y-5577500D01*
X4941661Y-5573694D01*
X4948694Y-5566661D01*
X4952500Y-5557473D01*
X4952500Y-5547527D01*
X4952500Y-5492527D01*
X4948694Y-5483339D01*
X4941661Y-5476306D01*
X4932473Y-5472500D01*
X4922527Y-5472500D01*
X4867527Y-5472500D01*
X4867205Y-5472634D01*
X4867205Y-5448807D01*
X4868296Y-5447717D01*
X5123101Y-5447717D01*
X5123495Y-5226850D01*
X5179052Y-5226850D01*
X5170300Y-5230467D01*
X5155519Y-5245222D01*
X5147509Y-5264511D01*
X5147491Y-5285397D01*
X5155467Y-5304700D01*
X5170222Y-5319481D01*
X5183521Y-5325004D01*
X5170300Y-5330467D01*
X5155519Y-5345222D01*
X5147509Y-5364511D01*
X5147491Y-5385397D01*
X5155467Y-5404700D01*
X5170222Y-5419481D01*
X5183848Y-5425139D01*
X5179494Y-5429494D01*
X5173207Y-5438902D01*
X5171000Y-5450000D01*
X5171000Y-5480177D01*
X5170300Y-5480467D01*
X5155519Y-5495222D01*
X5147509Y-5514511D01*
X5147491Y-5535397D01*
X5155467Y-5554700D01*
X5170222Y-5569481D01*
X5183521Y-5575004D01*
X5170300Y-5580467D01*
X5155519Y-5595222D01*
X5147509Y-5614511D01*
X5147491Y-5635397D01*
X5155467Y-5654700D01*
X5170222Y-5669481D01*
X5171000Y-5669804D01*
X5171000Y-5680177D01*
X5170300Y-5680467D01*
X5155519Y-5695222D01*
X5147509Y-5714511D01*
X5147491Y-5735397D01*
X5155467Y-5754700D01*
X5170222Y-5769481D01*
X5170253Y-5769494D01*
X5165855Y-5771195D01*
X5163357Y-5772864D01*
X5161841Y-5785427D01*
X5200000Y-5823586D01*
X5238159Y-5785427D01*
X5236643Y-5772864D01*
X5229394Y-5769660D01*
X5229700Y-5769533D01*
X5244481Y-5754778D01*
X5252491Y-5735489D01*
X5252509Y-5714603D01*
X5244533Y-5695300D01*
X5229778Y-5680519D01*
X5229000Y-5680196D01*
X5229000Y-5669823D01*
X5229700Y-5669533D01*
X5244481Y-5654778D01*
X5252491Y-5635489D01*
X5252506Y-5618518D01*
X5271000Y-5637012D01*
X5271000Y-5773626D01*
X5258281Y-5782125D01*
X5253126Y-5789839D01*
X5252136Y-5788357D01*
X5239573Y-5786841D01*
X5201414Y-5825000D01*
X5239573Y-5863159D01*
X5252136Y-5861643D01*
X5252924Y-5859859D01*
X5258281Y-5867875D01*
X5274247Y-5878543D01*
G36*
X5301787Y-5076000D02*
X5301000Y-5076000D01*
X5301000Y-5076787D01*
X5299000Y-5076787D01*
X5299000Y-5076000D01*
X5298213Y-5076000D01*
X5298213Y-5074000D01*
X5299000Y-5074000D01*
X5299000Y-5073213D01*
X5301000Y-5073213D01*
X5301000Y-5074000D01*
X5301787Y-5074000D01*
X5301787Y-5076000D01*
X5301787Y-5076000D01*
G37*
X5301787Y-5076000D02*
X5301000Y-5076000D01*
X5301000Y-5076787D01*
X5299000Y-5076787D01*
X5299000Y-5076000D01*
X5298213Y-5076000D01*
X5298213Y-5074000D01*
X5299000Y-5074000D01*
X5299000Y-5073213D01*
X5301000Y-5073213D01*
X5301000Y-5074000D01*
X5301787Y-5074000D01*
X5301787Y-5076000D01*
G36*
X5366572Y-5225004D02*
X5350011Y-5241536D01*
X5341010Y-5263213D01*
X5340990Y-5286684D01*
X5342836Y-5291152D01*
X5329494Y-5304494D01*
X5323207Y-5313902D01*
X5322144Y-5319249D01*
X5300000Y-5314844D01*
X5279000Y-5319021D01*
X5279000Y-5237012D01*
X5341000Y-5175012D01*
X5340990Y-5186684D01*
X5349953Y-5208377D01*
X5366536Y-5224989D01*
X5366572Y-5225004D01*
X5366572Y-5225004D01*
G37*
X5366572Y-5225004D02*
X5350011Y-5241536D01*
X5341010Y-5263213D01*
X5340990Y-5286684D01*
X5342836Y-5291152D01*
X5329494Y-5304494D01*
X5323207Y-5313902D01*
X5322144Y-5319249D01*
X5300000Y-5314844D01*
X5279000Y-5319021D01*
X5279000Y-5237012D01*
X5341000Y-5175012D01*
X5340990Y-5186684D01*
X5349953Y-5208377D01*
X5366536Y-5224989D01*
X5366572Y-5225004D01*
G36*
X5401971Y-5375557D02*
X5400557Y-5376971D01*
X5400000Y-5376414D01*
X5399443Y-5376971D01*
X5398029Y-5375557D01*
X5398586Y-5375000D01*
X5398029Y-5374443D01*
X5399443Y-5373029D01*
X5400000Y-5373586D01*
X5400557Y-5373029D01*
X5401971Y-5374443D01*
X5401414Y-5375000D01*
X5401971Y-5375557D01*
X5401971Y-5375557D01*
G37*
X5401971Y-5375557D02*
X5400557Y-5376971D01*
X5400000Y-5376414D01*
X5399443Y-5376971D01*
X5398029Y-5375557D01*
X5398586Y-5375000D01*
X5398029Y-5374443D01*
X5399443Y-5373029D01*
X5400000Y-5373586D01*
X5400557Y-5373029D01*
X5401971Y-5374443D01*
X5401414Y-5375000D01*
X5401971Y-5375557D01*
G36*
X5878543Y-5878543D02*
X5863159Y-5878543D01*
X5863159Y-5514573D01*
X5825000Y-5476414D01*
X5786841Y-5514573D01*
X5788357Y-5527136D01*
X5811098Y-5537190D01*
X5835955Y-5537776D01*
X5859145Y-5528805D01*
X5861643Y-5527136D01*
X5863159Y-5514573D01*
X5863159Y-5878543D01*
X5851796Y-5878543D01*
X5851796Y-5680320D01*
X5830055Y-5627702D01*
X5789833Y-5587409D01*
X5737253Y-5565576D01*
X5680320Y-5565526D01*
X5627702Y-5587268D01*
X5587409Y-5627490D01*
X5565576Y-5680070D01*
X5565526Y-5737003D01*
X5587268Y-5789621D01*
X5627490Y-5829914D01*
X5680070Y-5851747D01*
X5737003Y-5851796D01*
X5789621Y-5830055D01*
X5829914Y-5789833D01*
X5851747Y-5737253D01*
X5851796Y-5680320D01*
X5851796Y-5878543D01*
X5464840Y-5878543D01*
X5464840Y-5813718D01*
X5455587Y-5789763D01*
X5453827Y-5787129D01*
X5441052Y-5785363D01*
X5401414Y-5825000D01*
X5441052Y-5864637D01*
X5453827Y-5862871D01*
X5464222Y-5839390D01*
X5464840Y-5813718D01*
X5464840Y-5878543D01*
X5437911Y-5878543D01*
X5439637Y-5866052D01*
X5400000Y-5826414D01*
X5360363Y-5866052D01*
X5362089Y-5878543D01*
X5325753Y-5878543D01*
X5341719Y-5867875D01*
X5345618Y-5862040D01*
X5346173Y-5862871D01*
X5358948Y-5864637D01*
X5398586Y-5825000D01*
X5358948Y-5785363D01*
X5346173Y-5787129D01*
X5345731Y-5788128D01*
X5341719Y-5782125D01*
X5329000Y-5773626D01*
X5329000Y-5694767D01*
X5329494Y-5695506D01*
X5346231Y-5712243D01*
X5345459Y-5714102D01*
X5345441Y-5735803D01*
X5353728Y-5755860D01*
X5366563Y-5768718D01*
X5364763Y-5769413D01*
X5362129Y-5771173D01*
X5360363Y-5783948D01*
X5400000Y-5823586D01*
X5439637Y-5783948D01*
X5437871Y-5771173D01*
X5433083Y-5769053D01*
X5446218Y-5755940D01*
X5454541Y-5735898D01*
X5454559Y-5714197D01*
X5446272Y-5694140D01*
X5430940Y-5678782D01*
X5421835Y-5675001D01*
X5430860Y-5671272D01*
X5446218Y-5655940D01*
X5454541Y-5635898D01*
X5454559Y-5614197D01*
X5453757Y-5612255D01*
X5470506Y-5595506D01*
X5476793Y-5586098D01*
X5479000Y-5575000D01*
X5479000Y-5519355D01*
X5483339Y-5523694D01*
X5492527Y-5527500D01*
X5502473Y-5527500D01*
X5557473Y-5527500D01*
X5566661Y-5523694D01*
X5573694Y-5516661D01*
X5577500Y-5507473D01*
X5577500Y-5497527D01*
X5577500Y-5497520D01*
X5580467Y-5504700D01*
X5595222Y-5519481D01*
X5614511Y-5527491D01*
X5635397Y-5527509D01*
X5654700Y-5519533D01*
X5669481Y-5504778D01*
X5675004Y-5491478D01*
X5680467Y-5504700D01*
X5695222Y-5519481D01*
X5714511Y-5527491D01*
X5735397Y-5527509D01*
X5754700Y-5519533D01*
X5769481Y-5504778D01*
X5769494Y-5504747D01*
X5771195Y-5509145D01*
X5772864Y-5511643D01*
X5785427Y-5513159D01*
X5823586Y-5475000D01*
X5785427Y-5436841D01*
X5772864Y-5438357D01*
X5769660Y-5445606D01*
X5769533Y-5445300D01*
X5754778Y-5430519D01*
X5735489Y-5422509D01*
X5714603Y-5422491D01*
X5695300Y-5430467D01*
X5680519Y-5445222D01*
X5674996Y-5458521D01*
X5669533Y-5445300D01*
X5654778Y-5430519D01*
X5635489Y-5422509D01*
X5614603Y-5422491D01*
X5595300Y-5430467D01*
X5580519Y-5445222D01*
X5577500Y-5452492D01*
X5577500Y-5442527D01*
X5573694Y-5433339D01*
X5566661Y-5426306D01*
X5557473Y-5422500D01*
X5547527Y-5422500D01*
X5492527Y-5422500D01*
X5483339Y-5426306D01*
X5479000Y-5430645D01*
X5479000Y-5287012D01*
X5512012Y-5254000D01*
X5675000Y-5254000D01*
X5686098Y-5251793D01*
X5695506Y-5245506D01*
X5713812Y-5227200D01*
X5714511Y-5227491D01*
X5735397Y-5227509D01*
X5754700Y-5219533D01*
X5769481Y-5204778D01*
X5775004Y-5191478D01*
X5780467Y-5204700D01*
X5795222Y-5219481D01*
X5814511Y-5227491D01*
X5835397Y-5227509D01*
X5854700Y-5219533D01*
X5869481Y-5204778D01*
X5877491Y-5185489D01*
X5877509Y-5164603D01*
X5869533Y-5145300D01*
X5854778Y-5130519D01*
X5835489Y-5122509D01*
X5815294Y-5122491D01*
X5815294Y-4788646D01*
X5805978Y-4764524D01*
X5804198Y-4761859D01*
X5791376Y-4760038D01*
X5751414Y-4800000D01*
X5791376Y-4839962D01*
X5804198Y-4838141D01*
X5814668Y-4814497D01*
X5815294Y-4788646D01*
X5815294Y-5122491D01*
X5814603Y-5122491D01*
X5805010Y-5126455D01*
X5805010Y-4889108D01*
X5796654Y-4868886D01*
X5784244Y-4856454D01*
X5785476Y-4855978D01*
X5788141Y-4854198D01*
X5789962Y-4841376D01*
X5750000Y-4801414D01*
X5748586Y-4802828D01*
X5748586Y-4800000D01*
X5708624Y-4760038D01*
X5700000Y-4761263D01*
X5691376Y-4760038D01*
X5651414Y-4800000D01*
X5691376Y-4839962D01*
X5700000Y-4838737D01*
X5708624Y-4839962D01*
X5748586Y-4800000D01*
X5748586Y-4802828D01*
X5710038Y-4841376D01*
X5711859Y-4854198D01*
X5716135Y-4856092D01*
X5703400Y-4868804D01*
X5700002Y-4876989D01*
X5696654Y-4868886D01*
X5684244Y-4856454D01*
X5685476Y-4855978D01*
X5688141Y-4854198D01*
X5689962Y-4841376D01*
X5650000Y-4801414D01*
X5648586Y-4802828D01*
X5648586Y-4800000D01*
X5608624Y-4760038D01*
X5595802Y-4761859D01*
X5585332Y-4785503D01*
X5584706Y-4811354D01*
X5594022Y-4835476D01*
X5595802Y-4838141D01*
X5608624Y-4839962D01*
X5648586Y-4800000D01*
X5648586Y-4802828D01*
X5610038Y-4841376D01*
X5611859Y-4854198D01*
X5616135Y-4856092D01*
X5603400Y-4868804D01*
X5595010Y-4889012D01*
X5594990Y-4910892D01*
X5603346Y-4931114D01*
X5618804Y-4946600D01*
X5639012Y-4954990D01*
X5660892Y-4955010D01*
X5681114Y-4946654D01*
X5696600Y-4931196D01*
X5699998Y-4923011D01*
X5703346Y-4931114D01*
X5718804Y-4946600D01*
X5739012Y-4954990D01*
X5760892Y-4955010D01*
X5781114Y-4946654D01*
X5796600Y-4931196D01*
X5804990Y-4910988D01*
X5805010Y-4889108D01*
X5805010Y-5126455D01*
X5795300Y-5130467D01*
X5780519Y-5145222D01*
X5774996Y-5158521D01*
X5769533Y-5145300D01*
X5754778Y-5130519D01*
X5735489Y-5122509D01*
X5714603Y-5122491D01*
X5695300Y-5130467D01*
X5680519Y-5145222D01*
X5674996Y-5158521D01*
X5669533Y-5145300D01*
X5654778Y-5130519D01*
X5635489Y-5122509D01*
X5614603Y-5122491D01*
X5595300Y-5130467D01*
X5580519Y-5145222D01*
X5574996Y-5158521D01*
X5569533Y-5145300D01*
X5554778Y-5130519D01*
X5535489Y-5122509D01*
X5514603Y-5122491D01*
X5495300Y-5130467D01*
X5480519Y-5145222D01*
X5474861Y-5158848D01*
X5470506Y-5154494D01*
X5461098Y-5148207D01*
X5452022Y-5146402D01*
X5450047Y-5141623D01*
X5433464Y-5125011D01*
X5433428Y-5124996D01*
X5449989Y-5108464D01*
X5458990Y-5086787D01*
X5459010Y-5063316D01*
X5450047Y-5041623D01*
X5443257Y-5034821D01*
X5512874Y-5034717D01*
X5512874Y-4748898D01*
X5611419Y-4748898D01*
X5610038Y-4758624D01*
X5650000Y-4798586D01*
X5689962Y-4758624D01*
X5688581Y-4748898D01*
X5711419Y-4748898D01*
X5710038Y-4758624D01*
X5750000Y-4798586D01*
X5789962Y-4758624D01*
X5788581Y-4748898D01*
X5878543Y-4748898D01*
X5878543Y-5440464D01*
X5877136Y-5438357D01*
X5864573Y-5436841D01*
X5863159Y-5438255D01*
X5863159Y-5435427D01*
X5861643Y-5422864D01*
X5838902Y-5412810D01*
X5814045Y-5412224D01*
X5790855Y-5421195D01*
X5788357Y-5422864D01*
X5786841Y-5435427D01*
X5825000Y-5473586D01*
X5863159Y-5435427D01*
X5863159Y-5438255D01*
X5826414Y-5475000D01*
X5864573Y-5513159D01*
X5877136Y-5511643D01*
X5878543Y-5508459D01*
X5878543Y-5878543D01*
X5878543Y-5878543D01*
G37*
X5878543Y-5878543D02*
X5863159Y-5878543D01*
X5863159Y-5514573D01*
X5825000Y-5476414D01*
X5786841Y-5514573D01*
X5788357Y-5527136D01*
X5811098Y-5537190D01*
X5835955Y-5537776D01*
X5859145Y-5528805D01*
X5861643Y-5527136D01*
X5863159Y-5514573D01*
X5863159Y-5878543D01*
X5851796Y-5878543D01*
X5851796Y-5680320D01*
X5830055Y-5627702D01*
X5789833Y-5587409D01*
X5737253Y-5565576D01*
X5680320Y-5565526D01*
X5627702Y-5587268D01*
X5587409Y-5627490D01*
X5565576Y-5680070D01*
X5565526Y-5737003D01*
X5587268Y-5789621D01*
X5627490Y-5829914D01*
X5680070Y-5851747D01*
X5737003Y-5851796D01*
X5789621Y-5830055D01*
X5829914Y-5789833D01*
X5851747Y-5737253D01*
X5851796Y-5680320D01*
X5851796Y-5878543D01*
X5464840Y-5878543D01*
X5464840Y-5813718D01*
X5455587Y-5789763D01*
X5453827Y-5787129D01*
X5441052Y-5785363D01*
X5401414Y-5825000D01*
X5441052Y-5864637D01*
X5453827Y-5862871D01*
X5464222Y-5839390D01*
X5464840Y-5813718D01*
X5464840Y-5878543D01*
X5437911Y-5878543D01*
X5439637Y-5866052D01*
X5400000Y-5826414D01*
X5360363Y-5866052D01*
X5362089Y-5878543D01*
X5325753Y-5878543D01*
X5341719Y-5867875D01*
X5345618Y-5862040D01*
X5346173Y-5862871D01*
X5358948Y-5864637D01*
X5398586Y-5825000D01*
X5358948Y-5785363D01*
X5346173Y-5787129D01*
X5345731Y-5788128D01*
X5341719Y-5782125D01*
X5329000Y-5773626D01*
X5329000Y-5694767D01*
X5329494Y-5695506D01*
X5346231Y-5712243D01*
X5345459Y-5714102D01*
X5345441Y-5735803D01*
X5353728Y-5755860D01*
X5366563Y-5768718D01*
X5364763Y-5769413D01*
X5362129Y-5771173D01*
X5360363Y-5783948D01*
X5400000Y-5823586D01*
X5439637Y-5783948D01*
X5437871Y-5771173D01*
X5433083Y-5769053D01*
X5446218Y-5755940D01*
X5454541Y-5735898D01*
X5454559Y-5714197D01*
X5446272Y-5694140D01*
X5430940Y-5678782D01*
X5421835Y-5675001D01*
X5430860Y-5671272D01*
X5446218Y-5655940D01*
X5454541Y-5635898D01*
X5454559Y-5614197D01*
X5453757Y-5612255D01*
X5470506Y-5595506D01*
X5476793Y-5586098D01*
X5479000Y-5575000D01*
X5479000Y-5519355D01*
X5483339Y-5523694D01*
X5492527Y-5527500D01*
X5502473Y-5527500D01*
X5557473Y-5527500D01*
X5566661Y-5523694D01*
X5573694Y-5516661D01*
X5577500Y-5507473D01*
X5577500Y-5497527D01*
X5577500Y-5497520D01*
X5580467Y-5504700D01*
X5595222Y-5519481D01*
X5614511Y-5527491D01*
X5635397Y-5527509D01*
X5654700Y-5519533D01*
X5669481Y-5504778D01*
X5675004Y-5491478D01*
X5680467Y-5504700D01*
X5695222Y-5519481D01*
X5714511Y-5527491D01*
X5735397Y-5527509D01*
X5754700Y-5519533D01*
X5769481Y-5504778D01*
X5769494Y-5504747D01*
X5771195Y-5509145D01*
X5772864Y-5511643D01*
X5785427Y-5513159D01*
X5823586Y-5475000D01*
X5785427Y-5436841D01*
X5772864Y-5438357D01*
X5769660Y-5445606D01*
X5769533Y-5445300D01*
X5754778Y-5430519D01*
X5735489Y-5422509D01*
X5714603Y-5422491D01*
X5695300Y-5430467D01*
X5680519Y-5445222D01*
X5674996Y-5458521D01*
X5669533Y-5445300D01*
X5654778Y-5430519D01*
X5635489Y-5422509D01*
X5614603Y-5422491D01*
X5595300Y-5430467D01*
X5580519Y-5445222D01*
X5577500Y-5452492D01*
X5577500Y-5442527D01*
X5573694Y-5433339D01*
X5566661Y-5426306D01*
X5557473Y-5422500D01*
X5547527Y-5422500D01*
X5492527Y-5422500D01*
X5483339Y-5426306D01*
X5479000Y-5430645D01*
X5479000Y-5287012D01*
X5512012Y-5254000D01*
X5675000Y-5254000D01*
X5686098Y-5251793D01*
X5695506Y-5245506D01*
X5713812Y-5227200D01*
X5714511Y-5227491D01*
X5735397Y-5227509D01*
X5754700Y-5219533D01*
X5769481Y-5204778D01*
X5775004Y-5191478D01*
X5780467Y-5204700D01*
X5795222Y-5219481D01*
X5814511Y-5227491D01*
X5835397Y-5227509D01*
X5854700Y-5219533D01*
X5869481Y-5204778D01*
X5877491Y-5185489D01*
X5877509Y-5164603D01*
X5869533Y-5145300D01*
X5854778Y-5130519D01*
X5835489Y-5122509D01*
X5815294Y-5122491D01*
X5815294Y-4788646D01*
X5805978Y-4764524D01*
X5804198Y-4761859D01*
X5791376Y-4760038D01*
X5751414Y-4800000D01*
X5791376Y-4839962D01*
X5804198Y-4838141D01*
X5814668Y-4814497D01*
X5815294Y-4788646D01*
X5815294Y-5122491D01*
X5814603Y-5122491D01*
X5805010Y-5126455D01*
X5805010Y-4889108D01*
X5796654Y-4868886D01*
X5784244Y-4856454D01*
X5785476Y-4855978D01*
X5788141Y-4854198D01*
X5789962Y-4841376D01*
X5750000Y-4801414D01*
X5748586Y-4802828D01*
X5748586Y-4800000D01*
X5708624Y-4760038D01*
X5700000Y-4761263D01*
X5691376Y-4760038D01*
X5651414Y-4800000D01*
X5691376Y-4839962D01*
X5700000Y-4838737D01*
X5708624Y-4839962D01*
X5748586Y-4800000D01*
X5748586Y-4802828D01*
X5710038Y-4841376D01*
X5711859Y-4854198D01*
X5716135Y-4856092D01*
X5703400Y-4868804D01*
X5700002Y-4876989D01*
X5696654Y-4868886D01*
X5684244Y-4856454D01*
X5685476Y-4855978D01*
X5688141Y-4854198D01*
X5689962Y-4841376D01*
X5650000Y-4801414D01*
X5648586Y-4802828D01*
X5648586Y-4800000D01*
X5608624Y-4760038D01*
X5595802Y-4761859D01*
X5585332Y-4785503D01*
X5584706Y-4811354D01*
X5594022Y-4835476D01*
X5595802Y-4838141D01*
X5608624Y-4839962D01*
X5648586Y-4800000D01*
X5648586Y-4802828D01*
X5610038Y-4841376D01*
X5611859Y-4854198D01*
X5616135Y-4856092D01*
X5603400Y-4868804D01*
X5595010Y-4889012D01*
X5594990Y-4910892D01*
X5603346Y-4931114D01*
X5618804Y-4946600D01*
X5639012Y-4954990D01*
X5660892Y-4955010D01*
X5681114Y-4946654D01*
X5696600Y-4931196D01*
X5699998Y-4923011D01*
X5703346Y-4931114D01*
X5718804Y-4946600D01*
X5739012Y-4954990D01*
X5760892Y-4955010D01*
X5781114Y-4946654D01*
X5796600Y-4931196D01*
X5804990Y-4910988D01*
X5805010Y-4889108D01*
X5805010Y-5126455D01*
X5795300Y-5130467D01*
X5780519Y-5145222D01*
X5774996Y-5158521D01*
X5769533Y-5145300D01*
X5754778Y-5130519D01*
X5735489Y-5122509D01*
X5714603Y-5122491D01*
X5695300Y-5130467D01*
X5680519Y-5145222D01*
X5674996Y-5158521D01*
X5669533Y-5145300D01*
X5654778Y-5130519D01*
X5635489Y-5122509D01*
X5614603Y-5122491D01*
X5595300Y-5130467D01*
X5580519Y-5145222D01*
X5574996Y-5158521D01*
X5569533Y-5145300D01*
X5554778Y-5130519D01*
X5535489Y-5122509D01*
X5514603Y-5122491D01*
X5495300Y-5130467D01*
X5480519Y-5145222D01*
X5474861Y-5158848D01*
X5470506Y-5154494D01*
X5461098Y-5148207D01*
X5452022Y-5146402D01*
X5450047Y-5141623D01*
X5433464Y-5125011D01*
X5433428Y-5124996D01*
X5449989Y-5108464D01*
X5458990Y-5086787D01*
X5459010Y-5063316D01*
X5450047Y-5041623D01*
X5443257Y-5034821D01*
X5512874Y-5034717D01*
X5512874Y-4748898D01*
X5611419Y-4748898D01*
X5610038Y-4758624D01*
X5650000Y-4798586D01*
X5689962Y-4758624D01*
X5688581Y-4748898D01*
X5711419Y-4748898D01*
X5710038Y-4758624D01*
X5750000Y-4798586D01*
X5789962Y-4758624D01*
X5788581Y-4748898D01*
X5878543Y-4748898D01*
X5878543Y-5440464D01*
X5877136Y-5438357D01*
X5864573Y-5436841D01*
X5863159Y-5438255D01*
X5863159Y-5435427D01*
X5861643Y-5422864D01*
X5838902Y-5412810D01*
X5814045Y-5412224D01*
X5790855Y-5421195D01*
X5788357Y-5422864D01*
X5786841Y-5435427D01*
X5825000Y-5473586D01*
X5863159Y-5435427D01*
X5863159Y-5438255D01*
X5826414Y-5475000D01*
X5864573Y-5513159D01*
X5877136Y-5511643D01*
X5878543Y-5508459D01*
X5878543Y-5878543D01*
G36*
X4259188Y-4827172D02*
X4193180Y-4893180D01*
X4183425Y-4907779D01*
X4180000Y-4925000D01*
X4180000Y-4987035D01*
X4170491Y-5001266D01*
X4166865Y-5019495D01*
X4125710Y-5060650D01*
X4080677Y-5060650D01*
X4079000Y-5061345D01*
X4079000Y-4937012D01*
X4187012Y-4829000D01*
X4250000Y-4829000D01*
X4259188Y-4827172D01*
X4259188Y-4827172D01*
G37*
X4259188Y-4827172D02*
X4193180Y-4893180D01*
X4183425Y-4907779D01*
X4180000Y-4925000D01*
X4180000Y-4987035D01*
X4170491Y-5001266D01*
X4166865Y-5019495D01*
X4125710Y-5060650D01*
X4080677Y-5060650D01*
X4079000Y-5061345D01*
X4079000Y-4937012D01*
X4187012Y-4829000D01*
X4250000Y-4829000D01*
X4259188Y-4827172D01*
G36*
X4321000Y-4112988D02*
X4276948Y-4157039D01*
X4276993Y-4105517D01*
X4255252Y-4052899D01*
X4215030Y-4012606D01*
X4162450Y-3990773D01*
X4105517Y-3990723D01*
X4052899Y-4012465D01*
X4012606Y-4052687D01*
X3990773Y-4105267D01*
X3990723Y-4162200D01*
X4012465Y-4214818D01*
X4052687Y-4255110D01*
X4105267Y-4276944D01*
X4128777Y-4276964D01*
X4120300Y-4280467D01*
X4105519Y-4295222D01*
X4099996Y-4308521D01*
X4094533Y-4295300D01*
X4079778Y-4280519D01*
X4060489Y-4272509D01*
X4039603Y-4272491D01*
X4020300Y-4280467D01*
X4005519Y-4295222D01*
X3997509Y-4314511D01*
X3997491Y-4335397D01*
X4005467Y-4354700D01*
X4020222Y-4369481D01*
X4039511Y-4377491D01*
X4060397Y-4377509D01*
X4079700Y-4369533D01*
X4094481Y-4354778D01*
X4100004Y-4341478D01*
X4105467Y-4354700D01*
X4120222Y-4369481D01*
X4139511Y-4377491D01*
X4160397Y-4377509D01*
X4179700Y-4369533D01*
X4194481Y-4354778D01*
X4200004Y-4341478D01*
X4205467Y-4354700D01*
X4220222Y-4369481D01*
X4239511Y-4377491D01*
X4260397Y-4377509D01*
X4271000Y-4373128D01*
X4271000Y-4576874D01*
X4260489Y-4572509D01*
X4239603Y-4572491D01*
X4220300Y-4580467D01*
X4205519Y-4595222D01*
X4199996Y-4608521D01*
X4194533Y-4595300D01*
X4179778Y-4580519D01*
X4160489Y-4572509D01*
X4139603Y-4572491D01*
X4120300Y-4580467D01*
X4105519Y-4595222D01*
X4102500Y-4602492D01*
X4102500Y-4592527D01*
X4098694Y-4583339D01*
X4091661Y-4576306D01*
X4082473Y-4572500D01*
X4072527Y-4572500D01*
X4017527Y-4572500D01*
X4008339Y-4576306D01*
X4001306Y-4583339D01*
X3997500Y-4592527D01*
X3997500Y-4602473D01*
X3997500Y-4657473D01*
X4001306Y-4666661D01*
X4008339Y-4673694D01*
X4017527Y-4677500D01*
X4027473Y-4677500D01*
X4061488Y-4677500D01*
X4071485Y-4687497D01*
X4070479Y-4688501D01*
X4060661Y-4712144D01*
X4060639Y-4737744D01*
X4070415Y-4761404D01*
X4088501Y-4779521D01*
X4112144Y-4789339D01*
X4137744Y-4789361D01*
X4149473Y-4784515D01*
X4029494Y-4904494D01*
X4029000Y-4905233D01*
X4029000Y-4897041D01*
X4030860Y-4896272D01*
X4046218Y-4880940D01*
X4054541Y-4860898D01*
X4054559Y-4839197D01*
X4046272Y-4819140D01*
X4030940Y-4803782D01*
X4021835Y-4800001D01*
X4030860Y-4796272D01*
X4046218Y-4780940D01*
X4054541Y-4760898D01*
X4054559Y-4739197D01*
X4046272Y-4719140D01*
X4030940Y-4703782D01*
X4010898Y-4695459D01*
X3989197Y-4695441D01*
X3969140Y-4703728D01*
X3963976Y-4708883D01*
X3963976Y-3963976D01*
X4303319Y-3963976D01*
X4294335Y-3977422D01*
X4289844Y-4000000D01*
X4294335Y-4022578D01*
X4307125Y-4041719D01*
X4321000Y-4050990D01*
X4321000Y-4112988D01*
X4321000Y-4112988D01*
G37*
X4321000Y-4112988D02*
X4276948Y-4157039D01*
X4276993Y-4105517D01*
X4255252Y-4052899D01*
X4215030Y-4012606D01*
X4162450Y-3990773D01*
X4105517Y-3990723D01*
X4052899Y-4012465D01*
X4012606Y-4052687D01*
X3990773Y-4105267D01*
X3990723Y-4162200D01*
X4012465Y-4214818D01*
X4052687Y-4255110D01*
X4105267Y-4276944D01*
X4128777Y-4276964D01*
X4120300Y-4280467D01*
X4105519Y-4295222D01*
X4099996Y-4308521D01*
X4094533Y-4295300D01*
X4079778Y-4280519D01*
X4060489Y-4272509D01*
X4039603Y-4272491D01*
X4020300Y-4280467D01*
X4005519Y-4295222D01*
X3997509Y-4314511D01*
X3997491Y-4335397D01*
X4005467Y-4354700D01*
X4020222Y-4369481D01*
X4039511Y-4377491D01*
X4060397Y-4377509D01*
X4079700Y-4369533D01*
X4094481Y-4354778D01*
X4100004Y-4341478D01*
X4105467Y-4354700D01*
X4120222Y-4369481D01*
X4139511Y-4377491D01*
X4160397Y-4377509D01*
X4179700Y-4369533D01*
X4194481Y-4354778D01*
X4200004Y-4341478D01*
X4205467Y-4354700D01*
X4220222Y-4369481D01*
X4239511Y-4377491D01*
X4260397Y-4377509D01*
X4271000Y-4373128D01*
X4271000Y-4576874D01*
X4260489Y-4572509D01*
X4239603Y-4572491D01*
X4220300Y-4580467D01*
X4205519Y-4595222D01*
X4199996Y-4608521D01*
X4194533Y-4595300D01*
X4179778Y-4580519D01*
X4160489Y-4572509D01*
X4139603Y-4572491D01*
X4120300Y-4580467D01*
X4105519Y-4595222D01*
X4102500Y-4602492D01*
X4102500Y-4592527D01*
X4098694Y-4583339D01*
X4091661Y-4576306D01*
X4082473Y-4572500D01*
X4072527Y-4572500D01*
X4017527Y-4572500D01*
X4008339Y-4576306D01*
X4001306Y-4583339D01*
X3997500Y-4592527D01*
X3997500Y-4602473D01*
X3997500Y-4657473D01*
X4001306Y-4666661D01*
X4008339Y-4673694D01*
X4017527Y-4677500D01*
X4027473Y-4677500D01*
X4061488Y-4677500D01*
X4071485Y-4687497D01*
X4070479Y-4688501D01*
X4060661Y-4712144D01*
X4060639Y-4737744D01*
X4070415Y-4761404D01*
X4088501Y-4779521D01*
X4112144Y-4789339D01*
X4137744Y-4789361D01*
X4149473Y-4784515D01*
X4029494Y-4904494D01*
X4029000Y-4905233D01*
X4029000Y-4897041D01*
X4030860Y-4896272D01*
X4046218Y-4880940D01*
X4054541Y-4860898D01*
X4054559Y-4839197D01*
X4046272Y-4819140D01*
X4030940Y-4803782D01*
X4021835Y-4800001D01*
X4030860Y-4796272D01*
X4046218Y-4780940D01*
X4054541Y-4760898D01*
X4054559Y-4739197D01*
X4046272Y-4719140D01*
X4030940Y-4703782D01*
X4010898Y-4695459D01*
X3989197Y-4695441D01*
X3969140Y-4703728D01*
X3963976Y-4708883D01*
X3963976Y-3963976D01*
X4303319Y-3963976D01*
X4294335Y-3977422D01*
X4289844Y-4000000D01*
X4294335Y-4022578D01*
X4307125Y-4041719D01*
X4321000Y-4050990D01*
X4321000Y-4112988D01*
G36*
X4350096Y-5878543D02*
X4276993Y-5878543D01*
X4276993Y-5680320D01*
X4255252Y-5627702D01*
X4215030Y-5587409D01*
X4162450Y-5565576D01*
X4105517Y-5565526D01*
X4069000Y-5580615D01*
X4069000Y-5515962D01*
X4069000Y-5484750D01*
X4060250Y-5476000D01*
X4001000Y-5476000D01*
X4001000Y-5535250D01*
X4009750Y-5544000D01*
X4027038Y-5544000D01*
X4040962Y-5544000D01*
X4053826Y-5538672D01*
X4063672Y-5528826D01*
X4069000Y-5515962D01*
X4069000Y-5580615D01*
X4052899Y-5587268D01*
X4012606Y-5627490D01*
X3990773Y-5680070D01*
X3990723Y-5737003D01*
X4012465Y-5789621D01*
X4052687Y-5829914D01*
X4105267Y-5851747D01*
X4162200Y-5851796D01*
X4214818Y-5830055D01*
X4255110Y-5789833D01*
X4276944Y-5737253D01*
X4276993Y-5680320D01*
X4276993Y-5878543D01*
X3963976Y-5878543D01*
X3963976Y-5544000D01*
X3972962Y-5544000D01*
X3990250Y-5544000D01*
X3999000Y-5535250D01*
X3999000Y-5476000D01*
X3998213Y-5476000D01*
X3998213Y-5474000D01*
X3999000Y-5474000D01*
X3999000Y-5473213D01*
X4001000Y-5473213D01*
X4001000Y-5474000D01*
X4060250Y-5474000D01*
X4069000Y-5465250D01*
X4069000Y-5434038D01*
X4063672Y-5421174D01*
X4053826Y-5411328D01*
X4049086Y-5409365D01*
X4049989Y-5408464D01*
X4058990Y-5386787D01*
X4059010Y-5363316D01*
X4050047Y-5341623D01*
X4033464Y-5325011D01*
X4033428Y-5324996D01*
X4049989Y-5308464D01*
X4058990Y-5286787D01*
X4059010Y-5263316D01*
X4050047Y-5241623D01*
X4033464Y-5225011D01*
X4033428Y-5224996D01*
X4049989Y-5208464D01*
X4058990Y-5186787D01*
X4059010Y-5163316D01*
X4057164Y-5158848D01*
X4060650Y-5155362D01*
X4060650Y-5169323D01*
X4064456Y-5178511D01*
X4071489Y-5185544D01*
X4080000Y-5189069D01*
X4080000Y-5400000D01*
X4083425Y-5417221D01*
X4093180Y-5431820D01*
X4243180Y-5581820D01*
X4257779Y-5591575D01*
X4275000Y-5595000D01*
X4316000Y-5595000D01*
X4316000Y-5595973D01*
X4316000Y-5663973D01*
X4319806Y-5673161D01*
X4326839Y-5680194D01*
X4333577Y-5682985D01*
X4325011Y-5691536D01*
X4316010Y-5713213D01*
X4315990Y-5736684D01*
X4324953Y-5758377D01*
X4341536Y-5774989D01*
X4341572Y-5775004D01*
X4325011Y-5791536D01*
X4316010Y-5813213D01*
X4315990Y-5836684D01*
X4324953Y-5858377D01*
X4341536Y-5874989D01*
X4350096Y-5878543D01*
X4350096Y-5878543D01*
G37*
X4350096Y-5878543D02*
X4276993Y-5878543D01*
X4276993Y-5680320D01*
X4255252Y-5627702D01*
X4215030Y-5587409D01*
X4162450Y-5565576D01*
X4105517Y-5565526D01*
X4069000Y-5580615D01*
X4069000Y-5515962D01*
X4069000Y-5484750D01*
X4060250Y-5476000D01*
X4001000Y-5476000D01*
X4001000Y-5535250D01*
X4009750Y-5544000D01*
X4027038Y-5544000D01*
X4040962Y-5544000D01*
X4053826Y-5538672D01*
X4063672Y-5528826D01*
X4069000Y-5515962D01*
X4069000Y-5580615D01*
X4052899Y-5587268D01*
X4012606Y-5627490D01*
X3990773Y-5680070D01*
X3990723Y-5737003D01*
X4012465Y-5789621D01*
X4052687Y-5829914D01*
X4105267Y-5851747D01*
X4162200Y-5851796D01*
X4214818Y-5830055D01*
X4255110Y-5789833D01*
X4276944Y-5737253D01*
X4276993Y-5680320D01*
X4276993Y-5878543D01*
X3963976Y-5878543D01*
X3963976Y-5544000D01*
X3972962Y-5544000D01*
X3990250Y-5544000D01*
X3999000Y-5535250D01*
X3999000Y-5476000D01*
X3998213Y-5476000D01*
X3998213Y-5474000D01*
X3999000Y-5474000D01*
X3999000Y-5473213D01*
X4001000Y-5473213D01*
X4001000Y-5474000D01*
X4060250Y-5474000D01*
X4069000Y-5465250D01*
X4069000Y-5434038D01*
X4063672Y-5421174D01*
X4053826Y-5411328D01*
X4049086Y-5409365D01*
X4049989Y-5408464D01*
X4058990Y-5386787D01*
X4059010Y-5363316D01*
X4050047Y-5341623D01*
X4033464Y-5325011D01*
X4033428Y-5324996D01*
X4049989Y-5308464D01*
X4058990Y-5286787D01*
X4059010Y-5263316D01*
X4050047Y-5241623D01*
X4033464Y-5225011D01*
X4033428Y-5224996D01*
X4049989Y-5208464D01*
X4058990Y-5186787D01*
X4059010Y-5163316D01*
X4057164Y-5158848D01*
X4060650Y-5155362D01*
X4060650Y-5169323D01*
X4064456Y-5178511D01*
X4071489Y-5185544D01*
X4080000Y-5189069D01*
X4080000Y-5400000D01*
X4083425Y-5417221D01*
X4093180Y-5431820D01*
X4243180Y-5581820D01*
X4257779Y-5591575D01*
X4275000Y-5595000D01*
X4316000Y-5595000D01*
X4316000Y-5595973D01*
X4316000Y-5663973D01*
X4319806Y-5673161D01*
X4326839Y-5680194D01*
X4333577Y-5682985D01*
X4325011Y-5691536D01*
X4316010Y-5713213D01*
X4315990Y-5736684D01*
X4324953Y-5758377D01*
X4341536Y-5774989D01*
X4341572Y-5775004D01*
X4325011Y-5791536D01*
X4316010Y-5813213D01*
X4315990Y-5836684D01*
X4324953Y-5858377D01*
X4341536Y-5874989D01*
X4350096Y-5878543D01*
G36*
X4471000Y-4699654D02*
X4460898Y-4695459D01*
X4439197Y-4695441D01*
X4419140Y-4703728D01*
X4417866Y-4705000D01*
X4400000Y-4705000D01*
X4382779Y-4708425D01*
X4381150Y-4709514D01*
X4379509Y-4701266D01*
X4366719Y-4682125D01*
X4359811Y-4677509D01*
X4360397Y-4677509D01*
X4379700Y-4669533D01*
X4394481Y-4654778D01*
X4400004Y-4641478D01*
X4405467Y-4654700D01*
X4420222Y-4669481D01*
X4439511Y-4677491D01*
X4460397Y-4677509D01*
X4471000Y-4673128D01*
X4471000Y-4699654D01*
X4471000Y-4699654D01*
G37*
X4471000Y-4699654D02*
X4460898Y-4695459D01*
X4439197Y-4695441D01*
X4419140Y-4703728D01*
X4417866Y-4705000D01*
X4400000Y-4705000D01*
X4382779Y-4708425D01*
X4381150Y-4709514D01*
X4379509Y-4701266D01*
X4366719Y-4682125D01*
X4359811Y-4677509D01*
X4360397Y-4677509D01*
X4379700Y-4669533D01*
X4394481Y-4654778D01*
X4400004Y-4641478D01*
X4405467Y-4654700D01*
X4420222Y-4669481D01*
X4439511Y-4677491D01*
X4460397Y-4677509D01*
X4471000Y-4673128D01*
X4471000Y-4699654D01*
G36*
X4521000Y-4412988D02*
X4479494Y-4454494D01*
X4473207Y-4463902D01*
X4471000Y-4475000D01*
X4471000Y-4576874D01*
X4460489Y-4572509D01*
X4439603Y-4572491D01*
X4420300Y-4580467D01*
X4405519Y-4595222D01*
X4399996Y-4608521D01*
X4394533Y-4595300D01*
X4379778Y-4580519D01*
X4360489Y-4572509D01*
X4339603Y-4572491D01*
X4329000Y-4576872D01*
X4329000Y-4373126D01*
X4339511Y-4377491D01*
X4360397Y-4377509D01*
X4379700Y-4369533D01*
X4394481Y-4354778D01*
X4400004Y-4341478D01*
X4405467Y-4354700D01*
X4420222Y-4369481D01*
X4439511Y-4377491D01*
X4460397Y-4377509D01*
X4479700Y-4369533D01*
X4494481Y-4354778D01*
X4500004Y-4341478D01*
X4505467Y-4354700D01*
X4520222Y-4369481D01*
X4521000Y-4369804D01*
X4521000Y-4412988D01*
X4521000Y-4412988D01*
G37*
X4521000Y-4412988D02*
X4479494Y-4454494D01*
X4473207Y-4463902D01*
X4471000Y-4475000D01*
X4471000Y-4576874D01*
X4460489Y-4572509D01*
X4439603Y-4572491D01*
X4420300Y-4580467D01*
X4405519Y-4595222D01*
X4399996Y-4608521D01*
X4394533Y-4595300D01*
X4379778Y-4580519D01*
X4360489Y-4572509D01*
X4339603Y-4572491D01*
X4329000Y-4576872D01*
X4329000Y-4373126D01*
X4339511Y-4377491D01*
X4360397Y-4377509D01*
X4379700Y-4369533D01*
X4394481Y-4354778D01*
X4400004Y-4341478D01*
X4405467Y-4354700D01*
X4420222Y-4369481D01*
X4439511Y-4377491D01*
X4460397Y-4377509D01*
X4479700Y-4369533D01*
X4494481Y-4354778D01*
X4500004Y-4341478D01*
X4505467Y-4354700D01*
X4520222Y-4369481D01*
X4521000Y-4369804D01*
X4521000Y-4412988D01*
G36*
X4604442Y-5445454D02*
X4589197Y-5445441D01*
X4569140Y-5453728D01*
X4553782Y-5469060D01*
X4545459Y-5489102D01*
X4545458Y-5490902D01*
X4531360Y-5505000D01*
X4450322Y-5505000D01*
X4454509Y-5498734D01*
X4459000Y-5476156D01*
X4459000Y-5473844D01*
X4454509Y-5451266D01*
X4441719Y-5432125D01*
X4422578Y-5419335D01*
X4400000Y-5414844D01*
X4377422Y-5419335D01*
X4358281Y-5432125D01*
X4350000Y-5444518D01*
X4341719Y-5432125D01*
X4322578Y-5419335D01*
X4300000Y-5414844D01*
X4299000Y-5415043D01*
X4299000Y-5235242D01*
X4299000Y-5176000D01*
X4239757Y-5176000D01*
X4232013Y-5186781D01*
X4241696Y-5211901D01*
X4260256Y-5231404D01*
X4284866Y-5242320D01*
X4288219Y-5242987D01*
X4299000Y-5235242D01*
X4299000Y-5415043D01*
X4277422Y-5419335D01*
X4258281Y-5432125D01*
X4245491Y-5451266D01*
X4244564Y-5455925D01*
X4170000Y-5381360D01*
X4170000Y-5189069D01*
X4178511Y-5185544D01*
X4185544Y-5178511D01*
X4189350Y-5169323D01*
X4189350Y-5159377D01*
X4189350Y-5124290D01*
X4229349Y-5084291D01*
X4247578Y-5080665D01*
X4266719Y-5067875D01*
X4275000Y-5055482D01*
X4283281Y-5067875D01*
X4296000Y-5076374D01*
X4296000Y-5100000D01*
X4298207Y-5111098D01*
X4299000Y-5112284D01*
X4299000Y-5114758D01*
X4288219Y-5107013D01*
X4284866Y-5107680D01*
X4260256Y-5118596D01*
X4241696Y-5138099D01*
X4232013Y-5163219D01*
X4239757Y-5174000D01*
X4299000Y-5174000D01*
X4299000Y-5173213D01*
X4301000Y-5173213D01*
X4301000Y-5174000D01*
X4301787Y-5174000D01*
X4301787Y-5176000D01*
X4301000Y-5176000D01*
X4301000Y-5235242D01*
X4311781Y-5242987D01*
X4315134Y-5242320D01*
X4324569Y-5238135D01*
X4329494Y-5245506D01*
X4447800Y-5363812D01*
X4447509Y-5364511D01*
X4447491Y-5385397D01*
X4455467Y-5404700D01*
X4470222Y-5419481D01*
X4489511Y-5427491D01*
X4510397Y-5427509D01*
X4529700Y-5419533D01*
X4544481Y-5404778D01*
X4550139Y-5391152D01*
X4604442Y-5445454D01*
X4604442Y-5445454D01*
G37*
X4604442Y-5445454D02*
X4589197Y-5445441D01*
X4569140Y-5453728D01*
X4553782Y-5469060D01*
X4545459Y-5489102D01*
X4545458Y-5490902D01*
X4531360Y-5505000D01*
X4450322Y-5505000D01*
X4454509Y-5498734D01*
X4459000Y-5476156D01*
X4459000Y-5473844D01*
X4454509Y-5451266D01*
X4441719Y-5432125D01*
X4422578Y-5419335D01*
X4400000Y-5414844D01*
X4377422Y-5419335D01*
X4358281Y-5432125D01*
X4350000Y-5444518D01*
X4341719Y-5432125D01*
X4322578Y-5419335D01*
X4300000Y-5414844D01*
X4299000Y-5415043D01*
X4299000Y-5235242D01*
X4299000Y-5176000D01*
X4239757Y-5176000D01*
X4232013Y-5186781D01*
X4241696Y-5211901D01*
X4260256Y-5231404D01*
X4284866Y-5242320D01*
X4288219Y-5242987D01*
X4299000Y-5235242D01*
X4299000Y-5415043D01*
X4277422Y-5419335D01*
X4258281Y-5432125D01*
X4245491Y-5451266D01*
X4244564Y-5455925D01*
X4170000Y-5381360D01*
X4170000Y-5189069D01*
X4178511Y-5185544D01*
X4185544Y-5178511D01*
X4189350Y-5169323D01*
X4189350Y-5159377D01*
X4189350Y-5124290D01*
X4229349Y-5084291D01*
X4247578Y-5080665D01*
X4266719Y-5067875D01*
X4275000Y-5055482D01*
X4283281Y-5067875D01*
X4296000Y-5076374D01*
X4296000Y-5100000D01*
X4298207Y-5111098D01*
X4299000Y-5112284D01*
X4299000Y-5114758D01*
X4288219Y-5107013D01*
X4284866Y-5107680D01*
X4260256Y-5118596D01*
X4241696Y-5138099D01*
X4232013Y-5163219D01*
X4239757Y-5174000D01*
X4299000Y-5174000D01*
X4299000Y-5173213D01*
X4301000Y-5173213D01*
X4301000Y-5174000D01*
X4301787Y-5174000D01*
X4301787Y-5176000D01*
X4301000Y-5176000D01*
X4301000Y-5235242D01*
X4311781Y-5242987D01*
X4315134Y-5242320D01*
X4324569Y-5238135D01*
X4329494Y-5245506D01*
X4447800Y-5363812D01*
X4447509Y-5364511D01*
X4447491Y-5385397D01*
X4455467Y-5404700D01*
X4470222Y-5419481D01*
X4489511Y-5427491D01*
X4510397Y-5427509D01*
X4529700Y-5419533D01*
X4544481Y-5404778D01*
X4550139Y-5391152D01*
X4604442Y-5445454D01*
G36*
X4621000Y-5379988D02*
X4544865Y-5303853D01*
X4552491Y-5285489D01*
X4552509Y-5264603D01*
X4544533Y-5245300D01*
X4529778Y-5230519D01*
X4529747Y-5230506D01*
X4534145Y-5228805D01*
X4536643Y-5227136D01*
X4538159Y-5214573D01*
X4500000Y-5176414D01*
X4461841Y-5214573D01*
X4463357Y-5227136D01*
X4470606Y-5230340D01*
X4470300Y-5230467D01*
X4455519Y-5245222D01*
X4447509Y-5264511D01*
X4447494Y-5281482D01*
X4400974Y-5234962D01*
X4422578Y-5230665D01*
X4441719Y-5217875D01*
X4446874Y-5210161D01*
X4447864Y-5211643D01*
X4460427Y-5213159D01*
X4498586Y-5175000D01*
X4460427Y-5136841D01*
X4447864Y-5138357D01*
X4447076Y-5140141D01*
X4441719Y-5132125D01*
X4422578Y-5119335D01*
X4400000Y-5114844D01*
X4377856Y-5119249D01*
X4376793Y-5113902D01*
X4376793Y-5113902D01*
X4370506Y-5104494D01*
X4354000Y-5087988D01*
X4354000Y-5076374D01*
X4366719Y-5067875D01*
X4379509Y-5048734D01*
X4384000Y-5026156D01*
X4384000Y-5023844D01*
X4379509Y-5001266D01*
X4366719Y-4982125D01*
X4347578Y-4969335D01*
X4325000Y-4964844D01*
X4302422Y-4969335D01*
X4283281Y-4982125D01*
X4275000Y-4994518D01*
X4270000Y-4987035D01*
X4270000Y-4943640D01*
X4391933Y-4821707D01*
X4385778Y-4835610D01*
X4385160Y-4861282D01*
X4394413Y-4885237D01*
X4396173Y-4887871D01*
X4408948Y-4889637D01*
X4448586Y-4850000D01*
X4448029Y-4849443D01*
X4449443Y-4848029D01*
X4450000Y-4848586D01*
X4450557Y-4848029D01*
X4451971Y-4849443D01*
X4451414Y-4850000D01*
X4491052Y-4889637D01*
X4503827Y-4887871D01*
X4509360Y-4875372D01*
X4521000Y-4887012D01*
X4521000Y-5022500D01*
X4489637Y-5022500D01*
X4489637Y-4891052D01*
X4450000Y-4851414D01*
X4410363Y-4891052D01*
X4412129Y-4903827D01*
X4435610Y-4914222D01*
X4461282Y-4914840D01*
X4485237Y-4905587D01*
X4487871Y-4903827D01*
X4489637Y-4891052D01*
X4489637Y-5022500D01*
X4467527Y-5022500D01*
X4458339Y-5026306D01*
X4451306Y-5033339D01*
X4447500Y-5042527D01*
X4447500Y-5052473D01*
X4447500Y-5107473D01*
X4451306Y-5116661D01*
X4458339Y-5123694D01*
X4463023Y-5125634D01*
X4461841Y-5135427D01*
X4500000Y-5173586D01*
X4500557Y-5173029D01*
X4501971Y-5174443D01*
X4501414Y-5175000D01*
X4539573Y-5213159D01*
X4552136Y-5211643D01*
X4557806Y-5198818D01*
X4621000Y-5262012D01*
X4621000Y-5379988D01*
X4621000Y-5379988D01*
G37*
X4621000Y-5379988D02*
X4544865Y-5303853D01*
X4552491Y-5285489D01*
X4552509Y-5264603D01*
X4544533Y-5245300D01*
X4529778Y-5230519D01*
X4529747Y-5230506D01*
X4534145Y-5228805D01*
X4536643Y-5227136D01*
X4538159Y-5214573D01*
X4500000Y-5176414D01*
X4461841Y-5214573D01*
X4463357Y-5227136D01*
X4470606Y-5230340D01*
X4470300Y-5230467D01*
X4455519Y-5245222D01*
X4447509Y-5264511D01*
X4447494Y-5281482D01*
X4400974Y-5234962D01*
X4422578Y-5230665D01*
X4441719Y-5217875D01*
X4446874Y-5210161D01*
X4447864Y-5211643D01*
X4460427Y-5213159D01*
X4498586Y-5175000D01*
X4460427Y-5136841D01*
X4447864Y-5138357D01*
X4447076Y-5140141D01*
X4441719Y-5132125D01*
X4422578Y-5119335D01*
X4400000Y-5114844D01*
X4377856Y-5119249D01*
X4376793Y-5113902D01*
X4376793Y-5113902D01*
X4370506Y-5104494D01*
X4354000Y-5087988D01*
X4354000Y-5076374D01*
X4366719Y-5067875D01*
X4379509Y-5048734D01*
X4384000Y-5026156D01*
X4384000Y-5023844D01*
X4379509Y-5001266D01*
X4366719Y-4982125D01*
X4347578Y-4969335D01*
X4325000Y-4964844D01*
X4302422Y-4969335D01*
X4283281Y-4982125D01*
X4275000Y-4994518D01*
X4270000Y-4987035D01*
X4270000Y-4943640D01*
X4391933Y-4821707D01*
X4385778Y-4835610D01*
X4385160Y-4861282D01*
X4394413Y-4885237D01*
X4396173Y-4887871D01*
X4408948Y-4889637D01*
X4448586Y-4850000D01*
X4448029Y-4849443D01*
X4449443Y-4848029D01*
X4450000Y-4848586D01*
X4450557Y-4848029D01*
X4451971Y-4849443D01*
X4451414Y-4850000D01*
X4491052Y-4889637D01*
X4503827Y-4887871D01*
X4509360Y-4875372D01*
X4521000Y-4887012D01*
X4521000Y-5022500D01*
X4489637Y-5022500D01*
X4489637Y-4891052D01*
X4450000Y-4851414D01*
X4410363Y-4891052D01*
X4412129Y-4903827D01*
X4435610Y-4914222D01*
X4461282Y-4914840D01*
X4485237Y-4905587D01*
X4487871Y-4903827D01*
X4489637Y-4891052D01*
X4489637Y-5022500D01*
X4467527Y-5022500D01*
X4458339Y-5026306D01*
X4451306Y-5033339D01*
X4447500Y-5042527D01*
X4447500Y-5052473D01*
X4447500Y-5107473D01*
X4451306Y-5116661D01*
X4458339Y-5123694D01*
X4463023Y-5125634D01*
X4461841Y-5135427D01*
X4500000Y-5173586D01*
X4500557Y-5173029D01*
X4501971Y-5174443D01*
X4501414Y-5175000D01*
X4539573Y-5213159D01*
X4552136Y-5211643D01*
X4557806Y-5198818D01*
X4621000Y-5262012D01*
X4621000Y-5379988D01*
G36*
X4701971Y-5500557D02*
X4700557Y-5501971D01*
X4700000Y-5501414D01*
X4699443Y-5501971D01*
X4698029Y-5500557D01*
X4698586Y-5500000D01*
X4698029Y-5499443D01*
X4699443Y-5498029D01*
X4700000Y-5498586D01*
X4700557Y-5498029D01*
X4701971Y-5499443D01*
X4701414Y-5500000D01*
X4701971Y-5500557D01*
X4701971Y-5500557D01*
G37*
X4701971Y-5500557D02*
X4700557Y-5501971D01*
X4700000Y-5501414D01*
X4699443Y-5501971D01*
X4698029Y-5500557D01*
X4698586Y-5500000D01*
X4698029Y-5499443D01*
X4699443Y-5498029D01*
X4700000Y-5498586D01*
X4700557Y-5498029D01*
X4701971Y-5499443D01*
X4701414Y-5500000D01*
X4701971Y-5500557D01*
G36*
X4774472Y-3963976D02*
X4768180Y-3968180D01*
X4718180Y-4018180D01*
X4708425Y-4032779D01*
X4705000Y-4050000D01*
X4705000Y-4188884D01*
X4703827Y-4187129D01*
X4691052Y-4185363D01*
X4651414Y-4225000D01*
X4691052Y-4264637D01*
X4703827Y-4262871D01*
X4705000Y-4260221D01*
X4705000Y-4293945D01*
X4703805Y-4290855D01*
X4702136Y-4288357D01*
X4689637Y-4286848D01*
X4689637Y-4266052D01*
X4650000Y-4226414D01*
X4610363Y-4266052D01*
X4612129Y-4278827D01*
X4612612Y-4279041D01*
X4611841Y-4285427D01*
X4650000Y-4323586D01*
X4688159Y-4285427D01*
X4687400Y-4279141D01*
X4687871Y-4278827D01*
X4689637Y-4266052D01*
X4689637Y-4286848D01*
X4689573Y-4286841D01*
X4651414Y-4325000D01*
X4689573Y-4363159D01*
X4702136Y-4361643D01*
X4705000Y-4355164D01*
X4705000Y-4431360D01*
X4688159Y-4448201D01*
X4688159Y-4364573D01*
X4650000Y-4326414D01*
X4611841Y-4364573D01*
X4613357Y-4377136D01*
X4636098Y-4387190D01*
X4660955Y-4387776D01*
X4684145Y-4378805D01*
X4686643Y-4377136D01*
X4688159Y-4364573D01*
X4688159Y-4448201D01*
X4618180Y-4518180D01*
X4608425Y-4532779D01*
X4605000Y-4550000D01*
X4605000Y-4596471D01*
X4599996Y-4608521D01*
X4594533Y-4595300D01*
X4579778Y-4580519D01*
X4560489Y-4572509D01*
X4539603Y-4572491D01*
X4529000Y-4576872D01*
X4529000Y-4487012D01*
X4570506Y-4445506D01*
X4576793Y-4436098D01*
X4579000Y-4425000D01*
X4579000Y-4369823D01*
X4579700Y-4369533D01*
X4594481Y-4354778D01*
X4594494Y-4354747D01*
X4596195Y-4359145D01*
X4597864Y-4361643D01*
X4610427Y-4363159D01*
X4648586Y-4325000D01*
X4610427Y-4286841D01*
X4597864Y-4288357D01*
X4594660Y-4295606D01*
X4594533Y-4295300D01*
X4579778Y-4280519D01*
X4560489Y-4272509D01*
X4539603Y-4272491D01*
X4520300Y-4280467D01*
X4505519Y-4295222D01*
X4499996Y-4308521D01*
X4494533Y-4295300D01*
X4481695Y-4282439D01*
X4485476Y-4280978D01*
X4488141Y-4279198D01*
X4489962Y-4266376D01*
X4450000Y-4226414D01*
X4410038Y-4266376D01*
X4411859Y-4279198D01*
X4418586Y-4282177D01*
X4405519Y-4295222D01*
X4399996Y-4308521D01*
X4394533Y-4295300D01*
X4379778Y-4280519D01*
X4360489Y-4272509D01*
X4339603Y-4272491D01*
X4329000Y-4276872D01*
X4329000Y-4262012D01*
X4387012Y-4204000D01*
X4388211Y-4204000D01*
X4385332Y-4210503D01*
X4384706Y-4236354D01*
X4394022Y-4260476D01*
X4395802Y-4263141D01*
X4408624Y-4264962D01*
X4448586Y-4225000D01*
X4448029Y-4224443D01*
X4449443Y-4223029D01*
X4450000Y-4223586D01*
X4450557Y-4223029D01*
X4451971Y-4224443D01*
X4451414Y-4225000D01*
X4491376Y-4264962D01*
X4504198Y-4263141D01*
X4514668Y-4239497D01*
X4515294Y-4213646D01*
X4511569Y-4204000D01*
X4588704Y-4204000D01*
X4585778Y-4210610D01*
X4585160Y-4236282D01*
X4594413Y-4260237D01*
X4596173Y-4262871D01*
X4608948Y-4264637D01*
X4648586Y-4225000D01*
X4648029Y-4224443D01*
X4649443Y-4223029D01*
X4650000Y-4223586D01*
X4689637Y-4183948D01*
X4687871Y-4171173D01*
X4669369Y-4162982D01*
X4674043Y-4161051D01*
X4686009Y-4149106D01*
X4692493Y-4133491D01*
X4692507Y-4116583D01*
X4686051Y-4100957D01*
X4674106Y-4088991D01*
X4658491Y-4082507D01*
X4641583Y-4082493D01*
X4625957Y-4088949D01*
X4613991Y-4100894D01*
X4607507Y-4116509D01*
X4607499Y-4126489D01*
X4587988Y-4146000D01*
X4500833Y-4146000D01*
X4504990Y-4135988D01*
X4505010Y-4114108D01*
X4496654Y-4093886D01*
X4481196Y-4078400D01*
X4460988Y-4070010D01*
X4439108Y-4069990D01*
X4418886Y-4078346D01*
X4403400Y-4093804D01*
X4395010Y-4114012D01*
X4394990Y-4135892D01*
X4399167Y-4146000D01*
X4375000Y-4146000D01*
X4368774Y-4147238D01*
X4370506Y-4145506D01*
X4376793Y-4136098D01*
X4379000Y-4125000D01*
X4379000Y-4050990D01*
X4392875Y-4041719D01*
X4405665Y-4022578D01*
X4410156Y-4000000D01*
X4405665Y-3977422D01*
X4396681Y-3963976D01*
X4603319Y-3963976D01*
X4594335Y-3977422D01*
X4589844Y-4000000D01*
X4594335Y-4022578D01*
X4607125Y-4041719D01*
X4626266Y-4054509D01*
X4648844Y-4059000D01*
X4651156Y-4059000D01*
X4673734Y-4054509D01*
X4692875Y-4041719D01*
X4705665Y-4022578D01*
X4710156Y-4000000D01*
X4705665Y-3977422D01*
X4696681Y-3963976D01*
X4774472Y-3963976D01*
X4774472Y-3963976D01*
G37*
X4774472Y-3963976D02*
X4768180Y-3968180D01*
X4718180Y-4018180D01*
X4708425Y-4032779D01*
X4705000Y-4050000D01*
X4705000Y-4188884D01*
X4703827Y-4187129D01*
X4691052Y-4185363D01*
X4651414Y-4225000D01*
X4691052Y-4264637D01*
X4703827Y-4262871D01*
X4705000Y-4260221D01*
X4705000Y-4293945D01*
X4703805Y-4290855D01*
X4702136Y-4288357D01*
X4689637Y-4286848D01*
X4689637Y-4266052D01*
X4650000Y-4226414D01*
X4610363Y-4266052D01*
X4612129Y-4278827D01*
X4612612Y-4279041D01*
X4611841Y-4285427D01*
X4650000Y-4323586D01*
X4688159Y-4285427D01*
X4687400Y-4279141D01*
X4687871Y-4278827D01*
X4689637Y-4266052D01*
X4689637Y-4286848D01*
X4689573Y-4286841D01*
X4651414Y-4325000D01*
X4689573Y-4363159D01*
X4702136Y-4361643D01*
X4705000Y-4355164D01*
X4705000Y-4431360D01*
X4688159Y-4448201D01*
X4688159Y-4364573D01*
X4650000Y-4326414D01*
X4611841Y-4364573D01*
X4613357Y-4377136D01*
X4636098Y-4387190D01*
X4660955Y-4387776D01*
X4684145Y-4378805D01*
X4686643Y-4377136D01*
X4688159Y-4364573D01*
X4688159Y-4448201D01*
X4618180Y-4518180D01*
X4608425Y-4532779D01*
X4605000Y-4550000D01*
X4605000Y-4596471D01*
X4599996Y-4608521D01*
X4594533Y-4595300D01*
X4579778Y-4580519D01*
X4560489Y-4572509D01*
X4539603Y-4572491D01*
X4529000Y-4576872D01*
X4529000Y-4487012D01*
X4570506Y-4445506D01*
X4576793Y-4436098D01*
X4579000Y-4425000D01*
X4579000Y-4369823D01*
X4579700Y-4369533D01*
X4594481Y-4354778D01*
X4594494Y-4354747D01*
X4596195Y-4359145D01*
X4597864Y-4361643D01*
X4610427Y-4363159D01*
X4648586Y-4325000D01*
X4610427Y-4286841D01*
X4597864Y-4288357D01*
X4594660Y-4295606D01*
X4594533Y-4295300D01*
X4579778Y-4280519D01*
X4560489Y-4272509D01*
X4539603Y-4272491D01*
X4520300Y-4280467D01*
X4505519Y-4295222D01*
X4499996Y-4308521D01*
X4494533Y-4295300D01*
X4481695Y-4282439D01*
X4485476Y-4280978D01*
X4488141Y-4279198D01*
X4489962Y-4266376D01*
X4450000Y-4226414D01*
X4410038Y-4266376D01*
X4411859Y-4279198D01*
X4418586Y-4282177D01*
X4405519Y-4295222D01*
X4399996Y-4308521D01*
X4394533Y-4295300D01*
X4379778Y-4280519D01*
X4360489Y-4272509D01*
X4339603Y-4272491D01*
X4329000Y-4276872D01*
X4329000Y-4262012D01*
X4387012Y-4204000D01*
X4388211Y-4204000D01*
X4385332Y-4210503D01*
X4384706Y-4236354D01*
X4394022Y-4260476D01*
X4395802Y-4263141D01*
X4408624Y-4264962D01*
X4448586Y-4225000D01*
X4448029Y-4224443D01*
X4449443Y-4223029D01*
X4450000Y-4223586D01*
X4450557Y-4223029D01*
X4451971Y-4224443D01*
X4451414Y-4225000D01*
X4491376Y-4264962D01*
X4504198Y-4263141D01*
X4514668Y-4239497D01*
X4515294Y-4213646D01*
X4511569Y-4204000D01*
X4588704Y-4204000D01*
X4585778Y-4210610D01*
X4585160Y-4236282D01*
X4594413Y-4260237D01*
X4596173Y-4262871D01*
X4608948Y-4264637D01*
X4648586Y-4225000D01*
X4648029Y-4224443D01*
X4649443Y-4223029D01*
X4650000Y-4223586D01*
X4689637Y-4183948D01*
X4687871Y-4171173D01*
X4669369Y-4162982D01*
X4674043Y-4161051D01*
X4686009Y-4149106D01*
X4692493Y-4133491D01*
X4692507Y-4116583D01*
X4686051Y-4100957D01*
X4674106Y-4088991D01*
X4658491Y-4082507D01*
X4641583Y-4082493D01*
X4625957Y-4088949D01*
X4613991Y-4100894D01*
X4607507Y-4116509D01*
X4607499Y-4126489D01*
X4587988Y-4146000D01*
X4500833Y-4146000D01*
X4504990Y-4135988D01*
X4505010Y-4114108D01*
X4496654Y-4093886D01*
X4481196Y-4078400D01*
X4460988Y-4070010D01*
X4439108Y-4069990D01*
X4418886Y-4078346D01*
X4403400Y-4093804D01*
X4395010Y-4114012D01*
X4394990Y-4135892D01*
X4399167Y-4146000D01*
X4375000Y-4146000D01*
X4368774Y-4147238D01*
X4370506Y-4145506D01*
X4376793Y-4136098D01*
X4379000Y-4125000D01*
X4379000Y-4050990D01*
X4392875Y-4041719D01*
X4405665Y-4022578D01*
X4410156Y-4000000D01*
X4405665Y-3977422D01*
X4396681Y-3963976D01*
X4603319Y-3963976D01*
X4594335Y-3977422D01*
X4589844Y-4000000D01*
X4594335Y-4022578D01*
X4607125Y-4041719D01*
X4626266Y-4054509D01*
X4648844Y-4059000D01*
X4651156Y-4059000D01*
X4673734Y-4054509D01*
X4692875Y-4041719D01*
X4705665Y-4022578D01*
X4710156Y-4000000D01*
X4705665Y-3977422D01*
X4696681Y-3963976D01*
X4774472Y-3963976D01*
G36*
X4774821Y-5878543D02*
X4525179Y-5878543D01*
X4542875Y-5866719D01*
X4555665Y-5847578D01*
X4560156Y-5825000D01*
X4555665Y-5802422D01*
X4542875Y-5783281D01*
X4539380Y-5780945D01*
X4556404Y-5764744D01*
X4567320Y-5740134D01*
X4567987Y-5736781D01*
X4567987Y-5713219D01*
X4567320Y-5709866D01*
X4556404Y-5685256D01*
X4545627Y-5675000D01*
X4556404Y-5664744D01*
X4567320Y-5640134D01*
X4567987Y-5636781D01*
X4560242Y-5626000D01*
X4501000Y-5626000D01*
X4501000Y-5664757D01*
X4501000Y-5685243D01*
X4501000Y-5724000D01*
X4560242Y-5724000D01*
X4567987Y-5713219D01*
X4567987Y-5736781D01*
X4560242Y-5726000D01*
X4501000Y-5726000D01*
X4501000Y-5726787D01*
X4499000Y-5726787D01*
X4499000Y-5726000D01*
X4498213Y-5726000D01*
X4498213Y-5724000D01*
X4499000Y-5724000D01*
X4499000Y-5685243D01*
X4499000Y-5664757D01*
X4499000Y-5626000D01*
X4498213Y-5626000D01*
X4498213Y-5624000D01*
X4499000Y-5624000D01*
X4499000Y-5623213D01*
X4501000Y-5623213D01*
X4501000Y-5624000D01*
X4560242Y-5624000D01*
X4567987Y-5613219D01*
X4567320Y-5609866D01*
X4559856Y-5593039D01*
X4567221Y-5591575D01*
X4581820Y-5581820D01*
X4609082Y-5554558D01*
X4610803Y-5554559D01*
X4621000Y-5550346D01*
X4621000Y-5675000D01*
X4623207Y-5686098D01*
X4629494Y-5695506D01*
X4729494Y-5795506D01*
X4738902Y-5801793D01*
X4744249Y-5802856D01*
X4739844Y-5825000D01*
X4744335Y-5847578D01*
X4757125Y-5866719D01*
X4774821Y-5878543D01*
X4774821Y-5878543D01*
G37*
X4774821Y-5878543D02*
X4525179Y-5878543D01*
X4542875Y-5866719D01*
X4555665Y-5847578D01*
X4560156Y-5825000D01*
X4555665Y-5802422D01*
X4542875Y-5783281D01*
X4539380Y-5780945D01*
X4556404Y-5764744D01*
X4567320Y-5740134D01*
X4567987Y-5736781D01*
X4567987Y-5713219D01*
X4567320Y-5709866D01*
X4556404Y-5685256D01*
X4545627Y-5675000D01*
X4556404Y-5664744D01*
X4567320Y-5640134D01*
X4567987Y-5636781D01*
X4560242Y-5626000D01*
X4501000Y-5626000D01*
X4501000Y-5664757D01*
X4501000Y-5685243D01*
X4501000Y-5724000D01*
X4560242Y-5724000D01*
X4567987Y-5713219D01*
X4567987Y-5736781D01*
X4560242Y-5726000D01*
X4501000Y-5726000D01*
X4501000Y-5726787D01*
X4499000Y-5726787D01*
X4499000Y-5726000D01*
X4498213Y-5726000D01*
X4498213Y-5724000D01*
X4499000Y-5724000D01*
X4499000Y-5685243D01*
X4499000Y-5664757D01*
X4499000Y-5626000D01*
X4498213Y-5626000D01*
X4498213Y-5624000D01*
X4499000Y-5624000D01*
X4499000Y-5623213D01*
X4501000Y-5623213D01*
X4501000Y-5624000D01*
X4560242Y-5624000D01*
X4567987Y-5613219D01*
X4567320Y-5609866D01*
X4559856Y-5593039D01*
X4567221Y-5591575D01*
X4581820Y-5581820D01*
X4609082Y-5554558D01*
X4610803Y-5554559D01*
X4621000Y-5550346D01*
X4621000Y-5675000D01*
X4623207Y-5686098D01*
X4629494Y-5695506D01*
X4729494Y-5795506D01*
X4738902Y-5801793D01*
X4744249Y-5802856D01*
X4739844Y-5825000D01*
X4744335Y-5847578D01*
X4757125Y-5866719D01*
X4774821Y-5878543D01*
G36*
X4783521Y-5225004D02*
X4770300Y-5230467D01*
X4755519Y-5245222D01*
X4747509Y-5264511D01*
X4747491Y-5285397D01*
X4755189Y-5304029D01*
X4754494Y-5304494D01*
X4729494Y-5329494D01*
X4723207Y-5338902D01*
X4721000Y-5350000D01*
X4721000Y-5400000D01*
X4723207Y-5411098D01*
X4729494Y-5420506D01*
X4731226Y-5422238D01*
X4725000Y-5421000D01*
X4712012Y-5421000D01*
X4679000Y-5387988D01*
X4679000Y-5250000D01*
X4676793Y-5238902D01*
X4670506Y-5229494D01*
X4608489Y-5167477D01*
X4624043Y-5161051D01*
X4631106Y-5154000D01*
X4737988Y-5154000D01*
X4747800Y-5163812D01*
X4747509Y-5164511D01*
X4747491Y-5185397D01*
X4755467Y-5204700D01*
X4770222Y-5219481D01*
X4783521Y-5225004D01*
X4783521Y-5225004D01*
G37*
X4783521Y-5225004D02*
X4770300Y-5230467D01*
X4755519Y-5245222D01*
X4747509Y-5264511D01*
X4747491Y-5285397D01*
X4755189Y-5304029D01*
X4754494Y-5304494D01*
X4729494Y-5329494D01*
X4723207Y-5338902D01*
X4721000Y-5350000D01*
X4721000Y-5400000D01*
X4723207Y-5411098D01*
X4729494Y-5420506D01*
X4731226Y-5422238D01*
X4725000Y-5421000D01*
X4712012Y-5421000D01*
X4679000Y-5387988D01*
X4679000Y-5250000D01*
X4676793Y-5238902D01*
X4670506Y-5229494D01*
X4608489Y-5167477D01*
X4624043Y-5161051D01*
X4631106Y-5154000D01*
X4737988Y-5154000D01*
X4747800Y-5163812D01*
X4747509Y-5164511D01*
X4747491Y-5185397D01*
X4755467Y-5204700D01*
X4770222Y-5219481D01*
X4783521Y-5225004D01*
G36*
X4856482Y-4677506D02*
X4830594Y-4703394D01*
X4824307Y-4712802D01*
X4823387Y-4717427D01*
X4820240Y-4718728D01*
X4804882Y-4734060D01*
X4796559Y-4754102D01*
X4796541Y-4775803D01*
X4797343Y-4777745D01*
X4779494Y-4795594D01*
X4773207Y-4805002D01*
X4771000Y-4816100D01*
X4771000Y-4877959D01*
X4769140Y-4878728D01*
X4753782Y-4894060D01*
X4747495Y-4909200D01*
X4741272Y-4894140D01*
X4725940Y-4878782D01*
X4724000Y-4877976D01*
X4724000Y-4801100D01*
X4722025Y-4791173D01*
X4730506Y-4785506D01*
X4838812Y-4677200D01*
X4839511Y-4677491D01*
X4856482Y-4677506D01*
X4856482Y-4677506D01*
G37*
X4856482Y-4677506D02*
X4830594Y-4703394D01*
X4824307Y-4712802D01*
X4823387Y-4717427D01*
X4820240Y-4718728D01*
X4804882Y-4734060D01*
X4796559Y-4754102D01*
X4796541Y-4775803D01*
X4797343Y-4777745D01*
X4779494Y-4795594D01*
X4773207Y-4805002D01*
X4771000Y-4816100D01*
X4771000Y-4877959D01*
X4769140Y-4878728D01*
X4753782Y-4894060D01*
X4747495Y-4909200D01*
X4741272Y-4894140D01*
X4725940Y-4878782D01*
X4724000Y-4877976D01*
X4724000Y-4801100D01*
X4722025Y-4791173D01*
X4730506Y-4785506D01*
X4838812Y-4677200D01*
X4839511Y-4677491D01*
X4856482Y-4677506D01*
G36*
X4871000Y-4276874D02*
X4860489Y-4272509D01*
X4839603Y-4272491D01*
X4820300Y-4280467D01*
X4805519Y-4295222D01*
X4799996Y-4308521D01*
X4795000Y-4296429D01*
X4795000Y-4257157D01*
X4796218Y-4255940D01*
X4804541Y-4235898D01*
X4804559Y-4214197D01*
X4796272Y-4194140D01*
X4795000Y-4192866D01*
X4795000Y-4068640D01*
X4818640Y-4045000D01*
X4826645Y-4045000D01*
X4819806Y-4051839D01*
X4816000Y-4061027D01*
X4816000Y-4070973D01*
X4816000Y-4138973D01*
X4819806Y-4148161D01*
X4826839Y-4155194D01*
X4836027Y-4159000D01*
X4845973Y-4159000D01*
X4846000Y-4159000D01*
X4846000Y-4200000D01*
X4848207Y-4211098D01*
X4854494Y-4220506D01*
X4871000Y-4237012D01*
X4871000Y-4276874D01*
X4871000Y-4276874D01*
G37*
X4871000Y-4276874D02*
X4860489Y-4272509D01*
X4839603Y-4272491D01*
X4820300Y-4280467D01*
X4805519Y-4295222D01*
X4799996Y-4308521D01*
X4795000Y-4296429D01*
X4795000Y-4257157D01*
X4796218Y-4255940D01*
X4804541Y-4235898D01*
X4804559Y-4214197D01*
X4796272Y-4194140D01*
X4795000Y-4192866D01*
X4795000Y-4068640D01*
X4818640Y-4045000D01*
X4826645Y-4045000D01*
X4819806Y-4051839D01*
X4816000Y-4061027D01*
X4816000Y-4070973D01*
X4816000Y-4138973D01*
X4819806Y-4148161D01*
X4826839Y-4155194D01*
X4836027Y-4159000D01*
X4845973Y-4159000D01*
X4846000Y-4159000D01*
X4846000Y-4200000D01*
X4848207Y-4211098D01*
X4854494Y-4220506D01*
X4871000Y-4237012D01*
X4871000Y-4276874D01*
G36*
X4946000Y-4212988D02*
X4929494Y-4229494D01*
X4929000Y-4230233D01*
X4929000Y-4225000D01*
X4926793Y-4213902D01*
X4926793Y-4213902D01*
X4920506Y-4204494D01*
X4904000Y-4187988D01*
X4904000Y-4159000D01*
X4913973Y-4159000D01*
X4923161Y-4155194D01*
X4930194Y-4148161D01*
X4932702Y-4142105D01*
X4946000Y-4150990D01*
X4946000Y-4212988D01*
X4946000Y-4212988D01*
G37*
X4946000Y-4212988D02*
X4929494Y-4229494D01*
X4929000Y-4230233D01*
X4929000Y-4225000D01*
X4926793Y-4213902D01*
X4926793Y-4213902D01*
X4920506Y-4204494D01*
X4904000Y-4187988D01*
X4904000Y-4159000D01*
X4913973Y-4159000D01*
X4923161Y-4155194D01*
X4930194Y-4148161D01*
X4932702Y-4142105D01*
X4946000Y-4150990D01*
X4946000Y-4212988D01*
G36*
X5021000Y-5187702D02*
X5008491Y-5182507D01*
X4991583Y-5182493D01*
X4975957Y-5188949D01*
X4968894Y-5196000D01*
X4948126Y-5196000D01*
X4952491Y-5185489D01*
X4952509Y-5164603D01*
X4944533Y-5145300D01*
X4929778Y-5130519D01*
X4922508Y-5127500D01*
X4932473Y-5127500D01*
X4941661Y-5123694D01*
X4948694Y-5116661D01*
X4952500Y-5107473D01*
X4952500Y-5097527D01*
X4952500Y-5042527D01*
X4948694Y-5033339D01*
X4941661Y-5026306D01*
X4940279Y-5025733D01*
X4969578Y-4996434D01*
X4989102Y-5004541D01*
X5010803Y-5004559D01*
X5021000Y-5000346D01*
X5021000Y-5187702D01*
X5021000Y-5187702D01*
G37*
X5021000Y-5187702D02*
X5008491Y-5182507D01*
X4991583Y-5182493D01*
X4975957Y-5188949D01*
X4968894Y-5196000D01*
X4948126Y-5196000D01*
X4952491Y-5185489D01*
X4952509Y-5164603D01*
X4944533Y-5145300D01*
X4929778Y-5130519D01*
X4922508Y-5127500D01*
X4932473Y-5127500D01*
X4941661Y-5123694D01*
X4948694Y-5116661D01*
X4952500Y-5107473D01*
X4952500Y-5097527D01*
X4952500Y-5042527D01*
X4948694Y-5033339D01*
X4941661Y-5026306D01*
X4940279Y-5025733D01*
X4969578Y-4996434D01*
X4989102Y-5004541D01*
X5010803Y-5004559D01*
X5021000Y-5000346D01*
X5021000Y-5187702D01*
G36*
X5056493Y-4272506D02*
X5039603Y-4272491D01*
X5020300Y-4280467D01*
X5005519Y-4295222D01*
X4999996Y-4308521D01*
X4994533Y-4295300D01*
X4979778Y-4280519D01*
X4979000Y-4280196D01*
X4979000Y-4262012D01*
X4995506Y-4245506D01*
X5001793Y-4236098D01*
X5001793Y-4236098D01*
X5004000Y-4225000D01*
X5004000Y-4219767D01*
X5004494Y-4220506D01*
X5056493Y-4272506D01*
X5056493Y-4272506D01*
G37*
X5056493Y-4272506D02*
X5039603Y-4272491D01*
X5020300Y-4280467D01*
X5005519Y-4295222D01*
X4999996Y-4308521D01*
X4994533Y-4295300D01*
X4979778Y-4280519D01*
X4979000Y-4280196D01*
X4979000Y-4262012D01*
X4995506Y-4245506D01*
X5001793Y-4236098D01*
X5001793Y-4236098D01*
X5004000Y-4225000D01*
X5004000Y-4219767D01*
X5004494Y-4220506D01*
X5056493Y-4272506D01*
G36*
X5083976Y-5878543D02*
X4825179Y-5878543D01*
X4842875Y-5866719D01*
X4853724Y-5850483D01*
X4855467Y-5854700D01*
X4870222Y-5869481D01*
X4889511Y-5877491D01*
X4910397Y-5877509D01*
X4929700Y-5869533D01*
X4944481Y-5854778D01*
X4952491Y-5835489D01*
X4952509Y-5814603D01*
X4944533Y-5795300D01*
X4929778Y-5780519D01*
X4916478Y-5774996D01*
X4929700Y-5769533D01*
X4944481Y-5754778D01*
X4952491Y-5735489D01*
X4952509Y-5714603D01*
X4949273Y-5706772D01*
X5083976Y-5706772D01*
X5083976Y-5878543D01*
X5083976Y-5878543D01*
G37*
X5083976Y-5878543D02*
X4825179Y-5878543D01*
X4842875Y-5866719D01*
X4853724Y-5850483D01*
X4855467Y-5854700D01*
X4870222Y-5869481D01*
X4889511Y-5877491D01*
X4910397Y-5877509D01*
X4929700Y-5869533D01*
X4944481Y-5854778D01*
X4952491Y-5835489D01*
X4952509Y-5814603D01*
X4944533Y-5795300D01*
X4929778Y-5780519D01*
X4916478Y-5774996D01*
X4929700Y-5769533D01*
X4944481Y-5754778D01*
X4952491Y-5735489D01*
X4952509Y-5714603D01*
X4949273Y-5706772D01*
X5083976Y-5706772D01*
X5083976Y-5878543D01*
G36*
X5089882Y-5411339D02*
X4937909Y-5411339D01*
X4944481Y-5404778D01*
X4952491Y-5385489D01*
X4952509Y-5364603D01*
X4948128Y-5354000D01*
X5000000Y-5354000D01*
X5011098Y-5351793D01*
X5020506Y-5345506D01*
X5089882Y-5276130D01*
X5089882Y-5411339D01*
X5089882Y-5411339D01*
G37*
X5089882Y-5411339D02*
X4937909Y-5411339D01*
X4944481Y-5404778D01*
X4952491Y-5385489D01*
X4952509Y-5364603D01*
X4948128Y-5354000D01*
X5000000Y-5354000D01*
X5011098Y-5351793D01*
X5020506Y-5345506D01*
X5089882Y-5276130D01*
X5089882Y-5411339D01*
G36*
X5101971Y-4775557D02*
X5100557Y-4776971D01*
X5100000Y-4776414D01*
X5099443Y-4776971D01*
X5098029Y-4775557D01*
X5098586Y-4775000D01*
X5098029Y-4774443D01*
X5099443Y-4773029D01*
X5100000Y-4773586D01*
X5100557Y-4773029D01*
X5101971Y-4774443D01*
X5101414Y-4775000D01*
X5101971Y-4775557D01*
X5101971Y-4775557D01*
G37*
X5101971Y-4775557D02*
X5100557Y-4776971D01*
X5100000Y-4776414D01*
X5099443Y-4776971D01*
X5098029Y-4775557D01*
X5098586Y-4775000D01*
X5098029Y-4774443D01*
X5099443Y-4773029D01*
X5100000Y-4773586D01*
X5100557Y-4773029D01*
X5101971Y-4774443D01*
X5101414Y-4775000D01*
X5101971Y-4775557D01*
G36*
X5133848Y-4375139D02*
X4979494Y-4529494D01*
X4973207Y-4538902D01*
X4971000Y-4550000D01*
X4971000Y-4576874D01*
X4960489Y-4572509D01*
X4939603Y-4572491D01*
X4920300Y-4580467D01*
X4905519Y-4595222D01*
X4899996Y-4608521D01*
X4894533Y-4595300D01*
X4879778Y-4580519D01*
X4860489Y-4572509D01*
X4839603Y-4572491D01*
X4820300Y-4580467D01*
X4805519Y-4595222D01*
X4805506Y-4595253D01*
X4803805Y-4590855D01*
X4802136Y-4588357D01*
X4789573Y-4586841D01*
X4788159Y-4588255D01*
X4788159Y-4585427D01*
X4786643Y-4572864D01*
X4763902Y-4562810D01*
X4739045Y-4562224D01*
X4715855Y-4571195D01*
X4713357Y-4572864D01*
X4711841Y-4585427D01*
X4750000Y-4623586D01*
X4788159Y-4585427D01*
X4788159Y-4588255D01*
X4751414Y-4625000D01*
X4751971Y-4625557D01*
X4750557Y-4626971D01*
X4750000Y-4626414D01*
X4711841Y-4664573D01*
X4713357Y-4677136D01*
X4736098Y-4687190D01*
X4746552Y-4687436D01*
X4702512Y-4731476D01*
X4689840Y-4718782D01*
X4669798Y-4710459D01*
X4648097Y-4710441D01*
X4628040Y-4718728D01*
X4612682Y-4734060D01*
X4604359Y-4754102D01*
X4604341Y-4775803D01*
X4612628Y-4795860D01*
X4627960Y-4811218D01*
X4648002Y-4819541D01*
X4666000Y-4819556D01*
X4666000Y-4877959D01*
X4664140Y-4878728D01*
X4651282Y-4891563D01*
X4650587Y-4889763D01*
X4648827Y-4887129D01*
X4636052Y-4885363D01*
X4596414Y-4925000D01*
X4636052Y-4964637D01*
X4648827Y-4962871D01*
X4650947Y-4958083D01*
X4664060Y-4971218D01*
X4684102Y-4979541D01*
X4705803Y-4979559D01*
X4725860Y-4971272D01*
X4741218Y-4955940D01*
X4747505Y-4940800D01*
X4753728Y-4955860D01*
X4769060Y-4971218D01*
X4789102Y-4979541D01*
X4810803Y-4979559D01*
X4830860Y-4971272D01*
X4843718Y-4958437D01*
X4844413Y-4960237D01*
X4846173Y-4962871D01*
X4858948Y-4964637D01*
X4898586Y-4925000D01*
X4858948Y-4885363D01*
X4846173Y-4887129D01*
X4844053Y-4891917D01*
X4830940Y-4878782D01*
X4829000Y-4877976D01*
X4829000Y-4828112D01*
X4838343Y-4818769D01*
X4840202Y-4819541D01*
X4861903Y-4819559D01*
X4881960Y-4811272D01*
X4897318Y-4795940D01*
X4905641Y-4775898D01*
X4905659Y-4754197D01*
X4897372Y-4734140D01*
X4889629Y-4726383D01*
X4922238Y-4693774D01*
X4921000Y-4700000D01*
X4921000Y-4863704D01*
X4914390Y-4860778D01*
X4888718Y-4860160D01*
X4864763Y-4869413D01*
X4862129Y-4871173D01*
X4860363Y-4883948D01*
X4900000Y-4923586D01*
X4900557Y-4923029D01*
X4901971Y-4924443D01*
X4901414Y-4925000D01*
X4901971Y-4925557D01*
X4900557Y-4926971D01*
X4900000Y-4926414D01*
X4860363Y-4966052D01*
X4862129Y-4978827D01*
X4885610Y-4989222D01*
X4894550Y-4989437D01*
X4879494Y-5004494D01*
X4873207Y-5013902D01*
X4871497Y-5022500D01*
X4867527Y-5022500D01*
X4858339Y-5026306D01*
X4851306Y-5033339D01*
X4849366Y-5038023D01*
X4839573Y-5036841D01*
X4838159Y-5038255D01*
X4838159Y-5035427D01*
X4836643Y-5022864D01*
X4813902Y-5012810D01*
X4789045Y-5012224D01*
X4765855Y-5021195D01*
X4763357Y-5022864D01*
X4761841Y-5035427D01*
X4800000Y-5073586D01*
X4838159Y-5035427D01*
X4838159Y-5038255D01*
X4801414Y-5075000D01*
X4839573Y-5113159D01*
X4849366Y-5111977D01*
X4851306Y-5116661D01*
X4858339Y-5123694D01*
X4867527Y-5127500D01*
X4877473Y-5127500D01*
X4877480Y-5127500D01*
X4870300Y-5130467D01*
X4855519Y-5145222D01*
X4849996Y-5158521D01*
X4844533Y-5145300D01*
X4829778Y-5130519D01*
X4829747Y-5130506D01*
X4834145Y-5128805D01*
X4836643Y-5127136D01*
X4838159Y-5114573D01*
X4800000Y-5076414D01*
X4799443Y-5076971D01*
X4798029Y-5075557D01*
X4798586Y-5075000D01*
X4760427Y-5036841D01*
X4747864Y-5038357D01*
X4737810Y-5061098D01*
X4737224Y-5085955D01*
X4741110Y-5096000D01*
X4631102Y-5096000D01*
X4624106Y-5088991D01*
X4608491Y-5082507D01*
X4591583Y-5082493D01*
X4579000Y-5087692D01*
X4579000Y-4988509D01*
X4580610Y-4989222D01*
X4606282Y-4989840D01*
X4630237Y-4980587D01*
X4632871Y-4978827D01*
X4634637Y-4966052D01*
X4595000Y-4926414D01*
X4594443Y-4926971D01*
X4593029Y-4925557D01*
X4593586Y-4925000D01*
X4593029Y-4924443D01*
X4594443Y-4923029D01*
X4595000Y-4923586D01*
X4634637Y-4883948D01*
X4632871Y-4871173D01*
X4609390Y-4860778D01*
X4583718Y-4860160D01*
X4576226Y-4863054D01*
X4570506Y-4854494D01*
X4529000Y-4812988D01*
X4529000Y-4673126D01*
X4539511Y-4677491D01*
X4560397Y-4677509D01*
X4579700Y-4669533D01*
X4594481Y-4654778D01*
X4600004Y-4641478D01*
X4605467Y-4654700D01*
X4620222Y-4669481D01*
X4639511Y-4677491D01*
X4660397Y-4677509D01*
X4679700Y-4669533D01*
X4694481Y-4654778D01*
X4694494Y-4654747D01*
X4696195Y-4659145D01*
X4697864Y-4661643D01*
X4710427Y-4663159D01*
X4748586Y-4625000D01*
X4710427Y-4586841D01*
X4697864Y-4588357D01*
X4695000Y-4594836D01*
X4695000Y-4568640D01*
X4781820Y-4481820D01*
X4791575Y-4467221D01*
X4795000Y-4450000D01*
X4795000Y-4353529D01*
X4800004Y-4341478D01*
X4805467Y-4354700D01*
X4820222Y-4369481D01*
X4839511Y-4377491D01*
X4860397Y-4377509D01*
X4879029Y-4369810D01*
X4879494Y-4370506D01*
X4904494Y-4395506D01*
X4913902Y-4401793D01*
X4913902Y-4401793D01*
X4925000Y-4404000D01*
X5000000Y-4404000D01*
X5011098Y-4401793D01*
X5020506Y-4395506D01*
X5038812Y-4377200D01*
X5039511Y-4377491D01*
X5060397Y-4377509D01*
X5079700Y-4369533D01*
X5094481Y-4354778D01*
X5100004Y-4341478D01*
X5105467Y-4354700D01*
X5120222Y-4369481D01*
X5133848Y-4375139D01*
X5133848Y-4375139D01*
G37*
X5133848Y-4375139D02*
X4979494Y-4529494D01*
X4973207Y-4538902D01*
X4971000Y-4550000D01*
X4971000Y-4576874D01*
X4960489Y-4572509D01*
X4939603Y-4572491D01*
X4920300Y-4580467D01*
X4905519Y-4595222D01*
X4899996Y-4608521D01*
X4894533Y-4595300D01*
X4879778Y-4580519D01*
X4860489Y-4572509D01*
X4839603Y-4572491D01*
X4820300Y-4580467D01*
X4805519Y-4595222D01*
X4805506Y-4595253D01*
X4803805Y-4590855D01*
X4802136Y-4588357D01*
X4789573Y-4586841D01*
X4788159Y-4588255D01*
X4788159Y-4585427D01*
X4786643Y-4572864D01*
X4763902Y-4562810D01*
X4739045Y-4562224D01*
X4715855Y-4571195D01*
X4713357Y-4572864D01*
X4711841Y-4585427D01*
X4750000Y-4623586D01*
X4788159Y-4585427D01*
X4788159Y-4588255D01*
X4751414Y-4625000D01*
X4751971Y-4625557D01*
X4750557Y-4626971D01*
X4750000Y-4626414D01*
X4711841Y-4664573D01*
X4713357Y-4677136D01*
X4736098Y-4687190D01*
X4746552Y-4687436D01*
X4702512Y-4731476D01*
X4689840Y-4718782D01*
X4669798Y-4710459D01*
X4648097Y-4710441D01*
X4628040Y-4718728D01*
X4612682Y-4734060D01*
X4604359Y-4754102D01*
X4604341Y-4775803D01*
X4612628Y-4795860D01*
X4627960Y-4811218D01*
X4648002Y-4819541D01*
X4666000Y-4819556D01*
X4666000Y-4877959D01*
X4664140Y-4878728D01*
X4651282Y-4891563D01*
X4650587Y-4889763D01*
X4648827Y-4887129D01*
X4636052Y-4885363D01*
X4596414Y-4925000D01*
X4636052Y-4964637D01*
X4648827Y-4962871D01*
X4650947Y-4958083D01*
X4664060Y-4971218D01*
X4684102Y-4979541D01*
X4705803Y-4979559D01*
X4725860Y-4971272D01*
X4741218Y-4955940D01*
X4747505Y-4940800D01*
X4753728Y-4955860D01*
X4769060Y-4971218D01*
X4789102Y-4979541D01*
X4810803Y-4979559D01*
X4830860Y-4971272D01*
X4843718Y-4958437D01*
X4844413Y-4960237D01*
X4846173Y-4962871D01*
X4858948Y-4964637D01*
X4898586Y-4925000D01*
X4858948Y-4885363D01*
X4846173Y-4887129D01*
X4844053Y-4891917D01*
X4830940Y-4878782D01*
X4829000Y-4877976D01*
X4829000Y-4828112D01*
X4838343Y-4818769D01*
X4840202Y-4819541D01*
X4861903Y-4819559D01*
X4881960Y-4811272D01*
X4897318Y-4795940D01*
X4905641Y-4775898D01*
X4905659Y-4754197D01*
X4897372Y-4734140D01*
X4889629Y-4726383D01*
X4922238Y-4693774D01*
X4921000Y-4700000D01*
X4921000Y-4863704D01*
X4914390Y-4860778D01*
X4888718Y-4860160D01*
X4864763Y-4869413D01*
X4862129Y-4871173D01*
X4860363Y-4883948D01*
X4900000Y-4923586D01*
X4900557Y-4923029D01*
X4901971Y-4924443D01*
X4901414Y-4925000D01*
X4901971Y-4925557D01*
X4900557Y-4926971D01*
X4900000Y-4926414D01*
X4860363Y-4966052D01*
X4862129Y-4978827D01*
X4885610Y-4989222D01*
X4894550Y-4989437D01*
X4879494Y-5004494D01*
X4873207Y-5013902D01*
X4871497Y-5022500D01*
X4867527Y-5022500D01*
X4858339Y-5026306D01*
X4851306Y-5033339D01*
X4849366Y-5038023D01*
X4839573Y-5036841D01*
X4838159Y-5038255D01*
X4838159Y-5035427D01*
X4836643Y-5022864D01*
X4813902Y-5012810D01*
X4789045Y-5012224D01*
X4765855Y-5021195D01*
X4763357Y-5022864D01*
X4761841Y-5035427D01*
X4800000Y-5073586D01*
X4838159Y-5035427D01*
X4838159Y-5038255D01*
X4801414Y-5075000D01*
X4839573Y-5113159D01*
X4849366Y-5111977D01*
X4851306Y-5116661D01*
X4858339Y-5123694D01*
X4867527Y-5127500D01*
X4877473Y-5127500D01*
X4877480Y-5127500D01*
X4870300Y-5130467D01*
X4855519Y-5145222D01*
X4849996Y-5158521D01*
X4844533Y-5145300D01*
X4829778Y-5130519D01*
X4829747Y-5130506D01*
X4834145Y-5128805D01*
X4836643Y-5127136D01*
X4838159Y-5114573D01*
X4800000Y-5076414D01*
X4799443Y-5076971D01*
X4798029Y-5075557D01*
X4798586Y-5075000D01*
X4760427Y-5036841D01*
X4747864Y-5038357D01*
X4737810Y-5061098D01*
X4737224Y-5085955D01*
X4741110Y-5096000D01*
X4631102Y-5096000D01*
X4624106Y-5088991D01*
X4608491Y-5082507D01*
X4591583Y-5082493D01*
X4579000Y-5087692D01*
X4579000Y-4988509D01*
X4580610Y-4989222D01*
X4606282Y-4989840D01*
X4630237Y-4980587D01*
X4632871Y-4978827D01*
X4634637Y-4966052D01*
X4595000Y-4926414D01*
X4594443Y-4926971D01*
X4593029Y-4925557D01*
X4593586Y-4925000D01*
X4593029Y-4924443D01*
X4594443Y-4923029D01*
X4595000Y-4923586D01*
X4634637Y-4883948D01*
X4632871Y-4871173D01*
X4609390Y-4860778D01*
X4583718Y-4860160D01*
X4576226Y-4863054D01*
X4570506Y-4854494D01*
X4529000Y-4812988D01*
X4529000Y-4673126D01*
X4539511Y-4677491D01*
X4560397Y-4677509D01*
X4579700Y-4669533D01*
X4594481Y-4654778D01*
X4600004Y-4641478D01*
X4605467Y-4654700D01*
X4620222Y-4669481D01*
X4639511Y-4677491D01*
X4660397Y-4677509D01*
X4679700Y-4669533D01*
X4694481Y-4654778D01*
X4694494Y-4654747D01*
X4696195Y-4659145D01*
X4697864Y-4661643D01*
X4710427Y-4663159D01*
X4748586Y-4625000D01*
X4710427Y-4586841D01*
X4697864Y-4588357D01*
X4695000Y-4594836D01*
X4695000Y-4568640D01*
X4781820Y-4481820D01*
X4791575Y-4467221D01*
X4795000Y-4450000D01*
X4795000Y-4353529D01*
X4800004Y-4341478D01*
X4805467Y-4354700D01*
X4820222Y-4369481D01*
X4839511Y-4377491D01*
X4860397Y-4377509D01*
X4879029Y-4369810D01*
X4879494Y-4370506D01*
X4904494Y-4395506D01*
X4913902Y-4401793D01*
X4913902Y-4401793D01*
X4925000Y-4404000D01*
X5000000Y-4404000D01*
X5011098Y-4401793D01*
X5020506Y-4395506D01*
X5038812Y-4377200D01*
X5039511Y-4377491D01*
X5060397Y-4377509D01*
X5079700Y-4369533D01*
X5094481Y-4354778D01*
X5100004Y-4341478D01*
X5105467Y-4354700D01*
X5120222Y-4369481D01*
X5133848Y-4375139D01*
G36*
X5133848Y-4675139D02*
X5129494Y-4679494D01*
X5123207Y-4688902D01*
X5121000Y-4700000D01*
X5121000Y-4713211D01*
X5114497Y-4710332D01*
X5088646Y-4709706D01*
X5079630Y-4713188D01*
X5071654Y-4693886D01*
X5056196Y-4678400D01*
X5054036Y-4677504D01*
X5060397Y-4677509D01*
X5079700Y-4669533D01*
X5094481Y-4654778D01*
X5100004Y-4641478D01*
X5105467Y-4654700D01*
X5120222Y-4669481D01*
X5133848Y-4675139D01*
X5133848Y-4675139D01*
G37*
X5133848Y-4675139D02*
X5129494Y-4679494D01*
X5123207Y-4688902D01*
X5121000Y-4700000D01*
X5121000Y-4713211D01*
X5114497Y-4710332D01*
X5088646Y-4709706D01*
X5079630Y-4713188D01*
X5071654Y-4693886D01*
X5056196Y-4678400D01*
X5054036Y-4677504D01*
X5060397Y-4677509D01*
X5079700Y-4669533D01*
X5094481Y-4654778D01*
X5100004Y-4641478D01*
X5105467Y-4654700D01*
X5120222Y-4669481D01*
X5133848Y-4675139D01*
G36*
X5183521Y-5125004D02*
X5170300Y-5130467D01*
X5155519Y-5145222D01*
X5155196Y-5146000D01*
X5100000Y-5146000D01*
X5088902Y-5148207D01*
X5079494Y-5154494D01*
X5079000Y-5154988D01*
X5079000Y-5011296D01*
X5085610Y-5014222D01*
X5111282Y-5014840D01*
X5135237Y-5005587D01*
X5137871Y-5003827D01*
X5139637Y-4991052D01*
X5100000Y-4951414D01*
X5099443Y-4951971D01*
X5098029Y-4950557D01*
X5098586Y-4950000D01*
X5098029Y-4949443D01*
X5099443Y-4948029D01*
X5100000Y-4948586D01*
X5139637Y-4908948D01*
X5137871Y-4896173D01*
X5125372Y-4890640D01*
X5170506Y-4845506D01*
X5171000Y-4844767D01*
X5171000Y-4850000D01*
X5171000Y-4902959D01*
X5169140Y-4903728D01*
X5156282Y-4916563D01*
X5155587Y-4914763D01*
X5153827Y-4912129D01*
X5141052Y-4910363D01*
X5101414Y-4950000D01*
X5141052Y-4989637D01*
X5153827Y-4987871D01*
X5155947Y-4983083D01*
X5169060Y-4996218D01*
X5171000Y-4997024D01*
X5171000Y-5030177D01*
X5170300Y-5030467D01*
X5155519Y-5045222D01*
X5147509Y-5064511D01*
X5147491Y-5085397D01*
X5155467Y-5104700D01*
X5170222Y-5119481D01*
X5183521Y-5125004D01*
X5183521Y-5125004D01*
G37*
X5183521Y-5125004D02*
X5170300Y-5130467D01*
X5155519Y-5145222D01*
X5155196Y-5146000D01*
X5100000Y-5146000D01*
X5088902Y-5148207D01*
X5079494Y-5154494D01*
X5079000Y-5154988D01*
X5079000Y-5011296D01*
X5085610Y-5014222D01*
X5111282Y-5014840D01*
X5135237Y-5005587D01*
X5137871Y-5003827D01*
X5139637Y-4991052D01*
X5100000Y-4951414D01*
X5099443Y-4951971D01*
X5098029Y-4950557D01*
X5098586Y-4950000D01*
X5098029Y-4949443D01*
X5099443Y-4948029D01*
X5100000Y-4948586D01*
X5139637Y-4908948D01*
X5137871Y-4896173D01*
X5125372Y-4890640D01*
X5170506Y-4845506D01*
X5171000Y-4844767D01*
X5171000Y-4850000D01*
X5171000Y-4902959D01*
X5169140Y-4903728D01*
X5156282Y-4916563D01*
X5155587Y-4914763D01*
X5153827Y-4912129D01*
X5141052Y-4910363D01*
X5101414Y-4950000D01*
X5141052Y-4989637D01*
X5153827Y-4987871D01*
X5155947Y-4983083D01*
X5169060Y-4996218D01*
X5171000Y-4997024D01*
X5171000Y-5030177D01*
X5170300Y-5030467D01*
X5155519Y-5045222D01*
X5147509Y-5064511D01*
X5147491Y-5085397D01*
X5155467Y-5104700D01*
X5170222Y-5119481D01*
X5183521Y-5125004D01*
G36*
X5221000Y-4387988D02*
X5179494Y-4429494D01*
X5173207Y-4438902D01*
X5171000Y-4450000D01*
X5171000Y-4576874D01*
X5160489Y-4572509D01*
X5139603Y-4572491D01*
X5120300Y-4580467D01*
X5105519Y-4595222D01*
X5099996Y-4608521D01*
X5094533Y-4595300D01*
X5079778Y-4580519D01*
X5060489Y-4572509D01*
X5039603Y-4572491D01*
X5029000Y-4576872D01*
X5029000Y-4562012D01*
X5220506Y-4370506D01*
X5220980Y-4369796D01*
X5221000Y-4369804D01*
X5221000Y-4387988D01*
X5221000Y-4387988D01*
G37*
X5221000Y-4387988D02*
X5179494Y-4429494D01*
X5173207Y-4438902D01*
X5171000Y-4450000D01*
X5171000Y-4576874D01*
X5160489Y-4572509D01*
X5139603Y-4572491D01*
X5120300Y-4580467D01*
X5105519Y-4595222D01*
X5099996Y-4608521D01*
X5094533Y-4595300D01*
X5079778Y-4580519D01*
X5060489Y-4572509D01*
X5039603Y-4572491D01*
X5029000Y-4576872D01*
X5029000Y-4562012D01*
X5220506Y-4370506D01*
X5220980Y-4369796D01*
X5221000Y-4369804D01*
X5221000Y-4387988D01*
G36*
X5226971Y-4775557D02*
X5225557Y-4776971D01*
X5225000Y-4776414D01*
X5224443Y-4776971D01*
X5223029Y-4775557D01*
X5223586Y-4775000D01*
X5223029Y-4774443D01*
X5224443Y-4773029D01*
X5225000Y-4773586D01*
X5225557Y-4773029D01*
X5226971Y-4774443D01*
X5226414Y-4775000D01*
X5226971Y-4775557D01*
X5226971Y-4775557D01*
G37*
X5226971Y-4775557D02*
X5225557Y-4776971D01*
X5225000Y-4776414D01*
X5224443Y-4776971D01*
X5223029Y-4775557D01*
X5223586Y-4775000D01*
X5223029Y-4774443D01*
X5224443Y-4773029D01*
X5225000Y-4773586D01*
X5225557Y-4773029D01*
X5226971Y-4774443D01*
X5226414Y-4775000D01*
X5226971Y-4775557D01*
G36*
X5321000Y-4888704D02*
X5314390Y-4885778D01*
X5288718Y-4885160D01*
X5264763Y-4894413D01*
X5262129Y-4896173D01*
X5260363Y-4908948D01*
X5300000Y-4948586D01*
X5300557Y-4948029D01*
X5301971Y-4949443D01*
X5301414Y-4950000D01*
X5301971Y-4950557D01*
X5300557Y-4951971D01*
X5300000Y-4951414D01*
X5299443Y-4951971D01*
X5298029Y-4950557D01*
X5298586Y-4950000D01*
X5258948Y-4910363D01*
X5246173Y-4912129D01*
X5244053Y-4916917D01*
X5230940Y-4903782D01*
X5229000Y-4902976D01*
X5229000Y-4850000D01*
X5229000Y-4840116D01*
X5236354Y-4840294D01*
X5245370Y-4836812D01*
X5253346Y-4856114D01*
X5268804Y-4871600D01*
X5289012Y-4879990D01*
X5310892Y-4880010D01*
X5321000Y-4875833D01*
X5321000Y-4888704D01*
X5321000Y-4888704D01*
G37*
X5321000Y-4888704D02*
X5314390Y-4885778D01*
X5288718Y-4885160D01*
X5264763Y-4894413D01*
X5262129Y-4896173D01*
X5260363Y-4908948D01*
X5300000Y-4948586D01*
X5300557Y-4948029D01*
X5301971Y-4949443D01*
X5301414Y-4950000D01*
X5301971Y-4950557D01*
X5300557Y-4951971D01*
X5300000Y-4951414D01*
X5299443Y-4951971D01*
X5298029Y-4950557D01*
X5298586Y-4950000D01*
X5258948Y-4910363D01*
X5246173Y-4912129D01*
X5244053Y-4916917D01*
X5230940Y-4903782D01*
X5229000Y-4902976D01*
X5229000Y-4850000D01*
X5229000Y-4840116D01*
X5236354Y-4840294D01*
X5245370Y-4836812D01*
X5253346Y-4856114D01*
X5268804Y-4871600D01*
X5289012Y-4879990D01*
X5310892Y-4880010D01*
X5321000Y-4875833D01*
X5321000Y-4888704D01*
G36*
X5878543Y-4700585D02*
X5851796Y-4700460D01*
X5851796Y-4105517D01*
X5830055Y-4052899D01*
X5789833Y-4012606D01*
X5737253Y-3990773D01*
X5680320Y-3990723D01*
X5627702Y-4012465D01*
X5587409Y-4052687D01*
X5565576Y-4105267D01*
X5565526Y-4162200D01*
X5587268Y-4214818D01*
X5627490Y-4255110D01*
X5680070Y-4276944D01*
X5737003Y-4276993D01*
X5789621Y-4255252D01*
X5829914Y-4215030D01*
X5851747Y-4162450D01*
X5851796Y-4105517D01*
X5851796Y-4700460D01*
X5815294Y-4700290D01*
X5815294Y-4588646D01*
X5805978Y-4564524D01*
X5805010Y-4563073D01*
X5805010Y-4489108D01*
X5796654Y-4468886D01*
X5781196Y-4453400D01*
X5760988Y-4445010D01*
X5739108Y-4444990D01*
X5718886Y-4453346D01*
X5705000Y-4467208D01*
X5705000Y-4465027D01*
X5701194Y-4455839D01*
X5694161Y-4448806D01*
X5684973Y-4445000D01*
X5675027Y-4445000D01*
X5615027Y-4445000D01*
X5605839Y-4448806D01*
X5598806Y-4455839D01*
X5595000Y-4465027D01*
X5595000Y-4474973D01*
X5595000Y-4534973D01*
X5598806Y-4544161D01*
X5605839Y-4551194D01*
X5610801Y-4553250D01*
X5610038Y-4558624D01*
X5650000Y-4598586D01*
X5689962Y-4558624D01*
X5689199Y-4553250D01*
X5694161Y-4551194D01*
X5701194Y-4544161D01*
X5705000Y-4534973D01*
X5705000Y-4532771D01*
X5715756Y-4543546D01*
X5714524Y-4544022D01*
X5711859Y-4545802D01*
X5710038Y-4558624D01*
X5750000Y-4598586D01*
X5789962Y-4558624D01*
X5788141Y-4545802D01*
X5783865Y-4543908D01*
X5796600Y-4531196D01*
X5804990Y-4510988D01*
X5805010Y-4489108D01*
X5805010Y-4563073D01*
X5804198Y-4561859D01*
X5791376Y-4560038D01*
X5751414Y-4600000D01*
X5791376Y-4639962D01*
X5804198Y-4638141D01*
X5814668Y-4614497D01*
X5815294Y-4588646D01*
X5815294Y-4700290D01*
X5805000Y-4700242D01*
X5805010Y-4689108D01*
X5796654Y-4668886D01*
X5784244Y-4656454D01*
X5785476Y-4655978D01*
X5788141Y-4654198D01*
X5789962Y-4641376D01*
X5750000Y-4601414D01*
X5748586Y-4602828D01*
X5748586Y-4600000D01*
X5708624Y-4560038D01*
X5700000Y-4561263D01*
X5691376Y-4560038D01*
X5651414Y-4600000D01*
X5691376Y-4639962D01*
X5700000Y-4638737D01*
X5708624Y-4639962D01*
X5748586Y-4600000D01*
X5748586Y-4602828D01*
X5710038Y-4641376D01*
X5711859Y-4654198D01*
X5716135Y-4656092D01*
X5703400Y-4668804D01*
X5700002Y-4676989D01*
X5696654Y-4668886D01*
X5684244Y-4656454D01*
X5685476Y-4655978D01*
X5688141Y-4654198D01*
X5689962Y-4641376D01*
X5650000Y-4601414D01*
X5648586Y-4602828D01*
X5648586Y-4600000D01*
X5608624Y-4560038D01*
X5595802Y-4561859D01*
X5585332Y-4585503D01*
X5584706Y-4611354D01*
X5594022Y-4635476D01*
X5595802Y-4638141D01*
X5608624Y-4639962D01*
X5648586Y-4600000D01*
X5648586Y-4602828D01*
X5610038Y-4641376D01*
X5611859Y-4654198D01*
X5616135Y-4656092D01*
X5603400Y-4668804D01*
X5595010Y-4689012D01*
X5595001Y-4699260D01*
X5552350Y-4699061D01*
X5552350Y-4071312D01*
X5552350Y-4057388D01*
X5552350Y-4034750D01*
X5543600Y-4026000D01*
X5479000Y-4026000D01*
X5479000Y-4090600D01*
X5487750Y-4099350D01*
X5524312Y-4099350D01*
X5537176Y-4094022D01*
X5547022Y-4084176D01*
X5552350Y-4071312D01*
X5552350Y-4699061D01*
X5478644Y-4698717D01*
X5479628Y-4984173D01*
X5477000Y-4984173D01*
X5477000Y-4090600D01*
X5477000Y-4026000D01*
X5412400Y-4026000D01*
X5403650Y-4034750D01*
X5403650Y-4057388D01*
X5403650Y-4071312D01*
X5408978Y-4084176D01*
X5418824Y-4094022D01*
X5431688Y-4099350D01*
X5468250Y-4099350D01*
X5477000Y-4090600D01*
X5477000Y-4984173D01*
X5458992Y-4984173D01*
X5459010Y-4963316D01*
X5450047Y-4941623D01*
X5449068Y-4940642D01*
X5453826Y-4938672D01*
X5463672Y-4928826D01*
X5469000Y-4915962D01*
X5469000Y-4884750D01*
X5469000Y-4865250D01*
X5469000Y-4834038D01*
X5463672Y-4821174D01*
X5453826Y-4811328D01*
X5440962Y-4806000D01*
X5427038Y-4806000D01*
X5409750Y-4806000D01*
X5401000Y-4814750D01*
X5401000Y-4874000D01*
X5460250Y-4874000D01*
X5469000Y-4865250D01*
X5469000Y-4884750D01*
X5460250Y-4876000D01*
X5401000Y-4876000D01*
X5401000Y-4876787D01*
X5399000Y-4876787D01*
X5399000Y-4876000D01*
X5398213Y-4876000D01*
X5398213Y-4874000D01*
X5399000Y-4874000D01*
X5399000Y-4814750D01*
X5390250Y-4806000D01*
X5379000Y-4806000D01*
X5379000Y-4700000D01*
X5376793Y-4688902D01*
X5370506Y-4679494D01*
X5366146Y-4675134D01*
X5379700Y-4669533D01*
X5394481Y-4654778D01*
X5402491Y-4635489D01*
X5402509Y-4614603D01*
X5394533Y-4595300D01*
X5379778Y-4580519D01*
X5360489Y-4572509D01*
X5342502Y-4572493D01*
X5342507Y-4566583D01*
X5336051Y-4550957D01*
X5324106Y-4538991D01*
X5308491Y-4532507D01*
X5291583Y-4532493D01*
X5275957Y-4538949D01*
X5263991Y-4550894D01*
X5257507Y-4566509D01*
X5257502Y-4572506D01*
X5239603Y-4572491D01*
X5229000Y-4576872D01*
X5229000Y-4462012D01*
X5270506Y-4420506D01*
X5276793Y-4411098D01*
X5279000Y-4400000D01*
X5279000Y-4369823D01*
X5279700Y-4369533D01*
X5294481Y-4354778D01*
X5300004Y-4341478D01*
X5305467Y-4354700D01*
X5320222Y-4369481D01*
X5339511Y-4377491D01*
X5360397Y-4377509D01*
X5379700Y-4369533D01*
X5394481Y-4354778D01*
X5402491Y-4335489D01*
X5402509Y-4314603D01*
X5394533Y-4295300D01*
X5379778Y-4280519D01*
X5360489Y-4272509D01*
X5339603Y-4272491D01*
X5338825Y-4272812D01*
X5320506Y-4254494D01*
X5311098Y-4248207D01*
X5300000Y-4246000D01*
X5225000Y-4246000D01*
X5213902Y-4248207D01*
X5204494Y-4254494D01*
X5179494Y-4279494D01*
X5179020Y-4280204D01*
X5160489Y-4272509D01*
X5139603Y-4272491D01*
X5138825Y-4272812D01*
X5054000Y-4187988D01*
X5054000Y-4155053D01*
X5073844Y-4159000D01*
X5076156Y-4159000D01*
X5098734Y-4154509D01*
X5117875Y-4141719D01*
X5130665Y-4122578D01*
X5135156Y-4100000D01*
X5130665Y-4077422D01*
X5117875Y-4058281D01*
X5114380Y-4055945D01*
X5131404Y-4039744D01*
X5142320Y-4015134D01*
X5142987Y-4011781D01*
X5135242Y-4001000D01*
X5076000Y-4001000D01*
X5076000Y-4001787D01*
X5074000Y-4001787D01*
X5074000Y-4001000D01*
X5073213Y-4001000D01*
X5073213Y-3999000D01*
X5074000Y-3999000D01*
X5074000Y-3998213D01*
X5076000Y-3998213D01*
X5076000Y-3999000D01*
X5135242Y-3999000D01*
X5142987Y-3988219D01*
X5142320Y-3984866D01*
X5133054Y-3963976D01*
X5201179Y-3963976D01*
X5185596Y-3970415D01*
X5167479Y-3988501D01*
X5157661Y-4012144D01*
X5157639Y-4037744D01*
X5167415Y-4061404D01*
X5185501Y-4079521D01*
X5209144Y-4089339D01*
X5234744Y-4089361D01*
X5258404Y-4079585D01*
X5276521Y-4061499D01*
X5286339Y-4037856D01*
X5286361Y-4012256D01*
X5276585Y-3988596D01*
X5258499Y-3970479D01*
X5242840Y-3963976D01*
X5410826Y-3963976D01*
X5408978Y-3965824D01*
X5403650Y-3978688D01*
X5403650Y-3992612D01*
X5403650Y-4015250D01*
X5412400Y-4024000D01*
X5477000Y-4024000D01*
X5477000Y-4023213D01*
X5479000Y-4023213D01*
X5479000Y-4024000D01*
X5543600Y-4024000D01*
X5552350Y-4015250D01*
X5552350Y-3992612D01*
X5552350Y-3978688D01*
X5547022Y-3965824D01*
X5545174Y-3963976D01*
X5878543Y-3963976D01*
X5878543Y-4700585D01*
X5878543Y-4700585D01*
G37*
X5878543Y-4700585D02*
X5851796Y-4700460D01*
X5851796Y-4105517D01*
X5830055Y-4052899D01*
X5789833Y-4012606D01*
X5737253Y-3990773D01*
X5680320Y-3990723D01*
X5627702Y-4012465D01*
X5587409Y-4052687D01*
X5565576Y-4105267D01*
X5565526Y-4162200D01*
X5587268Y-4214818D01*
X5627490Y-4255110D01*
X5680070Y-4276944D01*
X5737003Y-4276993D01*
X5789621Y-4255252D01*
X5829914Y-4215030D01*
X5851747Y-4162450D01*
X5851796Y-4105517D01*
X5851796Y-4700460D01*
X5815294Y-4700290D01*
X5815294Y-4588646D01*
X5805978Y-4564524D01*
X5805010Y-4563073D01*
X5805010Y-4489108D01*
X5796654Y-4468886D01*
X5781196Y-4453400D01*
X5760988Y-4445010D01*
X5739108Y-4444990D01*
X5718886Y-4453346D01*
X5705000Y-4467208D01*
X5705000Y-4465027D01*
X5701194Y-4455839D01*
X5694161Y-4448806D01*
X5684973Y-4445000D01*
X5675027Y-4445000D01*
X5615027Y-4445000D01*
X5605839Y-4448806D01*
X5598806Y-4455839D01*
X5595000Y-4465027D01*
X5595000Y-4474973D01*
X5595000Y-4534973D01*
X5598806Y-4544161D01*
X5605839Y-4551194D01*
X5610801Y-4553250D01*
X5610038Y-4558624D01*
X5650000Y-4598586D01*
X5689962Y-4558624D01*
X5689199Y-4553250D01*
X5694161Y-4551194D01*
X5701194Y-4544161D01*
X5705000Y-4534973D01*
X5705000Y-4532771D01*
X5715756Y-4543546D01*
X5714524Y-4544022D01*
X5711859Y-4545802D01*
X5710038Y-4558624D01*
X5750000Y-4598586D01*
X5789962Y-4558624D01*
X5788141Y-4545802D01*
X5783865Y-4543908D01*
X5796600Y-4531196D01*
X5804990Y-4510988D01*
X5805010Y-4489108D01*
X5805010Y-4563073D01*
X5804198Y-4561859D01*
X5791376Y-4560038D01*
X5751414Y-4600000D01*
X5791376Y-4639962D01*
X5804198Y-4638141D01*
X5814668Y-4614497D01*
X5815294Y-4588646D01*
X5815294Y-4700290D01*
X5805000Y-4700242D01*
X5805010Y-4689108D01*
X5796654Y-4668886D01*
X5784244Y-4656454D01*
X5785476Y-4655978D01*
X5788141Y-4654198D01*
X5789962Y-4641376D01*
X5750000Y-4601414D01*
X5748586Y-4602828D01*
X5748586Y-4600000D01*
X5708624Y-4560038D01*
X5700000Y-4561263D01*
X5691376Y-4560038D01*
X5651414Y-4600000D01*
X5691376Y-4639962D01*
X5700000Y-4638737D01*
X5708624Y-4639962D01*
X5748586Y-4600000D01*
X5748586Y-4602828D01*
X5710038Y-4641376D01*
X5711859Y-4654198D01*
X5716135Y-4656092D01*
X5703400Y-4668804D01*
X5700002Y-4676989D01*
X5696654Y-4668886D01*
X5684244Y-4656454D01*
X5685476Y-4655978D01*
X5688141Y-4654198D01*
X5689962Y-4641376D01*
X5650000Y-4601414D01*
X5648586Y-4602828D01*
X5648586Y-4600000D01*
X5608624Y-4560038D01*
X5595802Y-4561859D01*
X5585332Y-4585503D01*
X5584706Y-4611354D01*
X5594022Y-4635476D01*
X5595802Y-4638141D01*
X5608624Y-4639962D01*
X5648586Y-4600000D01*
X5648586Y-4602828D01*
X5610038Y-4641376D01*
X5611859Y-4654198D01*
X5616135Y-4656092D01*
X5603400Y-4668804D01*
X5595010Y-4689012D01*
X5595001Y-4699260D01*
X5552350Y-4699061D01*
X5552350Y-4071312D01*
X5552350Y-4057388D01*
X5552350Y-4034750D01*
X5543600Y-4026000D01*
X5479000Y-4026000D01*
X5479000Y-4090600D01*
X5487750Y-4099350D01*
X5524312Y-4099350D01*
X5537176Y-4094022D01*
X5547022Y-4084176D01*
X5552350Y-4071312D01*
X5552350Y-4699061D01*
X5478644Y-4698717D01*
X5479628Y-4984173D01*
X5477000Y-4984173D01*
X5477000Y-4090600D01*
X5477000Y-4026000D01*
X5412400Y-4026000D01*
X5403650Y-4034750D01*
X5403650Y-4057388D01*
X5403650Y-4071312D01*
X5408978Y-4084176D01*
X5418824Y-4094022D01*
X5431688Y-4099350D01*
X5468250Y-4099350D01*
X5477000Y-4090600D01*
X5477000Y-4984173D01*
X5458992Y-4984173D01*
X5459010Y-4963316D01*
X5450047Y-4941623D01*
X5449068Y-4940642D01*
X5453826Y-4938672D01*
X5463672Y-4928826D01*
X5469000Y-4915962D01*
X5469000Y-4884750D01*
X5469000Y-4865250D01*
X5469000Y-4834038D01*
X5463672Y-4821174D01*
X5453826Y-4811328D01*
X5440962Y-4806000D01*
X5427038Y-4806000D01*
X5409750Y-4806000D01*
X5401000Y-4814750D01*
X5401000Y-4874000D01*
X5460250Y-4874000D01*
X5469000Y-4865250D01*
X5469000Y-4884750D01*
X5460250Y-4876000D01*
X5401000Y-4876000D01*
X5401000Y-4876787D01*
X5399000Y-4876787D01*
X5399000Y-4876000D01*
X5398213Y-4876000D01*
X5398213Y-4874000D01*
X5399000Y-4874000D01*
X5399000Y-4814750D01*
X5390250Y-4806000D01*
X5379000Y-4806000D01*
X5379000Y-4700000D01*
X5376793Y-4688902D01*
X5370506Y-4679494D01*
X5366146Y-4675134D01*
X5379700Y-4669533D01*
X5394481Y-4654778D01*
X5402491Y-4635489D01*
X5402509Y-4614603D01*
X5394533Y-4595300D01*
X5379778Y-4580519D01*
X5360489Y-4572509D01*
X5342502Y-4572493D01*
X5342507Y-4566583D01*
X5336051Y-4550957D01*
X5324106Y-4538991D01*
X5308491Y-4532507D01*
X5291583Y-4532493D01*
X5275957Y-4538949D01*
X5263991Y-4550894D01*
X5257507Y-4566509D01*
X5257502Y-4572506D01*
X5239603Y-4572491D01*
X5229000Y-4576872D01*
X5229000Y-4462012D01*
X5270506Y-4420506D01*
X5276793Y-4411098D01*
X5279000Y-4400000D01*
X5279000Y-4369823D01*
X5279700Y-4369533D01*
X5294481Y-4354778D01*
X5300004Y-4341478D01*
X5305467Y-4354700D01*
X5320222Y-4369481D01*
X5339511Y-4377491D01*
X5360397Y-4377509D01*
X5379700Y-4369533D01*
X5394481Y-4354778D01*
X5402491Y-4335489D01*
X5402509Y-4314603D01*
X5394533Y-4295300D01*
X5379778Y-4280519D01*
X5360489Y-4272509D01*
X5339603Y-4272491D01*
X5338825Y-4272812D01*
X5320506Y-4254494D01*
X5311098Y-4248207D01*
X5300000Y-4246000D01*
X5225000Y-4246000D01*
X5213902Y-4248207D01*
X5204494Y-4254494D01*
X5179494Y-4279494D01*
X5179020Y-4280204D01*
X5160489Y-4272509D01*
X5139603Y-4272491D01*
X5138825Y-4272812D01*
X5054000Y-4187988D01*
X5054000Y-4155053D01*
X5073844Y-4159000D01*
X5076156Y-4159000D01*
X5098734Y-4154509D01*
X5117875Y-4141719D01*
X5130665Y-4122578D01*
X5135156Y-4100000D01*
X5130665Y-4077422D01*
X5117875Y-4058281D01*
X5114380Y-4055945D01*
X5131404Y-4039744D01*
X5142320Y-4015134D01*
X5142987Y-4011781D01*
X5135242Y-4001000D01*
X5076000Y-4001000D01*
X5076000Y-4001787D01*
X5074000Y-4001787D01*
X5074000Y-4001000D01*
X5073213Y-4001000D01*
X5073213Y-3999000D01*
X5074000Y-3999000D01*
X5074000Y-3998213D01*
X5076000Y-3998213D01*
X5076000Y-3999000D01*
X5135242Y-3999000D01*
X5142987Y-3988219D01*
X5142320Y-3984866D01*
X5133054Y-3963976D01*
X5201179Y-3963976D01*
X5185596Y-3970415D01*
X5167479Y-3988501D01*
X5157661Y-4012144D01*
X5157639Y-4037744D01*
X5167415Y-4061404D01*
X5185501Y-4079521D01*
X5209144Y-4089339D01*
X5234744Y-4089361D01*
X5258404Y-4079585D01*
X5276521Y-4061499D01*
X5286339Y-4037856D01*
X5286361Y-4012256D01*
X5276585Y-3988596D01*
X5258499Y-3970479D01*
X5242840Y-3963976D01*
X5410826Y-3963976D01*
X5408978Y-3965824D01*
X5403650Y-3978688D01*
X5403650Y-3992612D01*
X5403650Y-4015250D01*
X5412400Y-4024000D01*
X5477000Y-4024000D01*
X5477000Y-4023213D01*
X5479000Y-4023213D01*
X5479000Y-4024000D01*
X5543600Y-4024000D01*
X5552350Y-4015250D01*
X5552350Y-3992612D01*
X5552350Y-3978688D01*
X5547022Y-3965824D01*
X5545174Y-3963976D01*
X5878543Y-3963976D01*
X5878543Y-4700585D01*
M02*
