%FSLAX36Y36*%
G04 Gerber Fmt 3.6, Leading zero omitted, Abs format (unit inch)*
G04 Created by KiCad (PCBNEW (2014-jul-16 BZR unknown)-product) date Mon 26 Jan 2015 07:29:18 PM PST*
%MOIN*%
G01*
G04 APERTURE LIST*
%ADD10C,0.003937*%
%ADD11C,0.236220*%
%ADD12C,0.059100*%
%ADD13C,0.078700*%
%ADD14R,0.078700X0.078700*%
%ADD15C,0.060000*%
%ADD16R,0.068000X0.068000*%
%ADD17C,0.068000*%
%ADD18R,0.060000X0.060000*%
%ADD19O,0.068000X0.068000*%
%ADD20R,0.055000X0.055000*%
%ADD21C,0.055000*%
G04 APERTURE END LIST*
D10*
D11*
X4133858Y-4133858D03*
X5708661Y-4133858D03*
X4133858Y-5708661D03*
X5708661Y-5708661D03*
D12*
X4000000Y-4850000D03*
X4000000Y-4750000D03*
X4695000Y-4925000D03*
X4595000Y-4925000D03*
X5200000Y-4950000D03*
X5300000Y-4950000D03*
X4800000Y-4925000D03*
X4900000Y-4925000D03*
X5000000Y-4950000D03*
X5100000Y-4950000D03*
D13*
X4125000Y-4725000D03*
D14*
X4125000Y-5125000D03*
D15*
X4450000Y-4125000D03*
X4450000Y-4225000D03*
D16*
X4375000Y-5625000D03*
D17*
X4375000Y-5725000D03*
X4375000Y-5825000D03*
D18*
X5650000Y-4500000D03*
D15*
X5750000Y-4500000D03*
X5650000Y-4600000D03*
X5750000Y-4600000D03*
X5650000Y-4700000D03*
X5750000Y-4700000D03*
X5650000Y-4800000D03*
X5750000Y-4800000D03*
X5650000Y-4900000D03*
X5750000Y-4900000D03*
D16*
X4000000Y-5475000D03*
D17*
X4000000Y-5375000D03*
X4000000Y-5275000D03*
X4000000Y-5175000D03*
X4000000Y-5075000D03*
X4000000Y-4975000D03*
D16*
X4875000Y-4100000D03*
D19*
X4875000Y-4000000D03*
X4975000Y-4100000D03*
X4975000Y-4000000D03*
X5075000Y-4100000D03*
X5075000Y-4000000D03*
D14*
X5478000Y-4025000D03*
D13*
X5222000Y-4025000D03*
D12*
X4658900Y-4765000D03*
X4851100Y-4765000D03*
D20*
X4900000Y-5075000D03*
D21*
X4900000Y-5175000D03*
X4900000Y-5275000D03*
X4900000Y-5375000D03*
X5200000Y-5375000D03*
X5200000Y-5275000D03*
X5200000Y-5175000D03*
X5200000Y-5075000D03*
D12*
X4450000Y-4750000D03*
X4450000Y-4850000D03*
X4750000Y-4225000D03*
X4650000Y-4225000D03*
X5400000Y-5725000D03*
X5400000Y-5825000D03*
X5400000Y-5625000D03*
X5400000Y-5525000D03*
D16*
X5400000Y-4875000D03*
D17*
X5400000Y-4975000D03*
X5400000Y-5075000D03*
X5400000Y-5175000D03*
X5400000Y-5275000D03*
X5400000Y-5375000D03*
D21*
X4150000Y-4625000D03*
X4250000Y-4625000D03*
X4350000Y-4625000D03*
X4450000Y-4625000D03*
X4550000Y-4625000D03*
X4650000Y-4625000D03*
X4750000Y-4625000D03*
X4850000Y-4625000D03*
X4950000Y-4625000D03*
X5050000Y-4625000D03*
X5150000Y-4625000D03*
X5250000Y-4625000D03*
X5350000Y-4625000D03*
D20*
X4050000Y-4625000D03*
D21*
X5350000Y-4325000D03*
X5250000Y-4325000D03*
X5150000Y-4325000D03*
X5050000Y-4325000D03*
X4950000Y-4325000D03*
X4850000Y-4325000D03*
X4750000Y-4325000D03*
X4650000Y-4325000D03*
X4550000Y-4325000D03*
X4450000Y-4325000D03*
X4350000Y-4325000D03*
X4250000Y-4325000D03*
X4150000Y-4325000D03*
X4050000Y-4325000D03*
D20*
X4900000Y-5525000D03*
D21*
X4900000Y-5625000D03*
X4900000Y-5725000D03*
X4900000Y-5825000D03*
X5200000Y-5825000D03*
X5200000Y-5725000D03*
X5200000Y-5625000D03*
X5200000Y-5525000D03*
D20*
X5525000Y-5475000D03*
D21*
X5625000Y-5475000D03*
X5725000Y-5475000D03*
X5825000Y-5475000D03*
X5825000Y-5175000D03*
X5725000Y-5175000D03*
X5625000Y-5175000D03*
X5525000Y-5175000D03*
D15*
X5300000Y-4825000D03*
X5225000Y-4775000D03*
X5300000Y-4725000D03*
D20*
X4500000Y-5075000D03*
D21*
X4500000Y-5175000D03*
X4500000Y-5275000D03*
X4500000Y-5375000D03*
X4800000Y-5375000D03*
X4800000Y-5275000D03*
X4800000Y-5175000D03*
X4800000Y-5075000D03*
D15*
X5025000Y-4725000D03*
X5100000Y-4775000D03*
X5025000Y-4825000D03*
D19*
X4225000Y-4725000D03*
X4225000Y-5025000D03*
X4400000Y-5175000D03*
X4400000Y-5475000D03*
X4325000Y-5025000D03*
X4325000Y-4725000D03*
X4300000Y-5175000D03*
X4300000Y-5475000D03*
X4800000Y-5825000D03*
X4500000Y-5825000D03*
X4500000Y-5725000D03*
X4800000Y-5725000D03*
X4500000Y-5625000D03*
X4800000Y-5625000D03*
X4350000Y-4000000D03*
X4650000Y-4000000D03*
X5300000Y-5825000D03*
X5300000Y-5525000D03*
X5300000Y-5075000D03*
X5300000Y-5375000D03*
D12*
X4600000Y-5500000D03*
X4700000Y-5500000D03*
M02*
